ISO-10303-21;
HEADER;
/* Generated by software containing ST-Developer
 * from STEP Tools, Inc. (www.steptools.com) 
 */
/* OPTION: using custom renumber hook */

FILE_DESCRIPTION(
/* description */ ('STEP AP242 Edition 2',
'CAx-IF Rec.Pracs.---Representation and Presentation of Product Manufa
cturing Information (PMI)---4.0---2014-10-13',
'CAx-IF Rec.Pracs.---3D Tessellated Geometry---0.4---2014-09-14','2;1',
'CAx-IF Rec.Pracs.---User Defined Attributes---1.5---2016-08-15'),
/* implementation_level */ '2;1');

FILE_NAME(
/* name */ 'Part Studio 3',
/* time_stamp */ '2026-09-04T19:13:13Z',
/* author */ (''),
/* organization */ (''),
/* preprocessor_version */ 'ST-DEVELOPER v20',
/* originating_system */ 'ONSHAPE BY PTC INC, 1.220',
/* authorisation */ '  ');

FILE_SCHEMA (('AP242_MANAGED_MODEL_BASED_3D_ENGINEERING_MIM_LF { 1 0 10303 442 3 1 4 }'));
ENDSEC;

DATA;
#10=SHAPE_REPRESENTATION_RELATIONSHIP('','',#547,#11);
#11=ADVANCED_BREP_SHAPE_REPRESENTATION('',(#545),#837);
#12=CYLINDRICAL_SURFACE('',#569,0.035);
#13=CYLINDRICAL_SURFACE('',#570,0.035);
#14=B_SPLINE_SURFACE_WITH_KNOTS('',3,1,((#707,#708),(#709,#710),(#711,#712),
(#713,#714),(#715,#716)),.SURF_OF_LINEAR_EXTRUSION.,.F.,.F.,.F.,(4,1,4),
(2,2),(0.,0.501687480535716,1.),(0.,1.),.UNSPECIFIED.);
#15=B_SPLINE_SURFACE_WITH_KNOTS('',3,1,((#736,#737),(#738,#739),(#740,#741),
(#742,#743),(#744,#745)),.SURF_OF_LINEAR_EXTRUSION.,.F.,.F.,.F.,(4,1,4),
(2,2),(0.,0.471686822896126,1.),(0.,1.),.UNSPECIFIED.);
#16=B_SPLINE_SURFACE_WITH_KNOTS('',3,1,((#761,#762),(#763,#764),(#765,#766),
(#767,#768),(#769,#770)),.SURF_OF_LINEAR_EXTRUSION.,.F.,.F.,.F.,(4,1,4),
(2,2),(0.,0.531718011776118,1.),(0.,1.),.UNSPECIFIED.);
#17=B_SPLINE_SURFACE_WITH_KNOTS('',3,1,((#782,#783),(#784,#785),(#786,#787),
(#788,#789),(#790,#791)),.SURF_OF_LINEAR_EXTRUSION.,.F.,.F.,.F.,(4,1,4),
(2,2),(0.,0.527770648184384,1.),(0.,1.),.UNSPECIFIED.);
#18=LINE('',#668,#58);
#19=LINE('',#670,#59);
#20=LINE('',#671,#60);
#21=LINE('',#674,#61);
#22=LINE('',#688,#62);
#23=LINE('',#690,#63);
#24=LINE('',#691,#64);
#25=LINE('',#694,#65);
#26=LINE('',#702,#66);
#27=LINE('',#704,#67);
#28=LINE('',#706,#68);
#29=LINE('',#717,#69);
#30=LINE('',#725,#70);
#31=LINE('',#727,#71);
#32=LINE('',#729,#72);
#33=LINE('',#731,#73);
#34=LINE('',#733,#74);
#35=LINE('',#735,#75);
#36=LINE('',#752,#76);
#37=LINE('',#754,#77);
#38=LINE('',#756,#78);
#39=LINE('',#758,#79);
#40=LINE('',#760,#80);
#41=LINE('',#777,#81);
#42=LINE('',#779,#82);
#43=LINE('',#781,#83);
#44=LINE('',#792,#84);
#45=LINE('',#800,#85);
#46=LINE('',#804,#86);
#47=LINE('',#807,#87);
#48=LINE('',#809,#88);
#49=LINE('',#811,#89);
#50=LINE('',#816,#90);
#51=LINE('',#819,#91);
#52=LINE('',#820,#92);
#53=LINE('',#822,#93);
#54=LINE('',#824,#94);
#55=LINE('',#826,#95);
#56=LINE('',#828,#96);
#57=LINE('',#830,#97);
#58=VECTOR('',#577,1.);
#59=VECTOR('',#578,1.);
#60=VECTOR('',#579,1.);
#61=VECTOR('',#580,1.);
#62=VECTOR('',#581,1.);
#63=VECTOR('',#582,1.);
#64=VECTOR('',#583,1.);
#65=VECTOR('',#584,1.);
#66=VECTOR('',#587,1.);
#67=VECTOR('',#588,1.);
#68=VECTOR('',#589,1.);
#69=VECTOR('',#590,1.);
#70=VECTOR('',#593,1.);
#71=VECTOR('',#596,1.);
#72=VECTOR('',#597,1.);
#73=VECTOR('',#598,1.);
#74=VECTOR('',#601,1.);
#75=VECTOR('',#602,1.);
#76=VECTOR('',#605,1.);
#77=VECTOR('',#606,1.);
#78=VECTOR('',#607,1.);
#79=VECTOR('',#610,1.);
#80=VECTOR('',#611,1.);
#81=VECTOR('',#614,1.);
#82=VECTOR('',#615,1.);
#83=VECTOR('',#616,1.);
#84=VECTOR('',#617,1.);
#85=VECTOR('',#620,1.);
#86=VECTOR('',#625,1.);
#87=VECTOR('',#626,1.);
#88=VECTOR('',#627,1.);
#89=VECTOR('',#628,1.);
#90=VECTOR('',#635,1.);
#91=VECTOR('',#636,1.);
#92=VECTOR('',#637,1.);
#93=VECTOR('',#640,1.);
#94=VECTOR('',#641,1.);
#95=VECTOR('',#644,1.);
#96=VECTOR('',#645,1.);
#97=VECTOR('',#648,1.);
#98=B_SPLINE_CURVE_WITH_KNOTS('',3,(#661,#662,#663,#664,#665),
 .UNSPECIFIED.,.F.,.F.,(4,1,4),(0.,0.471686822896126,1.),.UNSPECIFIED.);
#99=B_SPLINE_CURVE_WITH_KNOTS('',3,(#676,#677,#678,#679,#680),
 .UNSPECIFIED.,.F.,.F.,(4,1,4),(0.,0.527770648184384,1.),.UNSPECIFIED.);
#100=B_SPLINE_CURVE_WITH_KNOTS('',3,(#681,#682,#683,#684,#685),
 .UNSPECIFIED.,.F.,.F.,(4,1,4),(0.,0.531718011776118,1.),.UNSPECIFIED.);
#101=B_SPLINE_CURVE_WITH_KNOTS('',3,(#696,#697,#698,#699,#700),
 .UNSPECIFIED.,.F.,.F.,(4,1,4),(0.,0.501687480535716,1.),.UNSPECIFIED.);
#102=B_SPLINE_CURVE_WITH_KNOTS('',3,(#719,#720,#721,#722,#723),
 .UNSPECIFIED.,.F.,.F.,(4,1,4),(0.,0.501687480535716,1.),.UNSPECIFIED.);
#103=B_SPLINE_CURVE_WITH_KNOTS('',3,(#746,#747,#748,#749,#750),
 .UNSPECIFIED.,.F.,.F.,(4,1,4),(0.,0.471686822896126,1.),.UNSPECIFIED.);
#104=B_SPLINE_CURVE_WITH_KNOTS('',3,(#771,#772,#773,#774,#775),
 .UNSPECIFIED.,.F.,.F.,(4,1,4),(0.,0.531718011776118,1.),.UNSPECIFIED.);
#105=B_SPLINE_CURVE_WITH_KNOTS('',3,(#794,#795,#796,#797,#798),
 .UNSPECIFIED.,.F.,.F.,(4,1,4),(0.,0.527770648184384,1.),.UNSPECIFIED.);
#106=ORIENTED_EDGE('',*,*,#210,.T.);
#107=ORIENTED_EDGE('',*,*,#211,.T.);
#108=ORIENTED_EDGE('',*,*,#212,.T.);
#109=ORIENTED_EDGE('',*,*,#213,.F.);
#110=ORIENTED_EDGE('',*,*,#214,.T.);
#111=ORIENTED_EDGE('',*,*,#215,.T.);
#112=ORIENTED_EDGE('',*,*,#216,.T.);
#113=ORIENTED_EDGE('',*,*,#217,.T.);
#114=ORIENTED_EDGE('',*,*,#218,.T.);
#115=ORIENTED_EDGE('',*,*,#219,.T.);
#116=ORIENTED_EDGE('',*,*,#220,.T.);
#117=ORIENTED_EDGE('',*,*,#221,.T.);
#118=ORIENTED_EDGE('',*,*,#222,.T.);
#119=ORIENTED_EDGE('',*,*,#223,.F.);
#120=ORIENTED_EDGE('',*,*,#221,.F.);
#121=ORIENTED_EDGE('',*,*,#224,.T.);
#122=ORIENTED_EDGE('',*,*,#225,.F.);
#123=ORIENTED_EDGE('',*,*,#226,.F.);
#124=ORIENTED_EDGE('',*,*,#222,.F.);
#125=ORIENTED_EDGE('',*,*,#223,.T.);
#126=ORIENTED_EDGE('',*,*,#227,.F.);
#127=ORIENTED_EDGE('',*,*,#224,.F.);
#128=ORIENTED_EDGE('',*,*,#220,.F.);
#129=ORIENTED_EDGE('',*,*,#226,.T.);
#130=ORIENTED_EDGE('',*,*,#228,.F.);
#131=ORIENTED_EDGE('',*,*,#229,.F.);
#132=ORIENTED_EDGE('',*,*,#212,.F.);
#133=ORIENTED_EDGE('',*,*,#230,.T.);
#134=ORIENTED_EDGE('',*,*,#231,.F.);
#135=ORIENTED_EDGE('',*,*,#232,.F.);
#136=ORIENTED_EDGE('',*,*,#213,.T.);
#137=ORIENTED_EDGE('',*,*,#229,.T.);
#138=ORIENTED_EDGE('',*,*,#233,.T.);
#139=ORIENTED_EDGE('',*,*,#230,.F.);
#140=ORIENTED_EDGE('',*,*,#211,.F.);
#141=ORIENTED_EDGE('',*,*,#232,.T.);
#142=ORIENTED_EDGE('',*,*,#234,.F.);
#143=ORIENTED_EDGE('',*,*,#235,.F.);
#144=ORIENTED_EDGE('',*,*,#218,.F.);
#145=ORIENTED_EDGE('',*,*,#236,.T.);
#146=ORIENTED_EDGE('',*,*,#237,.F.);
#147=ORIENTED_EDGE('',*,*,#238,.F.);
#148=ORIENTED_EDGE('',*,*,#219,.F.);
#149=ORIENTED_EDGE('',*,*,#235,.T.);
#150=ORIENTED_EDGE('',*,*,#239,.F.);
#151=ORIENTED_EDGE('',*,*,#236,.F.);
#152=ORIENTED_EDGE('',*,*,#217,.F.);
#153=ORIENTED_EDGE('',*,*,#238,.T.);
#154=ORIENTED_EDGE('',*,*,#240,.F.);
#155=ORIENTED_EDGE('',*,*,#241,.F.);
#156=ORIENTED_EDGE('',*,*,#215,.F.);
#157=ORIENTED_EDGE('',*,*,#242,.T.);
#158=ORIENTED_EDGE('',*,*,#243,.F.);
#159=ORIENTED_EDGE('',*,*,#244,.F.);
#160=ORIENTED_EDGE('',*,*,#216,.F.);
#161=ORIENTED_EDGE('',*,*,#241,.T.);
#162=ORIENTED_EDGE('',*,*,#245,.F.);
#163=ORIENTED_EDGE('',*,*,#242,.F.);
#164=ORIENTED_EDGE('',*,*,#214,.F.);
#165=ORIENTED_EDGE('',*,*,#244,.T.);
#166=ORIENTED_EDGE('',*,*,#246,.F.);
#167=ORIENTED_EDGE('',*,*,#247,.T.);
#168=ORIENTED_EDGE('',*,*,#248,.T.);
#169=ORIENTED_EDGE('',*,*,#249,.T.);
#170=ORIENTED_EDGE('',*,*,#250,.T.);
#171=ORIENTED_EDGE('',*,*,#251,.T.);
#172=ORIENTED_EDGE('',*,*,#237,.T.);
#173=ORIENTED_EDGE('',*,*,#240,.T.);
#174=ORIENTED_EDGE('',*,*,#239,.T.);
#175=ORIENTED_EDGE('',*,*,#225,.T.);
#176=ORIENTED_EDGE('',*,*,#228,.T.);
#177=ORIENTED_EDGE('',*,*,#227,.T.);
#178=ORIENTED_EDGE('',*,*,#252,.F.);
#179=ORIENTED_EDGE('',*,*,#231,.T.);
#180=ORIENTED_EDGE('',*,*,#234,.T.);
#181=ORIENTED_EDGE('',*,*,#233,.F.);
#182=ORIENTED_EDGE('',*,*,#243,.T.);
#183=ORIENTED_EDGE('',*,*,#246,.T.);
#184=ORIENTED_EDGE('',*,*,#245,.T.);
#185=ORIENTED_EDGE('',*,*,#253,.T.);
#186=ORIENTED_EDGE('',*,*,#254,.F.);
#187=ORIENTED_EDGE('',*,*,#248,.F.);
#188=ORIENTED_EDGE('',*,*,#255,.T.);
#189=ORIENTED_EDGE('',*,*,#256,.T.);
#190=ORIENTED_EDGE('',*,*,#257,.F.);
#191=ORIENTED_EDGE('',*,*,#249,.F.);
#192=ORIENTED_EDGE('',*,*,#254,.T.);
#193=ORIENTED_EDGE('',*,*,#258,.T.);
#194=ORIENTED_EDGE('',*,*,#259,.F.);
#195=ORIENTED_EDGE('',*,*,#250,.F.);
#196=ORIENTED_EDGE('',*,*,#257,.T.);
#197=ORIENTED_EDGE('',*,*,#260,.T.);
#198=ORIENTED_EDGE('',*,*,#255,.F.);
#199=ORIENTED_EDGE('',*,*,#251,.F.);
#200=ORIENTED_EDGE('',*,*,#259,.T.);
#201=ORIENTED_EDGE('',*,*,#261,.T.);
#202=ORIENTED_EDGE('',*,*,#253,.F.);
#203=ORIENTED_EDGE('',*,*,#260,.F.);
#204=ORIENTED_EDGE('',*,*,#258,.F.);
#205=ORIENTED_EDGE('',*,*,#256,.F.);
#206=ORIENTED_EDGE('',*,*,#252,.T.);
#207=ORIENTED_EDGE('',*,*,#261,.F.);
#208=ORIENTED_EDGE('',*,*,#247,.F.);
#209=ORIENTED_EDGE('',*,*,#210,.F.);
#210=EDGE_CURVE('',#262,#262,#298,.T.);
#211=EDGE_CURVE('',#263,#264,#98,.F.);
#212=EDGE_CURVE('',#264,#265,#18,.T.);
#213=EDGE_CURVE('',#263,#265,#19,.T.);
#214=EDGE_CURVE('',#266,#267,#20,.T.);
#215=EDGE_CURVE('',#267,#268,#21,.T.);
#216=EDGE_CURVE('',#268,#266,#99,.F.);
#217=EDGE_CURVE('',#269,#270,#100,.F.);
#218=EDGE_CURVE('',#270,#271,#22,.T.);
#219=EDGE_CURVE('',#271,#269,#23,.T.);
#220=EDGE_CURVE('',#272,#273,#24,.T.);
#221=EDGE_CURVE('',#273,#274,#25,.T.);
#222=EDGE_CURVE('',#274,#272,#101,.F.);
#223=EDGE_CURVE('',#274,#275,#26,.T.);
#224=EDGE_CURVE('',#273,#276,#27,.T.);
#225=EDGE_CURVE('',#275,#276,#28,.T.);
#226=EDGE_CURVE('',#272,#277,#29,.T.);
#227=EDGE_CURVE('',#277,#275,#102,.T.);
#228=EDGE_CURVE('',#276,#277,#30,.T.);
#229=EDGE_CURVE('',#265,#278,#31,.T.);
#230=EDGE_CURVE('',#264,#279,#32,.T.);
#231=EDGE_CURVE('',#278,#279,#33,.T.);
#232=EDGE_CURVE('',#263,#280,#34,.T.);
#233=EDGE_CURVE('',#278,#280,#35,.T.);
#234=EDGE_CURVE('',#279,#280,#103,.T.);
#235=EDGE_CURVE('',#271,#281,#36,.T.);
#236=EDGE_CURVE('',#270,#282,#37,.T.);
#237=EDGE_CURVE('',#281,#282,#38,.T.);
#238=EDGE_CURVE('',#269,#283,#39,.T.);
#239=EDGE_CURVE('',#283,#281,#40,.T.);
#240=EDGE_CURVE('',#282,#283,#104,.T.);
#241=EDGE_CURVE('',#268,#284,#41,.T.);
#242=EDGE_CURVE('',#267,#285,#42,.T.);
#243=EDGE_CURVE('',#284,#285,#43,.T.);
#244=EDGE_CURVE('',#266,#286,#44,.T.);
#245=EDGE_CURVE('',#286,#284,#105,.T.);
#246=EDGE_CURVE('',#285,#286,#45,.T.);
#247=EDGE_CURVE('',#287,#287,#299,.F.);
#248=EDGE_CURVE('',#288,#289,#46,.T.);
#249=EDGE_CURVE('',#289,#290,#47,.T.);
#250=EDGE_CURVE('',#290,#291,#48,.T.);
#251=EDGE_CURVE('',#291,#288,#49,.T.);
#252=EDGE_CURVE('',#292,#292,#300,.T.);
#253=EDGE_CURVE('',#293,#294,#50,.T.);
#254=EDGE_CURVE('',#289,#294,#51,.T.);
#255=EDGE_CURVE('',#288,#293,#52,.T.);
#256=EDGE_CURVE('',#294,#295,#53,.T.);
#257=EDGE_CURVE('',#290,#295,#54,.T.);
#258=EDGE_CURVE('',#295,#296,#55,.T.);
#259=EDGE_CURVE('',#291,#296,#56,.T.);
#260=EDGE_CURVE('',#296,#293,#57,.T.);
#261=EDGE_CURVE('',#297,#297,#301,.T.);
#262=VERTEX_POINT('',#660);
#263=VERTEX_POINT('',#666);
#264=VERTEX_POINT('',#667);
#265=VERTEX_POINT('',#669);
#266=VERTEX_POINT('',#672);
#267=VERTEX_POINT('',#673);
#268=VERTEX_POINT('',#675);
#269=VERTEX_POINT('',#686);
#270=VERTEX_POINT('',#687);
#271=VERTEX_POINT('',#689);
#272=VERTEX_POINT('',#692);
#273=VERTEX_POINT('',#693);
#274=VERTEX_POINT('',#695);
#275=VERTEX_POINT('',#703);
#276=VERTEX_POINT('',#705);
#277=VERTEX_POINT('',#718);
#278=VERTEX_POINT('',#728);
#279=VERTEX_POINT('',#730);
#280=VERTEX_POINT('',#734);
#281=VERTEX_POINT('',#753);
#282=VERTEX_POINT('',#755);
#283=VERTEX_POINT('',#759);
#284=VERTEX_POINT('',#778);
#285=VERTEX_POINT('',#780);
#286=VERTEX_POINT('',#793);
#287=VERTEX_POINT('',#803);
#288=VERTEX_POINT('',#805);
#289=VERTEX_POINT('',#806);
#290=VERTEX_POINT('',#808);
#291=VERTEX_POINT('',#810);
#292=VERTEX_POINT('',#814);
#293=VERTEX_POINT('',#817);
#294=VERTEX_POINT('',#818);
#295=VERTEX_POINT('',#823);
#296=VERTEX_POINT('',#827);
#297=VERTEX_POINT('',#833);
#298=CIRCLE('',#550,0.035);
#299=CIRCLE('',#560,0.035);
#300=CIRCLE('',#562,0.035);
#301=CIRCLE('',#568,0.035);
#302=EDGE_LOOP('',(#106));
#303=EDGE_LOOP('',(#107,#108,#109));
#304=EDGE_LOOP('',(#110,#111,#112));
#305=EDGE_LOOP('',(#113,#114,#115));
#306=EDGE_LOOP('',(#116,#117,#118));
#307=EDGE_LOOP('',(#119,#120,#121,#122));
#308=EDGE_LOOP('',(#123,#124,#125,#126));
#309=EDGE_LOOP('',(#127,#128,#129,#130));
#310=EDGE_LOOP('',(#131,#132,#133,#134));
#311=EDGE_LOOP('',(#135,#136,#137,#138));
#312=EDGE_LOOP('',(#139,#140,#141,#142));
#313=EDGE_LOOP('',(#143,#144,#145,#146));
#314=EDGE_LOOP('',(#147,#148,#149,#150));
#315=EDGE_LOOP('',(#151,#152,#153,#154));
#316=EDGE_LOOP('',(#155,#156,#157,#158));
#317=EDGE_LOOP('',(#159,#160,#161,#162));
#318=EDGE_LOOP('',(#163,#164,#165,#166));
#319=EDGE_LOOP('',(#167));
#320=EDGE_LOOP('',(#168,#169,#170,#171));
#321=EDGE_LOOP('',(#172,#173,#174));
#322=EDGE_LOOP('',(#175,#176,#177));
#323=EDGE_LOOP('',(#178));
#324=EDGE_LOOP('',(#179,#180,#181));
#325=EDGE_LOOP('',(#182,#183,#184));
#326=EDGE_LOOP('',(#185,#186,#187,#188));
#327=EDGE_LOOP('',(#189,#190,#191,#192));
#328=EDGE_LOOP('',(#193,#194,#195,#196));
#329=EDGE_LOOP('',(#197,#198,#199,#200));
#330=EDGE_LOOP('',(#201));
#331=EDGE_LOOP('',(#202,#203,#204,#205));
#332=EDGE_LOOP('',(#206));
#333=EDGE_LOOP('',(#207));
#334=EDGE_LOOP('',(#208));
#335=EDGE_LOOP('',(#209));
#336=FACE_BOUND('',#302,.T.);
#337=FACE_BOUND('',#303,.T.);
#338=FACE_BOUND('',#304,.T.);
#339=FACE_BOUND('',#305,.T.);
#340=FACE_BOUND('',#306,.T.);
#341=FACE_BOUND('',#307,.T.);
#342=FACE_BOUND('',#308,.T.);
#343=FACE_BOUND('',#309,.T.);
#344=FACE_BOUND('',#310,.T.);
#345=FACE_BOUND('',#311,.T.);
#346=FACE_BOUND('',#312,.T.);
#347=FACE_BOUND('',#313,.T.);
#348=FACE_BOUND('',#314,.T.);
#349=FACE_BOUND('',#315,.T.);
#350=FACE_BOUND('',#316,.T.);
#351=FACE_BOUND('',#317,.T.);
#352=FACE_BOUND('',#318,.T.);
#353=FACE_BOUND('',#319,.T.);
#354=FACE_BOUND('',#320,.T.);
#355=FACE_BOUND('',#321,.T.);
#356=FACE_BOUND('',#322,.T.);
#357=FACE_BOUND('',#323,.T.);
#358=FACE_BOUND('',#324,.T.);
#359=FACE_BOUND('',#325,.T.);
#360=FACE_BOUND('',#326,.T.);
#361=FACE_BOUND('',#327,.T.);
#362=FACE_BOUND('',#328,.T.);
#363=FACE_BOUND('',#329,.T.);
#364=FACE_BOUND('',#330,.T.);
#365=FACE_BOUND('',#331,.T.);
#366=FACE_BOUND('',#332,.T.);
#367=FACE_BOUND('',#333,.T.);
#368=FACE_BOUND('',#334,.T.);
#369=FACE_BOUND('',#335,.T.);
#370=PLANE('',#549);
#371=PLANE('',#551);
#372=PLANE('',#552);
#373=PLANE('',#553);
#374=PLANE('',#554);
#375=PLANE('',#555);
#376=PLANE('',#556);
#377=PLANE('',#557);
#378=PLANE('',#558);
#379=PLANE('',#559);
#380=PLANE('',#561);
#381=PLANE('',#563);
#382=PLANE('',#564);
#383=PLANE('',#565);
#384=PLANE('',#566);
#385=PLANE('',#567);
#386=OVER_RIDING_STYLED_ITEM('',(#430),#405,#428);
#387=OVER_RIDING_STYLED_ITEM('',(#431),#408,#428);
#388=OVER_RIDING_STYLED_ITEM('',(#432),#411,#428);
#389=OVER_RIDING_STYLED_ITEM('',(#433),#412,#428);
#390=OVER_RIDING_STYLED_ITEM('',(#434),#413,#428);
#391=OVER_RIDING_STYLED_ITEM('',(#435),#414,#428);
#392=OVER_RIDING_STYLED_ITEM('',(#436),#415,#428);
#393=OVER_RIDING_STYLED_ITEM('',(#437),#416,#428);
#394=OVER_RIDING_STYLED_ITEM('',(#438),#417,#428);
#395=OVER_RIDING_STYLED_ITEM('',(#439),#418,#428);
#396=OVER_RIDING_STYLED_ITEM('',(#440),#419,#428);
#397=OVER_RIDING_STYLED_ITEM('',(#441),#420,#428);
#398=OVER_RIDING_STYLED_ITEM('',(#442),#421,#428);
#399=OVER_RIDING_STYLED_ITEM('',(#443),#422,#428);
#400=OVER_RIDING_STYLED_ITEM('',(#444),#423,#428);
#401=OVER_RIDING_STYLED_ITEM('',(#445),#424,#428);
#402=OVER_RIDING_STYLED_ITEM('',(#446),#425,#428);
#403=OVER_RIDING_STYLED_ITEM('',(#447),#426,#428);
#404=DRAUGHTING_PRE_DEFINED_COLOUR('white');
#405=ADVANCED_FACE('Face appearance 1',(#336,#337,#338,#339,#340),#370,
 .T.);
#406=ADVANCED_FACE('',(#341),#371,.T.);
#407=ADVANCED_FACE('',(#342),#14,.T.);
#408=ADVANCED_FACE('Face appearance 5',(#343),#372,.T.);
#409=ADVANCED_FACE('',(#344),#373,.T.);
#410=ADVANCED_FACE('',(#345),#374,.F.);
#411=ADVANCED_FACE('Face appearance 5',(#346),#15,.T.);
#412=ADVANCED_FACE('Face appearance 4',(#347),#375,.T.);
#413=ADVANCED_FACE('Face appearance 4',(#348),#376,.T.);
#414=ADVANCED_FACE('Face appearance 4',(#349),#16,.T.);
#415=ADVANCED_FACE('Face appearance 4',(#350),#377,.T.);
#416=ADVANCED_FACE('Face appearance 4',(#351),#17,.T.);
#417=ADVANCED_FACE('Face appearance 4',(#352),#378,.T.);
#418=ADVANCED_FACE('Face appearance 3',(#353,#354),#379,.T.);
#419=ADVANCED_FACE('Face appearance 2',(#355,#356,#357,#358,#359),#380,
 .F.);
#420=ADVANCED_FACE('Face appearance 3',(#360),#381,.F.);
#421=ADVANCED_FACE('Face appearance 3',(#361),#382,.F.);
#422=ADVANCED_FACE('Face appearance 3',(#362),#383,.F.);
#423=ADVANCED_FACE('Face appearance 3',(#363),#384,.F.);
#424=ADVANCED_FACE('Face appearance 3',(#364,#365),#385,.F.);
#425=ADVANCED_FACE('Face appearance 2',(#366,#367),#12,.T.);
#426=ADVANCED_FACE('Face appearance 1',(#368,#369),#13,.T.);
#427=CLOSED_SHELL('',(#405,#406,#407,#408,#409,#410,#411,#412,#413,#414,
#415,#416,#417,#418,#419,#420,#421,#422,#423,#424,#425,#426));
#428=STYLED_ITEM('',(#429),#545);
#429=PRESENTATION_STYLE_ASSIGNMENT((#448));
#430=PRESENTATION_STYLE_ASSIGNMENT((#449));
#431=PRESENTATION_STYLE_ASSIGNMENT((#450));
#432=PRESENTATION_STYLE_ASSIGNMENT((#451));
#433=PRESENTATION_STYLE_ASSIGNMENT((#452));
#434=PRESENTATION_STYLE_ASSIGNMENT((#453));
#435=PRESENTATION_STYLE_ASSIGNMENT((#454));
#436=PRESENTATION_STYLE_ASSIGNMENT((#455));
#437=PRESENTATION_STYLE_ASSIGNMENT((#456));
#438=PRESENTATION_STYLE_ASSIGNMENT((#457));
#439=PRESENTATION_STYLE_ASSIGNMENT((#458));
#440=PRESENTATION_STYLE_ASSIGNMENT((#459));
#441=PRESENTATION_STYLE_ASSIGNMENT((#460));
#442=PRESENTATION_STYLE_ASSIGNMENT((#461));
#443=PRESENTATION_STYLE_ASSIGNMENT((#462));
#444=PRESENTATION_STYLE_ASSIGNMENT((#463));
#445=PRESENTATION_STYLE_ASSIGNMENT((#464));
#446=PRESENTATION_STYLE_ASSIGNMENT((#465));
#447=PRESENTATION_STYLE_ASSIGNMENT((#466));
#448=SURFACE_STYLE_USAGE(.BOTH.,#467);
#449=SURFACE_STYLE_USAGE(.BOTH.,#468);
#450=SURFACE_STYLE_USAGE(.BOTH.,#469);
#451=SURFACE_STYLE_USAGE(.BOTH.,#470);
#452=SURFACE_STYLE_USAGE(.BOTH.,#471);
#453=SURFACE_STYLE_USAGE(.BOTH.,#472);
#454=SURFACE_STYLE_USAGE(.BOTH.,#473);
#455=SURFACE_STYLE_USAGE(.BOTH.,#474);
#456=SURFACE_STYLE_USAGE(.BOTH.,#475);
#457=SURFACE_STYLE_USAGE(.BOTH.,#476);
#458=SURFACE_STYLE_USAGE(.BOTH.,#477);
#459=SURFACE_STYLE_USAGE(.BOTH.,#478);
#460=SURFACE_STYLE_USAGE(.BOTH.,#479);
#461=SURFACE_STYLE_USAGE(.BOTH.,#480);
#462=SURFACE_STYLE_USAGE(.BOTH.,#481);
#463=SURFACE_STYLE_USAGE(.BOTH.,#482);
#464=SURFACE_STYLE_USAGE(.BOTH.,#483);
#465=SURFACE_STYLE_USAGE(.BOTH.,#484);
#466=SURFACE_STYLE_USAGE(.BOTH.,#485);
#467=SURFACE_SIDE_STYLE('',(#486));
#468=SURFACE_SIDE_STYLE('',(#487));
#469=SURFACE_SIDE_STYLE('',(#488));
#470=SURFACE_SIDE_STYLE('',(#489));
#471=SURFACE_SIDE_STYLE('',(#490));
#472=SURFACE_SIDE_STYLE('',(#491));
#473=SURFACE_SIDE_STYLE('',(#492));
#474=SURFACE_SIDE_STYLE('',(#493));
#475=SURFACE_SIDE_STYLE('',(#494));
#476=SURFACE_SIDE_STYLE('',(#495));
#477=SURFACE_SIDE_STYLE('',(#496));
#478=SURFACE_SIDE_STYLE('',(#497));
#479=SURFACE_SIDE_STYLE('',(#498));
#480=SURFACE_SIDE_STYLE('',(#499));
#481=SURFACE_SIDE_STYLE('',(#500));
#482=SURFACE_SIDE_STYLE('',(#501));
#483=SURFACE_SIDE_STYLE('',(#502));
#484=SURFACE_SIDE_STYLE('',(#503));
#485=SURFACE_SIDE_STYLE('',(#504));
#486=SURFACE_STYLE_FILL_AREA(#505);
#487=SURFACE_STYLE_FILL_AREA(#506);
#488=SURFACE_STYLE_FILL_AREA(#507);
#489=SURFACE_STYLE_FILL_AREA(#508);
#490=SURFACE_STYLE_FILL_AREA(#509);
#491=SURFACE_STYLE_FILL_AREA(#510);
#492=SURFACE_STYLE_FILL_AREA(#511);
#493=SURFACE_STYLE_FILL_AREA(#512);
#494=SURFACE_STYLE_FILL_AREA(#513);
#495=SURFACE_STYLE_FILL_AREA(#514);
#496=SURFACE_STYLE_FILL_AREA(#515);
#497=SURFACE_STYLE_FILL_AREA(#516);
#498=SURFACE_STYLE_FILL_AREA(#517);
#499=SURFACE_STYLE_FILL_AREA(#518);
#500=SURFACE_STYLE_FILL_AREA(#519);
#501=SURFACE_STYLE_FILL_AREA(#520);
#502=SURFACE_STYLE_FILL_AREA(#521);
#503=SURFACE_STYLE_FILL_AREA(#522);
#504=SURFACE_STYLE_FILL_AREA(#523);
#505=FILL_AREA_STYLE('',(#524));
#506=FILL_AREA_STYLE('',(#525));
#507=FILL_AREA_STYLE('',(#526));
#508=FILL_AREA_STYLE('',(#527));
#509=FILL_AREA_STYLE('',(#528));
#510=FILL_AREA_STYLE('',(#529));
#511=FILL_AREA_STYLE('',(#530));
#512=FILL_AREA_STYLE('',(#531));
#513=FILL_AREA_STYLE('',(#532));
#514=FILL_AREA_STYLE('',(#533));
#515=FILL_AREA_STYLE('',(#534));
#516=FILL_AREA_STYLE('',(#535));
#517=FILL_AREA_STYLE('',(#536));
#518=FILL_AREA_STYLE('',(#537));
#519=FILL_AREA_STYLE('',(#538));
#520=FILL_AREA_STYLE('',(#539));
#521=FILL_AREA_STYLE('',(#540));
#522=FILL_AREA_STYLE('',(#541));
#523=FILL_AREA_STYLE('',(#542));
#524=FILL_AREA_STYLE_COLOUR('',#543);
#525=FILL_AREA_STYLE_COLOUR('',#404);
#526=FILL_AREA_STYLE_COLOUR('',#404);
#527=FILL_AREA_STYLE_COLOUR('',#404);
#528=FILL_AREA_STYLE_COLOUR('',#404);
#529=FILL_AREA_STYLE_COLOUR('',#404);
#530=FILL_AREA_STYLE_COLOUR('',#404);
#531=FILL_AREA_STYLE_COLOUR('',#404);
#532=FILL_AREA_STYLE_COLOUR('',#404);
#533=FILL_AREA_STYLE_COLOUR('',#404);
#534=FILL_AREA_STYLE_COLOUR('',#544);
#535=FILL_AREA_STYLE_COLOUR('',#404);
#536=FILL_AREA_STYLE_COLOUR('',#544);
#537=FILL_AREA_STYLE_COLOUR('',#544);
#538=FILL_AREA_STYLE_COLOUR('',#544);
#539=FILL_AREA_STYLE_COLOUR('',#544);
#540=FILL_AREA_STYLE_COLOUR('',#544);
#541=FILL_AREA_STYLE_COLOUR('',#404);
#542=FILL_AREA_STYLE_COLOUR('',#404);
#543=COLOUR_RGB('',0.615686274509804,0.811764705882353,0.929411764705882);
#544=COLOUR_RGB('',0.913725490196078,0.474509803921569,0.588235294117647);
#545=MANIFOLD_SOLID_BREP('Part 1',#427);
#546=SHAPE_DEFINITION_REPRESENTATION(#842,#547);
#547=SHAPE_REPRESENTATION('Part 1',(#548),#837);
#548=AXIS2_PLACEMENT_3D('',#657,#571,#572);
#549=AXIS2_PLACEMENT_3D('',#658,#573,#574);
#550=AXIS2_PLACEMENT_3D('',#659,#575,#576);
#551=AXIS2_PLACEMENT_3D('',#701,#585,#586);
#552=AXIS2_PLACEMENT_3D('',#724,#591,#592);
#553=AXIS2_PLACEMENT_3D('',#726,#594,#595);
#554=AXIS2_PLACEMENT_3D('',#732,#599,#600);
#555=AXIS2_PLACEMENT_3D('',#751,#603,#604);
#556=AXIS2_PLACEMENT_3D('',#757,#608,#609);
#557=AXIS2_PLACEMENT_3D('',#776,#612,#613);
#558=AXIS2_PLACEMENT_3D('',#799,#618,#619);
#559=AXIS2_PLACEMENT_3D('',#801,#621,#622);
#560=AXIS2_PLACEMENT_3D('',#802,#623,#624);
#561=AXIS2_PLACEMENT_3D('',#812,#629,#630);
#562=AXIS2_PLACEMENT_3D('',#813,#631,#632);
#563=AXIS2_PLACEMENT_3D('',#815,#633,#634);
#564=AXIS2_PLACEMENT_3D('',#821,#638,#639);
#565=AXIS2_PLACEMENT_3D('',#825,#642,#643);
#566=AXIS2_PLACEMENT_3D('',#829,#646,#647);
#567=AXIS2_PLACEMENT_3D('',#831,#649,#650);
#568=AXIS2_PLACEMENT_3D('',#832,#651,#652);
#569=AXIS2_PLACEMENT_3D('',#834,#653,#654);
#570=AXIS2_PLACEMENT_3D('',#835,#655,#656);
#571=DIRECTION('',(0.,0.,1.));
#572=DIRECTION('',(1.,0.,0.));
#573=DIRECTION('',(0.,0.,1.));
#574=DIRECTION('',(1.,0.,0.));
#575=DIRECTION('',(0.,0.,1.));
#576=DIRECTION('',(1.,0.,0.));
#577=DIRECTION('',(1.,0.,0.));
#578=DIRECTION('',(0.,1.,0.));
#579=DIRECTION('',(0.,1.,0.));
#580=DIRECTION('',(1.,0.,0.));
#581=DIRECTION('',(0.,-1.,0.));
#582=DIRECTION('',(-1.,0.,0.));
#583=DIRECTION('',(-1.,0.,0.));
#584=DIRECTION('',(0.,1.,0.));
#585=DIRECTION('',(1.,0.,0.));
#586=DIRECTION('',(0.,0.,-1.));
#587=DIRECTION('',(0.,0.,-1.));
#588=DIRECTION('',(0.,0.,-1.));
#589=DIRECTION('',(0.,-1.,0.));
#590=DIRECTION('',(0.,0.,-1.));
#591=DIRECTION('',(0.,1.,0.));
#592=DIRECTION('',(0.,0.,1.));
#593=DIRECTION('',(1.,0.,0.));
#594=DIRECTION('',(0.,-1.,0.));
#595=DIRECTION('',(0.,0.,-1.));
#596=DIRECTION('',(0.,0.,-1.));
#597=DIRECTION('',(0.,0.,-1.));
#598=DIRECTION('',(-1.,0.,0.));
#599=DIRECTION('',(1.,0.,0.));
#600=DIRECTION('',(0.,0.,-1.));
#601=DIRECTION('',(0.,0.,-1.));
#602=DIRECTION('',(0.,-1.,0.));
#603=DIRECTION('',(-1.,0.,0.));
#604=DIRECTION('',(0.,0.,1.));
#605=DIRECTION('',(0.,0.,-1.));
#606=DIRECTION('',(0.,0.,-1.));
#607=DIRECTION('',(0.,1.,0.));
#608=DIRECTION('',(0.,1.,0.));
#609=DIRECTION('',(0.,0.,1.));
#610=DIRECTION('',(0.,0.,-1.));
#611=DIRECTION('',(1.,0.,0.));
#612=DIRECTION('',(0.,-1.,0.));
#613=DIRECTION('',(0.,0.,-1.));
#614=DIRECTION('',(0.,0.,-1.));
#615=DIRECTION('',(0.,0.,-1.));
#616=DIRECTION('',(-1.,0.,0.));
#617=DIRECTION('',(0.,0.,-1.));
#618=DIRECTION('',(1.,0.,0.));
#619=DIRECTION('',(0.,0.,-1.));
#620=DIRECTION('',(0.,-1.,0.));
#621=DIRECTION('',(0.,0.,1.));
#622=DIRECTION('',(1.,0.,0.));
#623=DIRECTION('',(0.,0.,1.));
#624=DIRECTION('',(1.,0.,0.));
#625=DIRECTION('',(-1.98254111540206E-16,1.,0.));
#626=DIRECTION('',(-1.,-1.98254111540206E-16,0.));
#627=DIRECTION('',(1.98254111540206E-16,-1.,0.));
#628=DIRECTION('',(1.,0.,0.));
#629=DIRECTION('',(0.,0.,1.));
#630=DIRECTION('',(1.,0.,0.));
#631=DIRECTION('',(0.,0.,1.));
#632=DIRECTION('',(1.,0.,0.));
#633=DIRECTION('',(-1.,-1.98254111540206E-16,0.));
#634=DIRECTION('',(1.98254111540206E-16,-1.,0.));
#635=DIRECTION('',(-1.98254111540206E-16,1.,0.));
#636=DIRECTION('',(0.,0.,-1.));
#637=DIRECTION('',(0.,0.,-1.));
#638=DIRECTION('',(1.98254111540206E-16,-1.,0.));
#639=DIRECTION('',(1.,1.98254111540206E-16,0.));
#640=DIRECTION('',(-1.,-1.98254111540206E-16,0.));
#641=DIRECTION('',(0.,0.,-1.));
#642=DIRECTION('',(1.,1.98254111540206E-16,0.));
#643=DIRECTION('',(-1.98254111540206E-16,1.,0.));
#644=DIRECTION('',(1.98254111540206E-16,-1.,0.));
#645=DIRECTION('',(0.,0.,-1.));
#646=DIRECTION('',(0.,1.,0.));
#647=DIRECTION('',(0.,0.,1.));
#648=DIRECTION('',(1.,0.,0.));
#649=DIRECTION('',(0.,0.,1.));
#650=DIRECTION('',(1.,0.,0.));
#651=DIRECTION('',(0.,0.,1.));
#652=DIRECTION('',(1.,0.,0.));
#653=DIRECTION('',(0.,0.,1.));
#654=DIRECTION('',(1.,0.,0.));
#655=DIRECTION('',(0.,0.,-1.));
#656=DIRECTION('',(-1.,0.,0.));
#657=CARTESIAN_POINT('',(0.,0.,0.));
#658=CARTESIAN_POINT('',(0.,0.,0.005));
#659=CARTESIAN_POINT('',(0.,2.14313189850787E-18,0.005));
#660=CARTESIAN_POINT('',(0.035,2.14313189850787E-18,0.005));
#661=CARTESIAN_POINT('',(-0.0256446283310652,-0.00484132627025247,0.005));
#662=CARTESIAN_POINT('',(-0.0247391746585813,-0.00953403795220263,0.005));
#663=CARTESIAN_POINT('',(-0.0228195669262209,-0.0194828248467299,0.005));
#664=CARTESIAN_POINT('',(-0.0115331075084292,-0.023037598236867,0.005));
#665=CARTESIAN_POINT('',(-0.00557032227516174,-0.0249156318604946,0.005));
#666=CARTESIAN_POINT('',(-0.00557032227516174,-0.0249156318604946,0.005));
#667=CARTESIAN_POINT('',(-0.0256446283310652,-0.00484132627025247,0.005));
#668=CARTESIAN_POINT('',(0.,-0.00484132627025247,0.005));
#669=CARTESIAN_POINT('',(-0.00557032227516174,-0.00484132627025247,0.005));
#670=CARTESIAN_POINT('',(-0.00557032227516174,0.,0.005));
#671=CARTESIAN_POINT('',(0.00463859783485532,0.,0.005));
#672=CARTESIAN_POINT('',(0.00463859783485532,-0.0249156318604946,0.005));
#673=CARTESIAN_POINT('',(0.00463859783485532,-0.00484132627025247,0.005));
#674=CARTESIAN_POINT('',(0.,-0.00484132627025247,0.005));
#675=CARTESIAN_POINT('',(0.0254505444318056,-0.00484132627025246,0.005));
#676=CARTESIAN_POINT('',(0.00463859783485532,-0.0249156318604946,0.005));
#677=CARTESIAN_POINT('',(0.0111730757325363,-0.0234989045568079,0.005));
#678=CARTESIAN_POINT('',(0.0235543590042768,-0.0208145428770508,0.005));
#679=CARTESIAN_POINT('',(0.0248423277743536,-0.00996486338445035,0.005));
#680=CARTESIAN_POINT('',(0.0254505444318056,-0.00484132627025246,0.005));
#681=CARTESIAN_POINT('',(-0.00535212084650993,0.0276449136435985,0.005));
#682=CARTESIAN_POINT('',(-0.011337478425426,0.0247359167563738,0.005));
#683=CARTESIAN_POINT('',(-0.0225941171819784,0.0192649776066775,0.005));
#684=CARTESIAN_POINT('',(-0.0243745054439332,0.00893488786330383,0.005));
#685=CARTESIAN_POINT('',(-0.0252082291990519,0.0040974928997457,0.005));
#686=CARTESIAN_POINT('',(-0.0252082291990519,0.0040974928997457,0.005));
#687=CARTESIAN_POINT('',(-0.00535212084650993,0.0276449136435985,0.005));
#688=CARTESIAN_POINT('',(-0.00535212084650993,0.,0.005));
#689=CARTESIAN_POINT('',(-0.00535212084650993,0.00409749289974571,0.005));
#690=CARTESIAN_POINT('',(0.,0.00409749289974571,0.005));
#691=CARTESIAN_POINT('',(0.,0.00409749289974571,0.005));
#692=CARTESIAN_POINT('',(0.0258014686405658,0.00409749289974571,0.005));
#693=CARTESIAN_POINT('',(0.00463859783485532,0.00409749289974571,0.005));
#694=CARTESIAN_POINT('',(0.00463859783485532,0.,0.005));
#695=CARTESIAN_POINT('',(0.00463859783485532,0.0276449136435985,0.005));
#696=CARTESIAN_POINT('',(0.0258014686405658,0.00409749289974571,0.005));
#697=CARTESIAN_POINT('',(0.0238958729566705,0.00954500359930132,0.005));
#698=CARTESIAN_POINT('',(0.0200975009465487,0.0204033784061405,0.005));
#699=CARTESIAN_POINT('',(0.00977995843731261,0.0252365057700146,0.005));
#700=CARTESIAN_POINT('',(0.00463859783485532,0.0276449136435985,0.005));
#701=CARTESIAN_POINT('',(0.00463859783485532,0.0158712032716721,0.195563023203383));
#702=CARTESIAN_POINT('',(0.00463859783485532,0.0276449136435985,0.195563023203383));
#703=CARTESIAN_POINT('',(0.00463859783485532,0.0276449136435985,-0.0025));
#704=CARTESIAN_POINT('',(0.00463859783485532,0.00409749289974571,0.195563023203383));
#705=CARTESIAN_POINT('',(0.00463859783485532,0.00409749289974571,-0.0025));
#706=CARTESIAN_POINT('',(0.00463859783485532,0.0158712032716721,-0.0025));
#707=CARTESIAN_POINT('',(0.0258014686405658,0.00409749289974571,0.005));
#708=CARTESIAN_POINT('',(0.0258014686405658,0.00409749289974571,-0.0025));
#709=CARTESIAN_POINT('',(0.0238958729566705,0.00954500359930132,0.005));
#710=CARTESIAN_POINT('',(0.0238958729566705,0.00954500359930132,-0.0025));
#711=CARTESIAN_POINT('',(0.0200975009465487,0.0204033784061405,0.005));
#712=CARTESIAN_POINT('',(0.0200975009465487,0.0204033784061405,-0.0025));
#713=CARTESIAN_POINT('',(0.00977995843731261,0.0252365057700146,0.005));
#714=CARTESIAN_POINT('',(0.00977995843731261,0.0252365057700146,-0.0025));
#715=CARTESIAN_POINT('',(0.00463859783485532,0.0276449136435985,0.005));
#716=CARTESIAN_POINT('',(0.00463859783485532,0.0276449136435985,-0.0025));
#717=CARTESIAN_POINT('',(0.0258014686405658,0.00409749289974571,0.195563023203383));
#718=CARTESIAN_POINT('',(0.0258014686405658,0.00409749289974571,-0.0025));
#719=CARTESIAN_POINT('',(0.0258014686405658,0.00409749289974571,-0.0025));
#720=CARTESIAN_POINT('',(0.0238958729566705,0.00954500359930132,-0.0025));
#721=CARTESIAN_POINT('',(0.0200975009465487,0.0204033784061405,-0.0025));
#722=CARTESIAN_POINT('',(0.00977995843731261,0.0252365057700146,-0.0025));
#723=CARTESIAN_POINT('',(0.00463859783485532,0.0276449136435985,-0.0025));
#724=CARTESIAN_POINT('',(0.0152200332377106,0.00409749289974571,0.195563023203383));
#725=CARTESIAN_POINT('',(0.0152200332377106,0.00409749289974571,-0.0025));
#726=CARTESIAN_POINT('',(-0.0156074753031135,-0.00484132627025247,0.195563023203383));
#727=CARTESIAN_POINT('',(-0.00557032227516174,-0.00484132627025247,0.195563023203383));
#728=CARTESIAN_POINT('',(-0.00557032227516174,-0.00484132627025247,-0.0025));
#729=CARTESIAN_POINT('',(-0.0256446283310652,-0.00484132627025247,0.195563023203383));
#730=CARTESIAN_POINT('',(-0.0256446283310652,-0.00484132627025247,-0.0025));
#731=CARTESIAN_POINT('',(-0.0156074753031135,-0.00484132627025247,-0.0025));
#732=CARTESIAN_POINT('',(-0.00557032227516174,-0.0148784790653735,0.195563023203383));
#733=CARTESIAN_POINT('',(-0.00557032227516174,-0.0249156318604946,0.195563023203383));
#734=CARTESIAN_POINT('',(-0.00557032227516174,-0.0249156318604946,-0.0025));
#735=CARTESIAN_POINT('',(-0.00557032227516174,-0.0148784790653735,-0.0025));
#736=CARTESIAN_POINT('',(-0.0256446283310652,-0.00484132627025247,0.005));
#737=CARTESIAN_POINT('',(-0.0256446283310652,-0.00484132627025247,-0.0025));
#738=CARTESIAN_POINT('',(-0.0247391746585813,-0.00953403795220263,0.005));
#739=CARTESIAN_POINT('',(-0.0247391746585813,-0.00953403795220263,-0.0025));
#740=CARTESIAN_POINT('',(-0.0228195669262209,-0.0194828248467299,0.005));
#741=CARTESIAN_POINT('',(-0.0228195669262209,-0.0194828248467299,-0.0025));
#742=CARTESIAN_POINT('',(-0.0115331075084292,-0.023037598236867,0.005));
#743=CARTESIAN_POINT('',(-0.0115331075084292,-0.023037598236867,-0.0025));
#744=CARTESIAN_POINT('',(-0.00557032227516174,-0.0249156318604946,0.005));
#745=CARTESIAN_POINT('',(-0.00557032227516174,-0.0249156318604946,-0.0025));
#746=CARTESIAN_POINT('',(-0.0256446283310652,-0.00484132627025247,-0.0025));
#747=CARTESIAN_POINT('',(-0.0247391746585813,-0.00953403795220263,-0.0025));
#748=CARTESIAN_POINT('',(-0.0228195669262209,-0.0194828248467299,-0.0025));
#749=CARTESIAN_POINT('',(-0.0115331075084292,-0.023037598236867,-0.0025));
#750=CARTESIAN_POINT('',(-0.00557032227516174,-0.0249156318604946,-0.0025));
#751=CARTESIAN_POINT('',(-0.00535212084650993,0.0158712032716721,0.195563023203383));
#752=CARTESIAN_POINT('',(-0.00535212084650993,0.00409749289974571,0.195563023203383));
#753=CARTESIAN_POINT('',(-0.00535212084650993,0.00409749289974571,-0.0025));
#754=CARTESIAN_POINT('',(-0.00535212084650993,0.0276449136435985,0.195563023203383));
#755=CARTESIAN_POINT('',(-0.00535212084650993,0.0276449136435985,-0.0025));
#756=CARTESIAN_POINT('',(-0.00535212084650993,0.0158712032716721,-0.0025));
#757=CARTESIAN_POINT('',(-0.0152801750227809,0.00409749289974571,0.195563023203383));
#758=CARTESIAN_POINT('',(-0.0252082291990519,0.0040974928997457,0.195563023203383));
#759=CARTESIAN_POINT('',(-0.0252082291990519,0.0040974928997457,-0.0025));
#760=CARTESIAN_POINT('',(-0.0152801750227809,0.00409749289974571,-0.0025));
#761=CARTESIAN_POINT('',(-0.00535212084650993,0.0276449136435985,0.005));
#762=CARTESIAN_POINT('',(-0.00535212084650993,0.0276449136435985,-0.0025));
#763=CARTESIAN_POINT('',(-0.011337478425426,0.0247359167563738,0.005));
#764=CARTESIAN_POINT('',(-0.011337478425426,0.0247359167563738,-0.0025));
#765=CARTESIAN_POINT('',(-0.0225941171819784,0.0192649776066775,0.005));
#766=CARTESIAN_POINT('',(-0.0225941171819784,0.0192649776066775,-0.0025));
#767=CARTESIAN_POINT('',(-0.0243745054439332,0.00893488786330383,0.005));
#768=CARTESIAN_POINT('',(-0.0243745054439332,0.00893488786330383,-0.0025));
#769=CARTESIAN_POINT('',(-0.0252082291990519,0.0040974928997457,0.005));
#770=CARTESIAN_POINT('',(-0.0252082291990519,0.0040974928997457,-0.0025));
#771=CARTESIAN_POINT('',(-0.00535212084650993,0.0276449136435985,-0.0025));
#772=CARTESIAN_POINT('',(-0.011337478425426,0.0247359167563738,-0.0025));
#773=CARTESIAN_POINT('',(-0.0225941171819784,0.0192649776066775,-0.0025));
#774=CARTESIAN_POINT('',(-0.0243745054439332,0.00893488786330383,-0.0025));
#775=CARTESIAN_POINT('',(-0.0252082291990519,0.0040974928997457,-0.0025));
#776=CARTESIAN_POINT('',(0.0150445711333305,-0.00484132627025247,0.195563023203383));
#777=CARTESIAN_POINT('',(0.0254505444318056,-0.00484132627025246,0.195563023203383));
#778=CARTESIAN_POINT('',(0.0254505444318056,-0.00484132627025246,-0.0025));
#779=CARTESIAN_POINT('',(0.00463859783485532,-0.00484132627025247,0.195563023203383));
#780=CARTESIAN_POINT('',(0.00463859783485532,-0.00484132627025247,-0.0025));
#781=CARTESIAN_POINT('',(0.0150445711333305,-0.00484132627025247,-0.0025));
#782=CARTESIAN_POINT('',(0.00463859783485532,-0.0249156318604946,0.005));
#783=CARTESIAN_POINT('',(0.00463859783485532,-0.0249156318604946,-0.0025));
#784=CARTESIAN_POINT('',(0.0111730757325363,-0.0234989045568079,0.005));
#785=CARTESIAN_POINT('',(0.0111730757325363,-0.0234989045568079,-0.0025));
#786=CARTESIAN_POINT('',(0.0235543590042768,-0.0208145428770508,0.005));
#787=CARTESIAN_POINT('',(0.0235543590042768,-0.0208145428770508,-0.0025));
#788=CARTESIAN_POINT('',(0.0248423277743536,-0.00996486338445035,0.005));
#789=CARTESIAN_POINT('',(0.0248423277743536,-0.00996486338445035,-0.0025));
#790=CARTESIAN_POINT('',(0.0254505444318056,-0.00484132627025246,0.005));
#791=CARTESIAN_POINT('',(0.0254505444318056,-0.00484132627025246,-0.0025));
#792=CARTESIAN_POINT('',(0.00463859783485532,-0.0249156318604946,0.195563023203383));
#793=CARTESIAN_POINT('',(0.00463859783485532,-0.0249156318604946,-0.0025));
#794=CARTESIAN_POINT('',(0.00463859783485532,-0.0249156318604946,-0.0025));
#795=CARTESIAN_POINT('',(0.0111730757325363,-0.0234989045568079,-0.0025));
#796=CARTESIAN_POINT('',(0.0235543590042768,-0.0208145428770508,-0.0025));
#797=CARTESIAN_POINT('',(0.0248423277743536,-0.00996486338445035,-0.0025));
#798=CARTESIAN_POINT('',(0.0254505444318056,-0.00484132627025246,-0.0025));
#799=CARTESIAN_POINT('',(0.00463859783485532,-0.0148784790653735,0.195563023203383));
#800=CARTESIAN_POINT('',(0.00463859783485532,-0.0148784790653735,-0.0025));
#801=CARTESIAN_POINT('',(-0.000300827166703766,-0.00447531141316046,0.0025));
#802=CARTESIAN_POINT('',(0.,2.14313189850787E-18,0.0025));
#803=CARTESIAN_POINT('',(0.035,2.14313189850787E-18,0.0025));
#804=CARTESIAN_POINT('',(0.0696991728332962,-0.00447531141316045,0.0025));
#805=CARTESIAN_POINT('',(0.0696991728332963,-0.0744753114131605,0.0025));
#806=CARTESIAN_POINT('',(0.0696991728332962,0.0655246885868396,0.0025));
#807=CARTESIAN_POINT('',(-0.00030082716670378,0.0655246885868396,0.0025));
#808=CARTESIAN_POINT('',(-0.0703008271667038,0.0655246885868396,0.0025));
#809=CARTESIAN_POINT('',(-0.0703008271667038,-0.00447531141316046,0.0025));
#810=CARTESIAN_POINT('',(-0.0703008271667038,-0.0744753114131605,0.0025));
#811=CARTESIAN_POINT('',(-0.000300827166703752,-0.0744753114131605,0.0025));
#812=CARTESIAN_POINT('',(0.,0.,-0.0025));
#813=CARTESIAN_POINT('',(0.,2.14313189850787E-18,-0.0025));
#814=CARTESIAN_POINT('',(0.035,2.14313189850787E-18,-0.0025));
#815=CARTESIAN_POINT('',(0.0696991728332962,-0.00447531141316045,0.0025));
#816=CARTESIAN_POINT('',(0.0696991728332962,-0.00447531141316045,0.));
#817=CARTESIAN_POINT('',(0.0696991728332963,-0.0744753114131605,0.));
#818=CARTESIAN_POINT('',(0.0696991728332962,0.0655246885868396,0.));
#819=CARTESIAN_POINT('',(0.0696991728332962,0.0655246885868396,0.0025));
#820=CARTESIAN_POINT('',(0.0696991728332963,-0.0744753114131605,0.0025));
#821=CARTESIAN_POINT('',(-0.00030082716670378,0.0655246885868396,0.0025));
#822=CARTESIAN_POINT('',(-0.00030082716670378,0.0655246885868396,0.));
#823=CARTESIAN_POINT('',(-0.0703008271667038,0.0655246885868396,0.));
#824=CARTESIAN_POINT('',(-0.0703008271667038,0.0655246885868396,0.0025));
#825=CARTESIAN_POINT('',(-0.0703008271667038,-0.00447531141316046,0.0025));
#826=CARTESIAN_POINT('',(-0.0703008271667038,-0.00447531141316046,0.));
#827=CARTESIAN_POINT('',(-0.0703008271667038,-0.0744753114131605,0.));
#828=CARTESIAN_POINT('',(-0.0703008271667038,-0.0744753114131605,0.0025));
#829=CARTESIAN_POINT('',(-0.000300827166703752,-0.0744753114131605,0.0025));
#830=CARTESIAN_POINT('',(-0.000300827166703752,-0.0744753114131605,0.));
#831=CARTESIAN_POINT('',(-0.000300827166703766,-0.00447531141316046,0.));
#832=CARTESIAN_POINT('',(0.,2.14313189850787E-18,0.));
#833=CARTESIAN_POINT('',(0.035,2.14313189850787E-18,0.));
#834=CARTESIAN_POINT('',(0.,2.14313189850787E-18,-0.0025));
#835=CARTESIAN_POINT('',(0.,2.14313189850787E-18,0.005));
#836=MECHANICAL_DESIGN_GEOMETRIC_PRESENTATION_REPRESENTATION('',(#428,#386,
#387,#388,#389,#390,#391,#392,#393,#394,#395,#396,#397,#398,#399,#400,#401,
#402,#403),#837);
#837=(
GEOMETRIC_REPRESENTATION_CONTEXT(3)
GLOBAL_UNCERTAINTY_ASSIGNED_CONTEXT((#838))
GLOBAL_UNIT_ASSIGNED_CONTEXT((#841,#840,#839))
REPRESENTATION_CONTEXT('Part 1','TOP_LEVEL_ASSEMBLY_PART')
);
#838=UNCERTAINTY_MEASURE_WITH_UNIT(LENGTH_MEASURE(2.E-5),#841,
'DISTANCE_ACCURACY_VALUE','Maximum Tolerance applied to model');
#839=(
NAMED_UNIT(*)
SI_UNIT($,.STERADIAN.)
SOLID_ANGLE_UNIT()
);
#840=(
NAMED_UNIT(*)
PLANE_ANGLE_UNIT()
SI_UNIT($,.RADIAN.)
);
#841=(
LENGTH_UNIT()
NAMED_UNIT(*)
SI_UNIT($,.METRE.)
);
#842=PRODUCT_DEFINITION_SHAPE('','',#843);
#843=PRODUCT_DEFINITION('','',#845,#844);
#844=PRODUCT_DEFINITION_CONTEXT('',#851,'design');
#845=PRODUCT_DEFINITION_FORMATION_WITH_SPECIFIED_SOURCE('','',#847,
 .NOT_KNOWN.);
#846=PRODUCT_RELATED_PRODUCT_CATEGORY('','',(#847));
#847=PRODUCT('Part 1','Part 1','Part 1',(#849));
#848=PRODUCT_CATEGORY('','');
#849=PRODUCT_CONTEXT('',#851,'mechanical');
#850=APPLICATION_PROTOCOL_DEFINITION('international standard',
'ap242_managed_model_based_3d_engineering',2020,#851);
#851=APPLICATION_CONTEXT('managed model based 3d engineering');
ENDSEC;
END-ISO-10303-21;
