ISO-10303-21;
HEADER;
/* Generated by software containing ST-Developer
 * from STEP Tools, Inc. (www.steptools.com) 
 */
/* OPTION: using custom renumber hook */

FILE_DESCRIPTION(
/* description */ ('STEP AP242 Edition 2',
'CAx-IF Rec.Pracs.---Representation and Presentation of Product Manufa
cturing Information (PMI)---4.0---2014-10-13',
'CAx-IF Rec.Pracs.---3D Tessellated Geometry---0.4---2014-09-14','2;1',
'CAx-IF Rec.Pracs.---User Defined Attributes---1.5---2016-08-15'),
/* implementation_level */ '2;1');

FILE_NAME(
/* name */ 'Part Studio 6',
/* time_stamp */ '2026-09-04T19:13:32Z',
/* author */ (''),
/* organization */ (''),
/* preprocessor_version */ 'ST-DEVELOPER v20',
/* originating_system */ 'ONSHAPE BY PTC INC, 1.220',
/* authorisation */ '  ');

FILE_SCHEMA (('AP242_MANAGED_MODEL_BASED_3D_ENGINEERING_MIM_LF { 1 0 10303 442 3 1 4 }'));
ENDSEC;

DATA;
#10=SHAPE_REPRESENTATION_RELATIONSHIP('','',#717,#11);
#11=ADVANCED_BREP_SHAPE_REPRESENTATION('',(#715),#1383);
#12=B_SPLINE_SURFACE_WITH_KNOTS('',3,1,((#903,#904),(#905,#906),(#907,#908),
(#909,#910),(#911,#912),(#913,#914),(#915,#916),(#917,#918),(#919,#920),
(#921,#922),(#923,#924),(#925,#926)),.SURF_OF_LINEAR_EXTRUSION.,.F.,.F.,
 .F.,(4,1,1,1,1,1,1,1,1,4),(2,2),(0.17699608188364,0.203982847582887,0.21747623043251,
0.230969613282134,0.257956378981381,0.284943144680628,0.311929910379875,
0.338916676079122,0.365903441778369,0.392890207477615),(0.,1.),
 .UNSPECIFIED.);
#13=B_SPLINE_SURFACE_WITH_KNOTS('',3,1,((#962,#963),(#964,#965),(#966,#967),
(#968,#969),(#970,#971),(#972,#973),(#974,#975)),
 .SURF_OF_LINEAR_EXTRUSION.,.F.,.F.,.F.,(4,1,1,1,4),(2,2),(0.448797534661587,
0.487949696742115,0.527101858822644,0.566254020903172,0.6054061829837),
(0.,1.),.UNSPECIFIED.);
#14=B_SPLINE_SURFACE_WITH_KNOTS('',3,1,((#978,#979),(#980,#981),(#982,#983),
(#984,#985),(#986,#987),(#988,#989),(#990,#991),(#992,#993),(#994,#995),
(#996,#997),(#998,#999),(#1000,#1001),(#1002,#1003)),
 .SURF_OF_LINEAR_EXTRUSION.,.F.,.F.,.F.,(4,1,1,1,1,1,1,1,1,1,4),(2,2),(0.178278908972154,
0.194111378929323,0.209943848886492,0.225776318843661,0.241608788800829,
0.273273728715167,0.304938668629504,0.336603608543842,0.368268548458179,
0.399933488372517,0.431598428286854),(0.,1.),.UNSPECIFIED.);
#15=B_SPLINE_SURFACE_WITH_KNOTS('',3,1,((#1059,#1060),(#1061,#1062),(#1063,
#1064),(#1065,#1066),(#1067,#1068),(#1069,#1070),(#1071,#1072),(#1073,#1074),
(#1075,#1076),(#1077,#1078),(#1079,#1080),(#1081,#1082),(#1083,#1084),(#1085,
#1086),(#1087,#1088),(#1089,#1090),(#1091,#1092),(#1093,#1094),(#1095,#1096),
(#1097,#1098),(#1099,#1100),(#1101,#1102),(#1103,#1104),(#1105,#1106),(#1107,
#1108),(#1109,#1110),(#1111,#1112),(#1113,#1114),(#1115,#1116),(#1117,#1118),
(#1119,#1120)),.SURF_OF_LINEAR_EXTRUSION.,.F.,.F.,.F.,(4,1,1,1,1,1,1,1,
1,1,1,1,1,1,1,1,1,1,1,1,1,1,1,1,1,1,1,1,4),(2,2),(0.403008628431734,0.450853934991154,
0.474776588270864,0.498699241550574,0.522621894830284,0.546544548109994,
0.570467201389704,0.594389854669414,0.618312507949124,0.642235161228834,
0.666157814508544,0.690080467788254,0.714003121067964,0.737925774347674,
0.761848427627384,0.785771080907094,0.809693734186804,0.833616387466514,
0.881461694025934,0.905384347305644,0.929307000585354,0.953229653865064,
0.977152307144774,1.00107496042448,1.02499761370419,1.0489202669839,1.07284292026361,
1.12068822682303,1.16853353338245),(0.,1.),.UNSPECIFIED.);
#16=B_SPLINE_SURFACE_WITH_KNOTS('',3,1,((#1186,#1187),(#1188,#1189),(#1190,
#1191),(#1192,#1193),(#1194,#1195),(#1196,#1197),(#1198,#1199),(#1200,#1201),
(#1202,#1203),(#1204,#1205),(#1206,#1207),(#1208,#1209),(#1210,#1211)),
 .SURF_OF_LINEAR_EXTRUSION.,.F.,.F.,.F.,(4,1,1,1,1,1,1,1,1,1,4),(2,2),(0.623720555033074,
0.654524220537682,0.669926053289986,0.68532788604229,0.716131551546899,
0.746935217051507,0.777738882556116,0.808542548060724,0.839346213565332,
0.854748046317637,0.870149879069941),(0.,1.),.UNSPECIFIED.);
#17=B_SPLINE_SURFACE_WITH_KNOTS('',3,1,((#1264,#1265),(#1266,#1267),(#1268,
#1269),(#1270,#1271),(#1272,#1273),(#1274,#1275),(#1276,#1277),(#1278,#1279),
(#1280,#1281),(#1282,#1283),(#1284,#1285),(#1286,#1287),(#1288,#1289),(#1290,
#1291),(#1292,#1293),(#1294,#1295),(#1296,#1297)),
 .SURF_OF_LINEAR_EXTRUSION.,.F.,.F.,.F.,(4,1,1,1,1,1,1,1,1,1,1,1,1,1,4),
(2,2),(0.878013874514335,0.896262835929665,0.914511797344996,0.932760758760326,
0.951009720175656,0.987507643006317,1.00575660442165,1.02400556583698,1.04225452725231,
1.06050348866764,1.0970014114983,1.11525037291363,1.13349933432896,1.15174829574429,
1.16999725715962),(0.,1.),.UNSPECIFIED.);
#18=B_SPLINE_SURFACE_WITH_KNOTS('',3,1,((#1309,#1310),(#1311,#1312),(#1313,
#1314),(#1315,#1316),(#1317,#1318),(#1319,#1320),(#1321,#1322)),
 .SURF_OF_LINEAR_EXTRUSION.,.T.,.F.,.F.,(1,3,1,1,1,3,1),(2,2),(-0.212066486642623,
0.,0.235131706015301,0.511193770402933,0.787933513357377,1.,1.2351317060153),
(0.,1.),.UNSPECIFIED.);
#19=B_SPLINE_SURFACE_WITH_KNOTS('',3,1,((#1333,#1334),(#1335,#1336),(#1337,
#1338),(#1339,#1340),(#1341,#1342),(#1343,#1344)),
 .SURF_OF_LINEAR_EXTRUSION.,.F.,.F.,.F.,(4,1,1,4),(2,2),(0.,0.337435337210598,
0.660442122769675,1.),(0.,1.),.UNSPECIFIED.);
#20=LINE('',#854,#70);
#21=LINE('',#868,#71);
#22=LINE('',#870,#72);
#23=LINE('',#890,#73);
#24=LINE('',#927,#74);
#25=LINE('',#929,#75);
#26=LINE('',#961,#76);
#27=LINE('',#976,#77);
#28=LINE('',#977,#78);
#29=LINE('',#1004,#79);
#30=LINE('',#1024,#80);
#31=LINE('',#1043,#81);
#32=LINE('',#1045,#82);
#33=LINE('',#1058,#83);
#34=LINE('',#1121,#84);
#35=LINE('',#1135,#85);
#36=LINE('',#1149,#86);
#37=LINE('',#1151,#87);
#38=LINE('',#1177,#88);
#39=LINE('',#1212,#89);
#40=LINE('',#1213,#90);
#41=LINE('',#1215,#91);
#42=LINE('',#1234,#92);
#43=LINE('',#1236,#93);
#44=LINE('',#1238,#94);
#45=LINE('',#1240,#95);
#46=LINE('',#1241,#96);
#47=LINE('',#1243,#97);
#48=LINE('',#1245,#98);
#49=LINE('',#1298,#99);
#50=LINE('',#1299,#100);
#51=LINE('',#1324,#101);
#52=LINE('',#1345,#102);
#53=LINE('',#1346,#103);
#54=LINE('',#1349,#104);
#55=LINE('',#1351,#105);
#56=LINE('',#1353,#106);
#57=LINE('',#1355,#107);
#58=LINE('',#1357,#108);
#59=LINE('',#1359,#109);
#60=LINE('',#1361,#110);
#61=LINE('',#1363,#111);
#62=LINE('',#1366,#112);
#63=LINE('',#1368,#113);
#64=LINE('',#1370,#114);
#65=LINE('',#1372,#115);
#66=LINE('',#1374,#116);
#67=LINE('',#1376,#117);
#68=LINE('',#1378,#118);
#69=LINE('',#1380,#119);
#70=VECTOR('',#744,1.);
#71=VECTOR('',#745,1.);
#72=VECTOR('',#748,1.);
#73=VECTOR('',#749,1.);
#74=VECTOR('',#750,1.);
#75=VECTOR('',#751,1.);
#76=VECTOR('',#754,1.);
#77=VECTOR('',#755,1.);
#78=VECTOR('',#756,1.);
#79=VECTOR('',#757,1.);
#80=VECTOR('',#758,1.);
#81=VECTOR('',#761,1.);
#82=VECTOR('',#762,1.);
#83=VECTOR('',#763,1.);
#84=VECTOR('',#764,1.);
#85=VECTOR('',#765,1.);
#86=VECTOR('',#768,1.);
#87=VECTOR('',#769,1.);
#88=VECTOR('',#770,1.);
#89=VECTOR('',#771,1.);
#90=VECTOR('',#772,1.);
#91=VECTOR('',#775,1.);
#92=VECTOR('',#776,1.);
#93=VECTOR('',#777,1.);
#94=VECTOR('',#780,1.);
#95=VECTOR('',#781,1.);
#96=VECTOR('',#782,1.);
#97=VECTOR('',#783,1.);
#98=VECTOR('',#786,1.);
#99=VECTOR('',#787,1.);
#100=VECTOR('',#788,1.);
#101=VECTOR('',#793,1.);
#102=VECTOR('',#794,1.);
#103=VECTOR('',#795,1.);
#104=VECTOR('',#800,1.);
#105=VECTOR('',#801,1.);
#106=VECTOR('',#802,1.);
#107=VECTOR('',#805,1.);
#108=VECTOR('',#806,1.);
#109=VECTOR('',#809,1.);
#110=VECTOR('',#810,1.);
#111=VECTOR('',#813,1.);
#112=VECTOR('',#818,1.);
#113=VECTOR('',#819,1.);
#114=VECTOR('',#820,1.);
#115=VECTOR('',#823,1.);
#116=VECTOR('',#824,1.);
#117=VECTOR('',#827,1.);
#118=VECTOR('',#828,1.);
#119=VECTOR('',#831,1.);
#120=ORIENTED_EDGE('',*,*,#256,.F.);
#121=ORIENTED_EDGE('',*,*,#257,.T.);
#122=ORIENTED_EDGE('',*,*,#258,.T.);
#123=ORIENTED_EDGE('',*,*,#259,.T.);
#124=ORIENTED_EDGE('',*,*,#260,.F.);
#125=ORIENTED_EDGE('',*,*,#261,.F.);
#126=ORIENTED_EDGE('',*,*,#262,.T.);
#127=ORIENTED_EDGE('',*,*,#263,.T.);
#128=ORIENTED_EDGE('',*,*,#264,.F.);
#129=ORIENTED_EDGE('',*,*,#263,.F.);
#130=ORIENTED_EDGE('',*,*,#265,.F.);
#131=ORIENTED_EDGE('',*,*,#266,.T.);
#132=ORIENTED_EDGE('',*,*,#267,.F.);
#133=ORIENTED_EDGE('',*,*,#268,.T.);
#134=ORIENTED_EDGE('',*,*,#256,.T.);
#135=ORIENTED_EDGE('',*,*,#269,.T.);
#136=ORIENTED_EDGE('',*,*,#267,.T.);
#137=ORIENTED_EDGE('',*,*,#270,.T.);
#138=ORIENTED_EDGE('',*,*,#271,.F.);
#139=ORIENTED_EDGE('',*,*,#272,.T.);
#140=ORIENTED_EDGE('',*,*,#273,.T.);
#141=ORIENTED_EDGE('',*,*,#274,.T.);
#142=ORIENTED_EDGE('',*,*,#275,.F.);
#143=ORIENTED_EDGE('',*,*,#276,.F.);
#144=ORIENTED_EDGE('',*,*,#277,.T.);
#145=ORIENTED_EDGE('',*,*,#278,.T.);
#146=ORIENTED_EDGE('',*,*,#272,.F.);
#147=ORIENTED_EDGE('',*,*,#277,.F.);
#148=ORIENTED_EDGE('',*,*,#258,.F.);
#149=ORIENTED_EDGE('',*,*,#279,.F.);
#150=ORIENTED_EDGE('',*,*,#280,.T.);
#151=ORIENTED_EDGE('',*,*,#281,.F.);
#152=ORIENTED_EDGE('',*,*,#282,.F.);
#153=ORIENTED_EDGE('',*,*,#283,.F.);
#154=ORIENTED_EDGE('',*,*,#274,.F.);
#155=ORIENTED_EDGE('',*,*,#284,.T.);
#156=ORIENTED_EDGE('',*,*,#285,.F.);
#157=ORIENTED_EDGE('',*,*,#286,.T.);
#158=ORIENTED_EDGE('',*,*,#287,.F.);
#159=ORIENTED_EDGE('',*,*,#288,.F.);
#160=ORIENTED_EDGE('',*,*,#289,.F.);
#161=ORIENTED_EDGE('',*,*,#285,.T.);
#162=ORIENTED_EDGE('',*,*,#290,.T.);
#163=ORIENTED_EDGE('',*,*,#261,.T.);
#164=ORIENTED_EDGE('',*,*,#291,.F.);
#165=ORIENTED_EDGE('',*,*,#292,.F.);
#166=ORIENTED_EDGE('',*,*,#293,.F.);
#167=ORIENTED_EDGE('',*,*,#294,.F.);
#168=ORIENTED_EDGE('',*,*,#282,.T.);
#169=ORIENTED_EDGE('',*,*,#280,.F.);
#170=ORIENTED_EDGE('',*,*,#295,.F.);
#171=ORIENTED_EDGE('',*,*,#296,.F.);
#172=ORIENTED_EDGE('',*,*,#266,.F.);
#173=ORIENTED_EDGE('',*,*,#297,.F.);
#174=ORIENTED_EDGE('',*,*,#298,.F.);
#175=ORIENTED_EDGE('',*,*,#299,.F.);
#176=ORIENTED_EDGE('',*,*,#300,.F.);
#177=ORIENTED_EDGE('',*,*,#301,.F.);
#178=ORIENTED_EDGE('',*,*,#292,.T.);
#179=ORIENTED_EDGE('',*,*,#302,.F.);
#180=ORIENTED_EDGE('',*,*,#300,.T.);
#181=ORIENTED_EDGE('',*,*,#303,.F.);
#182=ORIENTED_EDGE('',*,*,#286,.F.);
#183=ORIENTED_EDGE('',*,*,#303,.T.);
#184=ORIENTED_EDGE('',*,*,#304,.T.);
#185=ORIENTED_EDGE('',*,*,#305,.T.);
#186=ORIENTED_EDGE('',*,*,#306,.T.);
#187=ORIENTED_EDGE('',*,*,#288,.T.);
#188=ORIENTED_EDGE('',*,*,#307,.F.);
#189=ORIENTED_EDGE('',*,*,#305,.F.);
#190=ORIENTED_EDGE('',*,*,#307,.T.);
#191=ORIENTED_EDGE('',*,*,#287,.T.);
#192=ORIENTED_EDGE('',*,*,#306,.F.);
#193=ORIENTED_EDGE('',*,*,#304,.F.);
#194=ORIENTED_EDGE('',*,*,#308,.T.);
#195=ORIENTED_EDGE('',*,*,#293,.T.);
#196=ORIENTED_EDGE('',*,*,#301,.T.);
#197=ORIENTED_EDGE('',*,*,#299,.T.);
#198=ORIENTED_EDGE('',*,*,#302,.T.);
#199=ORIENTED_EDGE('',*,*,#291,.T.);
#200=ORIENTED_EDGE('',*,*,#309,.F.);
#201=ORIENTED_EDGE('',*,*,#310,.T.);
#202=ORIENTED_EDGE('',*,*,#298,.T.);
#203=ORIENTED_EDGE('',*,*,#311,.F.);
#204=ORIENTED_EDGE('',*,*,#312,.F.);
#205=ORIENTED_EDGE('',*,*,#309,.T.);
#206=ORIENTED_EDGE('',*,*,#281,.T.);
#207=ORIENTED_EDGE('',*,*,#278,.F.);
#208=ORIENTED_EDGE('',*,*,#313,.F.);
#209=ORIENTED_EDGE('',*,*,#314,.F.);
#210=ORIENTED_EDGE('',*,*,#311,.T.);
#211=ORIENTED_EDGE('',*,*,#297,.T.);
#212=ORIENTED_EDGE('',*,*,#265,.T.);
#213=ORIENTED_EDGE('',*,*,#262,.F.);
#214=ORIENTED_EDGE('',*,*,#290,.F.);
#215=ORIENTED_EDGE('',*,*,#284,.F.);
#216=ORIENTED_EDGE('',*,*,#273,.F.);
#217=ORIENTED_EDGE('',*,*,#313,.T.);
#218=ORIENTED_EDGE('',*,*,#294,.T.);
#219=ORIENTED_EDGE('',*,*,#308,.F.);
#220=ORIENTED_EDGE('',*,*,#315,.T.);
#221=ORIENTED_EDGE('',*,*,#310,.F.);
#222=ORIENTED_EDGE('',*,*,#312,.T.);
#223=ORIENTED_EDGE('',*,*,#314,.T.);
#224=ORIENTED_EDGE('',*,*,#315,.F.);
#225=ORIENTED_EDGE('',*,*,#316,.T.);
#226=ORIENTED_EDGE('',*,*,#275,.T.);
#227=ORIENTED_EDGE('',*,*,#271,.T.);
#228=ORIENTED_EDGE('',*,*,#283,.T.);
#229=ORIENTED_EDGE('',*,*,#289,.T.);
#230=ORIENTED_EDGE('',*,*,#260,.T.);
#231=ORIENTED_EDGE('',*,*,#317,.F.);
#232=ORIENTED_EDGE('',*,*,#318,.T.);
#233=ORIENTED_EDGE('',*,*,#296,.T.);
#234=ORIENTED_EDGE('',*,*,#319,.F.);
#235=ORIENTED_EDGE('',*,*,#320,.F.);
#236=ORIENTED_EDGE('',*,*,#317,.T.);
#237=ORIENTED_EDGE('',*,*,#264,.T.);
#238=ORIENTED_EDGE('',*,*,#259,.F.);
#239=ORIENTED_EDGE('',*,*,#321,.F.);
#240=ORIENTED_EDGE('',*,*,#322,.F.);
#241=ORIENTED_EDGE('',*,*,#319,.T.);
#242=ORIENTED_EDGE('',*,*,#295,.T.);
#243=ORIENTED_EDGE('',*,*,#279,.T.);
#244=ORIENTED_EDGE('',*,*,#257,.F.);
#245=ORIENTED_EDGE('',*,*,#270,.F.);
#246=ORIENTED_EDGE('',*,*,#268,.F.);
#247=ORIENTED_EDGE('',*,*,#269,.F.);
#248=ORIENTED_EDGE('',*,*,#321,.T.);
#249=ORIENTED_EDGE('',*,*,#276,.T.);
#250=ORIENTED_EDGE('',*,*,#316,.F.);
#251=ORIENTED_EDGE('',*,*,#323,.T.);
#252=ORIENTED_EDGE('',*,*,#318,.F.);
#253=ORIENTED_EDGE('',*,*,#320,.T.);
#254=ORIENTED_EDGE('',*,*,#322,.T.);
#255=ORIENTED_EDGE('',*,*,#323,.F.);
#256=EDGE_CURVE('',#324,#325,#368,.F.);
#257=EDGE_CURVE('',#324,#326,#20,.T.);
#258=EDGE_CURVE('',#326,#327,#369,.T.);
#259=EDGE_CURVE('',#327,#325,#21,.T.);
#260=EDGE_CURVE('',#328,#329,#22,.T.);
#261=EDGE_CURVE('',#330,#328,#370,.F.);
#262=EDGE_CURVE('',#330,#331,#23,.T.);
#263=EDGE_CURVE('',#331,#329,#371,.T.);
#264=EDGE_CURVE('',#329,#332,#24,.T.);
#265=EDGE_CURVE('',#333,#331,#25,.F.);
#266=EDGE_CURVE('',#333,#332,#372,.T.);
#267=EDGE_CURVE('',#334,#335,#373,.T.);
#268=EDGE_CURVE('',#334,#335,#26,.T.);
#269=EDGE_CURVE('',#325,#334,#27,.F.);
#270=EDGE_CURVE('',#335,#324,#28,.T.);
#271=EDGE_CURVE('',#336,#337,#29,.F.);
#272=EDGE_CURVE('',#336,#338,#374,.F.);
#273=EDGE_CURVE('',#338,#339,#30,.F.);
#274=EDGE_CURVE('',#339,#337,#375,.T.);
#275=EDGE_CURVE('',#340,#336,#31,.T.);
#276=EDGE_CURVE('',#327,#340,#32,.T.);
#277=EDGE_CURVE('',#327,#341,#376,.T.);
#278=EDGE_CURVE('',#341,#338,#33,.T.);
#279=EDGE_CURVE('',#342,#326,#34,.F.);
#280=EDGE_CURVE('',#342,#343,#377,.T.);
#281=EDGE_CURVE('',#344,#343,#35,.T.);
#282=EDGE_CURVE('',#341,#344,#378,.T.);
#283=EDGE_CURVE('',#337,#345,#36,.T.);
#284=EDGE_CURVE('',#339,#346,#37,.T.);
#285=EDGE_CURVE('',#345,#346,#379,.T.);
#286=EDGE_CURVE('',#347,#347,#380,.T.);
#287=EDGE_CURVE('',#348,#349,#38,.T.);
#288=EDGE_CURVE('',#349,#348,#381,.T.);
#289=EDGE_CURVE('',#345,#328,#39,.T.);
#290=EDGE_CURVE('',#346,#330,#40,.T.);
#291=EDGE_CURVE('',#350,#344,#41,.T.);
#292=EDGE_CURVE('',#351,#350,#382,.F.);
#293=EDGE_CURVE('',#352,#351,#42,.T.);
#294=EDGE_CURVE('',#341,#352,#43,.T.);
#295=EDGE_CURVE('',#353,#342,#44,.T.);
#296=EDGE_CURVE('',#332,#353,#45,.T.);
#297=EDGE_CURVE('',#354,#333,#46,.T.);
#298=EDGE_CURVE('',#343,#354,#47,.T.);
#299=EDGE_CURVE('',#355,#356,#48,.T.);
#300=EDGE_CURVE('',#356,#355,#383,.T.);
#301=EDGE_CURVE('',#351,#355,#49,.F.);
#302=EDGE_CURVE('',#356,#350,#50,.T.);
#303=EDGE_CURVE('',#357,#357,#384,.T.);
#304=EDGE_CURVE('',#358,#359,#51,.T.);
#305=EDGE_CURVE('',#359,#358,#385,.T.);
#306=EDGE_CURVE('',#359,#349,#52,.T.);
#307=EDGE_CURVE('',#358,#348,#53,.T.);
#308=EDGE_CURVE('',#360,#352,#54,.T.);
#309=EDGE_CURVE('',#361,#344,#55,.T.);
#310=EDGE_CURVE('',#361,#360,#56,.T.);
#311=EDGE_CURVE('',#362,#354,#57,.T.);
#312=EDGE_CURVE('',#361,#362,#58,.T.);
#313=EDGE_CURVE('',#363,#341,#59,.T.);
#314=EDGE_CURVE('',#362,#363,#60,.T.);
#315=EDGE_CURVE('',#360,#363,#61,.T.);
#316=EDGE_CURVE('',#364,#340,#62,.T.);
#317=EDGE_CURVE('',#365,#329,#63,.T.);
#318=EDGE_CURVE('',#365,#364,#64,.T.);
#319=EDGE_CURVE('',#366,#353,#65,.T.);
#320=EDGE_CURVE('',#365,#366,#66,.T.);
#321=EDGE_CURVE('',#367,#327,#67,.T.);
#322=EDGE_CURVE('',#366,#367,#68,.T.);
#323=EDGE_CURVE('',#364,#367,#69,.T.);
#324=VERTEX_POINT('',#852);
#325=VERTEX_POINT('',#853);
#326=VERTEX_POINT('',#855);
#327=VERTEX_POINT('',#867);
#328=VERTEX_POINT('',#871);
#329=VERTEX_POINT('',#872);
#330=VERTEX_POINT('',#889);
#331=VERTEX_POINT('',#891);
#332=VERTEX_POINT('',#928);
#333=VERTEX_POINT('',#930);
#334=VERTEX_POINT('',#959);
#335=VERTEX_POINT('',#960);
#336=VERTEX_POINT('',#1005);
#337=VERTEX_POINT('',#1006);
#338=VERTEX_POINT('',#1023);
#339=VERTEX_POINT('',#1025);
#340=VERTEX_POINT('',#1044);
#341=VERTEX_POINT('',#1057);
#342=VERTEX_POINT('',#1122);
#343=VERTEX_POINT('',#1134);
#344=VERTEX_POINT('',#1136);
#345=VERTEX_POINT('',#1150);
#346=VERTEX_POINT('',#1152);
#347=VERTEX_POINT('',#1176);
#348=VERTEX_POINT('',#1178);
#349=VERTEX_POINT('',#1179);
#350=VERTEX_POINT('',#1216);
#351=VERTEX_POINT('',#1233);
#352=VERTEX_POINT('',#1235);
#353=VERTEX_POINT('',#1239);
#354=VERTEX_POINT('',#1242);
#355=VERTEX_POINT('',#1246);
#356=VERTEX_POINT('',#1247);
#357=VERTEX_POINT('',#1308);
#358=VERTEX_POINT('',#1325);
#359=VERTEX_POINT('',#1326);
#360=VERTEX_POINT('',#1350);
#361=VERTEX_POINT('',#1352);
#362=VERTEX_POINT('',#1356);
#363=VERTEX_POINT('',#1360);
#364=VERTEX_POINT('',#1367);
#365=VERTEX_POINT('',#1369);
#366=VERTEX_POINT('',#1373);
#367=VERTEX_POINT('',#1377);
#368=B_SPLINE_CURVE_WITH_KNOTS('',3,(#836,#837,#838,#839,#840,#841,#842,
#843,#844,#845,#846,#847,#848,#849,#850,#851),.UNSPECIFIED.,.T.,.F.,(1,
3,1,1,1,1,1,1,1,1,1,1,1,1,3,1),(-0.0723312256610186,0.,0.0517929764298808,
0.122352413828048,0.199302891483237,0.297617560603023,0.373199137532048,
0.431598428999092,0.524728729257109,0.623720555446574,0.675768295364633,
0.754128062232725,0.850126646021616,0.927668774338981,1.,1.05179297642988),
 .UNSPECIFIED.);
#369=B_SPLINE_CURVE_WITH_KNOTS('',3,(#856,#857,#858,#859,#860,#861,#862,
#863,#864,#865,#866),.UNSPECIFIED.,.T.,.F.,(1,3,1,1,1,1,1,1,1,3,1),(-0.112610699458123,
0.,0.120568202075014,0.220909962880395,0.345585771571086,0.509438016883864,
0.670277914296442,0.792420778706218,0.887389300541877,1.,1.12056820207501),
 .UNSPECIFIED.);
#370=B_SPLINE_CURVE_WITH_KNOTS('',3,(#873,#874,#875,#876,#877,#878,#879,
#880,#881,#882,#883,#884,#885,#886,#887,#888),.UNSPECIFIED.,.T.,.F.,(1,
3,1,1,1,1,1,1,1,1,1,1,1,1,3,1),(-0.0723312256610186,0.,0.0517929764298808,
0.122352413828048,0.199302891483237,0.297617560603023,0.373199137532048,
0.431598428999092,0.524728729257109,0.623720555446574,0.675768295364633,
0.754128062232725,0.850126646021616,0.927668774338981,1.,1.05179297642988),
 .UNSPECIFIED.);
#371=B_SPLINE_CURVE_WITH_KNOTS('',3,(#892,#893,#894,#895,#896,#897,#898,
#899,#900,#901,#902),.UNSPECIFIED.,.T.,.F.,(1,3,1,1,1,1,1,1,1,3,1),(-0.112610699458123,
0.,0.120568202075014,0.220909962880395,0.345585771571086,0.509438016883864,
0.670277914296442,0.792420778706218,0.887389300541877,1.,1.12056820207501),
 .UNSPECIFIED.);
#372=B_SPLINE_CURVE_WITH_KNOTS('',3,(#931,#932,#933,#934,#935,#936,#937,
#938,#939,#940,#941),.UNSPECIFIED.,.T.,.F.,(1,3,1,1,1,1,1,1,1,3,1),(-0.112610699458123,
0.,0.120568202075014,0.220909962880395,0.345585771571086,0.509438016883864,
0.670277914296442,0.792420778706218,0.887389300541877,1.,1.12056820207501),
 .UNSPECIFIED.);
#373=B_SPLINE_CURVE_WITH_KNOTS('',3,(#943,#944,#945,#946,#947,#948,#949,
#950,#951,#952,#953,#954,#955,#956,#957,#958),.UNSPECIFIED.,.T.,.F.,(1,
3,1,1,1,1,1,1,1,1,1,1,1,1,3,1),(-0.0723312256610186,0.,0.0517929764298808,
0.122352413828048,0.199302891483237,0.297617560603023,0.373199137532048,
0.431598428999092,0.524728729257109,0.623720555446574,0.675768295364633,
0.754128062232725,0.850126646021616,0.927668774338981,1.,1.05179297642988),
 .UNSPECIFIED.);
#374=B_SPLINE_CURVE_WITH_KNOTS('',3,(#1007,#1008,#1009,#1010,#1011,#1012,
#1013,#1014,#1015,#1016,#1017,#1018,#1019,#1020,#1021,#1022),
 .UNSPECIFIED.,.T.,.F.,(1,3,1,1,1,1,1,1,1,1,1,1,1,1,3,1),(-0.0723312256610186,
0.,0.0517929764298808,0.122352413828048,0.199302891483237,0.297617560603023,
0.373199137532048,0.431598428999092,0.524728729257109,0.623720555446574,
0.675768295364633,0.754128062232725,0.850126646021616,0.927668774338981,
1.,1.05179297642988),.UNSPECIFIED.);
#375=B_SPLINE_CURVE_WITH_KNOTS('',3,(#1026,#1027,#1028,#1029,#1030,#1031,
#1032,#1033,#1034,#1035,#1036,#1037,#1038,#1039,#1040,#1041),
 .UNSPECIFIED.,.T.,.F.,(1,3,1,1,1,1,1,1,1,1,1,1,1,1,3,1),(-0.0723312256610186,
0.,0.0517929764298808,0.122352413828048,0.199302891483237,0.297617560603023,
0.373199137532048,0.431598428999092,0.524728729257109,0.623720555446574,
0.675768295364633,0.754128062232725,0.850126646021616,0.927668774338981,
1.,1.05179297642988),.UNSPECIFIED.);
#376=B_SPLINE_CURVE_WITH_KNOTS('',3,(#1046,#1047,#1048,#1049,#1050,#1051,
#1052,#1053,#1054,#1055,#1056),.UNSPECIFIED.,.T.,.F.,(1,3,1,1,1,1,1,1,1,
3,1),(-0.112610699458123,0.,0.120568202075014,0.220909962880395,0.345585771571086,
0.509438016883864,0.670277914296442,0.792420778706218,0.887389300541877,
1.,1.12056820207501),.UNSPECIFIED.);
#377=B_SPLINE_CURVE_WITH_KNOTS('',3,(#1123,#1124,#1125,#1126,#1127,#1128,
#1129,#1130,#1131,#1132,#1133),.UNSPECIFIED.,.T.,.F.,(1,3,1,1,1,1,1,1,1,
3,1),(-0.112610699458123,0.,0.120568202075014,0.220909962880395,0.345585771571086,
0.509438016883864,0.670277914296442,0.792420778706218,0.887389300541877,
1.,1.12056820207501),.UNSPECIFIED.);
#378=B_SPLINE_CURVE_WITH_KNOTS('',3,(#1137,#1138,#1139,#1140,#1141,#1142,
#1143,#1144,#1145,#1146,#1147),.UNSPECIFIED.,.T.,.F.,(1,3,1,1,1,1,1,1,1,
3,1),(-0.112610699458123,0.,0.120568202075014,0.220909962880395,0.345585771571086,
0.509438016883864,0.670277914296442,0.792420778706218,0.887389300541877,
1.,1.12056820207501),.UNSPECIFIED.);
#379=B_SPLINE_CURVE_WITH_KNOTS('',3,(#1153,#1154,#1155,#1156,#1157,#1158,
#1159,#1160,#1161,#1162,#1163,#1164,#1165,#1166,#1167,#1168),
 .UNSPECIFIED.,.T.,.F.,(1,3,1,1,1,1,1,1,1,1,1,1,1,1,3,1),(-0.0723312256610186,
0.,0.0517929764298808,0.122352413828048,0.199302891483237,0.297617560603023,
0.373199137532048,0.431598428999092,0.524728729257109,0.623720555446574,
0.675768295364633,0.754128062232725,0.850126646021616,0.927668774338981,
1.,1.05179297642988),.UNSPECIFIED.);
#380=B_SPLINE_CURVE_WITH_KNOTS('',3,(#1169,#1170,#1171,#1172,#1173,#1174,
#1175),.UNSPECIFIED.,.T.,.F.,(1,3,1,1,1,3,1),(-0.212066486642623,0.,0.235131706015301,
0.511193770402933,0.787933513357377,1.,1.2351317060153),.UNSPECIFIED.);
#381=B_SPLINE_CURVE_WITH_KNOTS('',3,(#1180,#1181,#1182,#1183,#1184,#1185),
 .UNSPECIFIED.,.F.,.F.,(4,1,1,4),(0.,0.337435337210598,0.660442122769675,
1.),.UNSPECIFIED.);
#382=B_SPLINE_CURVE_WITH_KNOTS('',3,(#1217,#1218,#1219,#1220,#1221,#1222,
#1223,#1224,#1225,#1226,#1227,#1228,#1229,#1230,#1231,#1232),
 .UNSPECIFIED.,.T.,.F.,(1,3,1,1,1,1,1,1,1,1,1,1,1,1,3,1),(-0.0723312256610186,
0.,0.0517929764298808,0.122352413828048,0.199302891483237,0.297617560603023,
0.373199137532048,0.431598428999092,0.524728729257109,0.623720555446574,
0.675768295364633,0.754128062232725,0.850126646021616,0.927668774338981,
1.,1.05179297642988),.UNSPECIFIED.);
#383=B_SPLINE_CURVE_WITH_KNOTS('',3,(#1248,#1249,#1250,#1251,#1252,#1253,
#1254,#1255,#1256,#1257,#1258,#1259,#1260,#1261,#1262,#1263),
 .UNSPECIFIED.,.T.,.F.,(1,3,1,1,1,1,1,1,1,1,1,1,1,1,3,1),(-0.0723312256610186,
0.,0.0517929764298808,0.122352413828048,0.199302891483237,0.297617560603023,
0.373199137532048,0.431598428999092,0.524728729257109,0.623720555446574,
0.675768295364633,0.754128062232725,0.850126646021616,0.927668774338981,
1.,1.05179297642988),.UNSPECIFIED.);
#384=B_SPLINE_CURVE_WITH_KNOTS('',3,(#1301,#1302,#1303,#1304,#1305,#1306,
#1307),.UNSPECIFIED.,.T.,.F.,(1,3,1,1,1,3,1),(-0.212066486642623,0.,0.235131706015301,
0.511193770402933,0.787933513357377,1.,1.2351317060153),.UNSPECIFIED.);
#385=B_SPLINE_CURVE_WITH_KNOTS('',3,(#1327,#1328,#1329,#1330,#1331,#1332),
 .UNSPECIFIED.,.F.,.F.,(4,1,1,4),(0.,0.337435337210598,0.660442122769675,
1.),.UNSPECIFIED.);
#386=EDGE_LOOP('',(#120,#121,#122,#123));
#387=EDGE_LOOP('',(#124,#125,#126,#127));
#388=EDGE_LOOP('',(#128,#129,#130,#131));
#389=EDGE_LOOP('',(#132,#133));
#390=EDGE_LOOP('',(#134,#135,#136,#137));
#391=EDGE_LOOP('',(#138,#139,#140,#141));
#392=EDGE_LOOP('',(#142,#143,#144,#145,#146));
#393=EDGE_LOOP('',(#147,#148,#149,#150,#151,#152));
#394=EDGE_LOOP('',(#153,#154,#155,#156));
#395=EDGE_LOOP('',(#157));
#396=EDGE_LOOP('',(#158,#159));
#397=EDGE_LOOP('',(#160,#161,#162,#163));
#398=EDGE_LOOP('',(#164,#165,#166,#167,#168));
#399=EDGE_LOOP('',(#169,#170,#171,#172,#173,#174));
#400=EDGE_LOOP('',(#175,#176));
#401=EDGE_LOOP('',(#177,#178,#179,#180));
#402=EDGE_LOOP('',(#181));
#403=EDGE_LOOP('',(#182));
#404=EDGE_LOOP('',(#183));
#405=EDGE_LOOP('',(#184,#185));
#406=EDGE_LOOP('',(#186,#187,#188,#189));
#407=EDGE_LOOP('',(#190,#191,#192,#193));
#408=EDGE_LOOP('',(#194,#195,#196,#197,#198,#199,#200,#201));
#409=EDGE_LOOP('',(#202,#203,#204,#205,#206));
#410=EDGE_LOOP('',(#207,#208,#209,#210,#211,#212,#213,#214,#215,#216));
#411=EDGE_LOOP('',(#217,#218,#219,#220));
#412=EDGE_LOOP('',(#221,#222,#223,#224));
#413=EDGE_LOOP('',(#225,#226,#227,#228,#229,#230,#231,#232));
#414=EDGE_LOOP('',(#233,#234,#235,#236,#237));
#415=EDGE_LOOP('',(#238,#239,#240,#241,#242,#243,#244,#245,#246,#247));
#416=EDGE_LOOP('',(#248,#249,#250,#251));
#417=EDGE_LOOP('',(#252,#253,#254,#255));
#418=FACE_BOUND('',#386,.T.);
#419=FACE_BOUND('',#387,.T.);
#420=FACE_BOUND('',#388,.T.);
#421=FACE_BOUND('',#389,.T.);
#422=FACE_BOUND('',#390,.T.);
#423=FACE_BOUND('',#391,.T.);
#424=FACE_BOUND('',#392,.T.);
#425=FACE_BOUND('',#393,.T.);
#426=FACE_BOUND('',#394,.T.);
#427=FACE_BOUND('',#395,.T.);
#428=FACE_BOUND('',#396,.T.);
#429=FACE_BOUND('',#397,.T.);
#430=FACE_BOUND('',#398,.T.);
#431=FACE_BOUND('',#399,.T.);
#432=FACE_BOUND('',#400,.T.);
#433=FACE_BOUND('',#401,.T.);
#434=FACE_BOUND('',#402,.T.);
#435=FACE_BOUND('',#403,.T.);
#436=FACE_BOUND('',#404,.T.);
#437=FACE_BOUND('',#405,.T.);
#438=FACE_BOUND('',#406,.T.);
#439=FACE_BOUND('',#407,.T.);
#440=FACE_BOUND('',#408,.T.);
#441=FACE_BOUND('',#409,.T.);
#442=FACE_BOUND('',#410,.T.);
#443=FACE_BOUND('',#411,.T.);
#444=FACE_BOUND('',#412,.T.);
#445=FACE_BOUND('',#413,.T.);
#446=FACE_BOUND('',#414,.T.);
#447=FACE_BOUND('',#415,.T.);
#448=FACE_BOUND('',#416,.T.);
#449=FACE_BOUND('',#417,.T.);
#450=PLANE('',#719);
#451=PLANE('',#720);
#452=PLANE('',#721);
#453=PLANE('',#722);
#454=PLANE('',#723);
#455=PLANE('',#724);
#456=PLANE('',#725);
#457=PLANE('',#726);
#458=PLANE('',#727);
#459=PLANE('',#728);
#460=PLANE('',#729);
#461=PLANE('',#730);
#462=PLANE('',#731);
#463=PLANE('',#732);
#464=PLANE('',#733);
#465=PLANE('',#734);
#466=PLANE('',#735);
#467=PLANE('',#736);
#468=PLANE('',#737);
#469=PLANE('',#738);
#470=PLANE('',#739);
#471=OVER_RIDING_STYLED_ITEM('',(#532),#500,#530);
#472=OVER_RIDING_STYLED_ITEM('',(#533),#501,#530);
#473=OVER_RIDING_STYLED_ITEM('',(#534),#502,#530);
#474=OVER_RIDING_STYLED_ITEM('',(#535),#503,#530);
#475=OVER_RIDING_STYLED_ITEM('',(#536),#504,#530);
#476=OVER_RIDING_STYLED_ITEM('',(#537),#505,#530);
#477=OVER_RIDING_STYLED_ITEM('',(#538),#506,#530);
#478=OVER_RIDING_STYLED_ITEM('',(#539),#507,#530);
#479=OVER_RIDING_STYLED_ITEM('',(#540),#508,#530);
#480=OVER_RIDING_STYLED_ITEM('',(#541),#509,#530);
#481=OVER_RIDING_STYLED_ITEM('',(#542),#510,#530);
#482=OVER_RIDING_STYLED_ITEM('',(#543),#511,#530);
#483=OVER_RIDING_STYLED_ITEM('',(#544),#512,#530);
#484=OVER_RIDING_STYLED_ITEM('',(#545),#513,#530);
#485=OVER_RIDING_STYLED_ITEM('',(#546),#514,#530);
#486=OVER_RIDING_STYLED_ITEM('',(#547),#515,#530);
#487=OVER_RIDING_STYLED_ITEM('',(#548),#516,#530);
#488=OVER_RIDING_STYLED_ITEM('',(#549),#517,#530);
#489=OVER_RIDING_STYLED_ITEM('',(#550),#518,#530);
#490=OVER_RIDING_STYLED_ITEM('',(#551),#519,#530);
#491=OVER_RIDING_STYLED_ITEM('',(#552),#520,#530);
#492=OVER_RIDING_STYLED_ITEM('',(#553),#521,#530);
#493=OVER_RIDING_STYLED_ITEM('',(#554),#522,#530);
#494=OVER_RIDING_STYLED_ITEM('',(#555),#523,#530);
#495=OVER_RIDING_STYLED_ITEM('',(#556),#524,#530);
#496=OVER_RIDING_STYLED_ITEM('',(#557),#525,#530);
#497=OVER_RIDING_STYLED_ITEM('',(#558),#526,#530);
#498=OVER_RIDING_STYLED_ITEM('',(#559),#527,#530);
#499=OVER_RIDING_STYLED_ITEM('',(#560),#528,#530);
#500=ADVANCED_FACE('Face appearance 8',(#418),#450,.T.);
#501=ADVANCED_FACE('Face appearance 8',(#419),#451,.T.);
#502=ADVANCED_FACE('Face appearance 8',(#420),#12,.F.);
#503=ADVANCED_FACE('Face appearance 11',(#421),#452,.T.);
#504=ADVANCED_FACE('Face appearance 11',(#422),#13,.T.);
#505=ADVANCED_FACE('Face appearance 11',(#423),#14,.T.);
#506=ADVANCED_FACE('Face appearance 8',(#424),#453,.T.);
#507=ADVANCED_FACE('Face appearance 8',(#425),#15,.F.);
#508=ADVANCED_FACE('Face appearance 11',(#426,#427,#428),#454,.T.);
#509=ADVANCED_FACE('Face appearance 11',(#429),#16,.T.);
#510=ADVANCED_FACE('Face appearance 8',(#430),#455,.T.);
#511=ADVANCED_FACE('Face appearance 13',(#431),#456,.F.);
#512=ADVANCED_FACE('Face appearance 11',(#432),#457,.T.);
#513=ADVANCED_FACE('Face appearance 11',(#433),#17,.T.);
#514=ADVANCED_FACE('Face appearance 10',(#434),#458,.T.);
#515=ADVANCED_FACE('Face appearance 10',(#435,#436),#18,.T.);
#516=ADVANCED_FACE('Face appearance 10',(#437),#459,.T.);
#517=ADVANCED_FACE('Face appearance 10',(#438),#19,.F.);
#518=ADVANCED_FACE('Face appearance 10',(#439),#460,.F.);
#519=ADVANCED_FACE('Face appearance 12',(#440),#461,.T.);
#520=ADVANCED_FACE('Face appearance 12',(#441),#462,.F.);
#521=ADVANCED_FACE('Face appearance 12',(#442),#463,.F.);
#522=ADVANCED_FACE('Face appearance 12',(#443),#464,.T.);
#523=ADVANCED_FACE('Face appearance 12',(#444),#465,.T.);
#524=ADVANCED_FACE('Face appearance 13',(#445),#466,.T.);
#525=ADVANCED_FACE('Face appearance 13',(#446),#467,.F.);
#526=ADVANCED_FACE('Face appearance 13',(#447),#468,.F.);
#527=ADVANCED_FACE('Face appearance 13',(#448),#469,.T.);
#528=ADVANCED_FACE('Face appearance 13',(#449),#470,.T.);
#529=CLOSED_SHELL('',(#500,#501,#502,#503,#504,#505,#506,#507,#508,#509,
#510,#511,#512,#513,#514,#515,#516,#517,#518,#519,#520,#521,#522,#523,#524,
#525,#526,#527,#528));
#530=STYLED_ITEM('',(#531),#715);
#531=PRESENTATION_STYLE_ASSIGNMENT((#561));
#532=PRESENTATION_STYLE_ASSIGNMENT((#562));
#533=PRESENTATION_STYLE_ASSIGNMENT((#563));
#534=PRESENTATION_STYLE_ASSIGNMENT((#564));
#535=PRESENTATION_STYLE_ASSIGNMENT((#565));
#536=PRESENTATION_STYLE_ASSIGNMENT((#566));
#537=PRESENTATION_STYLE_ASSIGNMENT((#567));
#538=PRESENTATION_STYLE_ASSIGNMENT((#568));
#539=PRESENTATION_STYLE_ASSIGNMENT((#569));
#540=PRESENTATION_STYLE_ASSIGNMENT((#570));
#541=PRESENTATION_STYLE_ASSIGNMENT((#571));
#542=PRESENTATION_STYLE_ASSIGNMENT((#572));
#543=PRESENTATION_STYLE_ASSIGNMENT((#573));
#544=PRESENTATION_STYLE_ASSIGNMENT((#574));
#545=PRESENTATION_STYLE_ASSIGNMENT((#575));
#546=PRESENTATION_STYLE_ASSIGNMENT((#576));
#547=PRESENTATION_STYLE_ASSIGNMENT((#577));
#548=PRESENTATION_STYLE_ASSIGNMENT((#578));
#549=PRESENTATION_STYLE_ASSIGNMENT((#579));
#550=PRESENTATION_STYLE_ASSIGNMENT((#580));
#551=PRESENTATION_STYLE_ASSIGNMENT((#581));
#552=PRESENTATION_STYLE_ASSIGNMENT((#582));
#553=PRESENTATION_STYLE_ASSIGNMENT((#583));
#554=PRESENTATION_STYLE_ASSIGNMENT((#584));
#555=PRESENTATION_STYLE_ASSIGNMENT((#585));
#556=PRESENTATION_STYLE_ASSIGNMENT((#586));
#557=PRESENTATION_STYLE_ASSIGNMENT((#587));
#558=PRESENTATION_STYLE_ASSIGNMENT((#588));
#559=PRESENTATION_STYLE_ASSIGNMENT((#589));
#560=PRESENTATION_STYLE_ASSIGNMENT((#590));
#561=SURFACE_STYLE_USAGE(.BOTH.,#591);
#562=SURFACE_STYLE_USAGE(.BOTH.,#592);
#563=SURFACE_STYLE_USAGE(.BOTH.,#593);
#564=SURFACE_STYLE_USAGE(.BOTH.,#594);
#565=SURFACE_STYLE_USAGE(.BOTH.,#595);
#566=SURFACE_STYLE_USAGE(.BOTH.,#596);
#567=SURFACE_STYLE_USAGE(.BOTH.,#597);
#568=SURFACE_STYLE_USAGE(.BOTH.,#598);
#569=SURFACE_STYLE_USAGE(.BOTH.,#599);
#570=SURFACE_STYLE_USAGE(.BOTH.,#600);
#571=SURFACE_STYLE_USAGE(.BOTH.,#601);
#572=SURFACE_STYLE_USAGE(.BOTH.,#602);
#573=SURFACE_STYLE_USAGE(.BOTH.,#603);
#574=SURFACE_STYLE_USAGE(.BOTH.,#604);
#575=SURFACE_STYLE_USAGE(.BOTH.,#605);
#576=SURFACE_STYLE_USAGE(.BOTH.,#606);
#577=SURFACE_STYLE_USAGE(.BOTH.,#607);
#578=SURFACE_STYLE_USAGE(.BOTH.,#608);
#579=SURFACE_STYLE_USAGE(.BOTH.,#609);
#580=SURFACE_STYLE_USAGE(.BOTH.,#610);
#581=SURFACE_STYLE_USAGE(.BOTH.,#611);
#582=SURFACE_STYLE_USAGE(.BOTH.,#612);
#583=SURFACE_STYLE_USAGE(.BOTH.,#613);
#584=SURFACE_STYLE_USAGE(.BOTH.,#614);
#585=SURFACE_STYLE_USAGE(.BOTH.,#615);
#586=SURFACE_STYLE_USAGE(.BOTH.,#616);
#587=SURFACE_STYLE_USAGE(.BOTH.,#617);
#588=SURFACE_STYLE_USAGE(.BOTH.,#618);
#589=SURFACE_STYLE_USAGE(.BOTH.,#619);
#590=SURFACE_STYLE_USAGE(.BOTH.,#620);
#591=SURFACE_SIDE_STYLE('',(#621));
#592=SURFACE_SIDE_STYLE('',(#622));
#593=SURFACE_SIDE_STYLE('',(#623));
#594=SURFACE_SIDE_STYLE('',(#624));
#595=SURFACE_SIDE_STYLE('',(#625));
#596=SURFACE_SIDE_STYLE('',(#626));
#597=SURFACE_SIDE_STYLE('',(#627));
#598=SURFACE_SIDE_STYLE('',(#628));
#599=SURFACE_SIDE_STYLE('',(#629));
#600=SURFACE_SIDE_STYLE('',(#630));
#601=SURFACE_SIDE_STYLE('',(#631));
#602=SURFACE_SIDE_STYLE('',(#632));
#603=SURFACE_SIDE_STYLE('',(#633));
#604=SURFACE_SIDE_STYLE('',(#634));
#605=SURFACE_SIDE_STYLE('',(#635));
#606=SURFACE_SIDE_STYLE('',(#636));
#607=SURFACE_SIDE_STYLE('',(#637));
#608=SURFACE_SIDE_STYLE('',(#638));
#609=SURFACE_SIDE_STYLE('',(#639));
#610=SURFACE_SIDE_STYLE('',(#640));
#611=SURFACE_SIDE_STYLE('',(#641));
#612=SURFACE_SIDE_STYLE('',(#642));
#613=SURFACE_SIDE_STYLE('',(#643));
#614=SURFACE_SIDE_STYLE('',(#644));
#615=SURFACE_SIDE_STYLE('',(#645));
#616=SURFACE_SIDE_STYLE('',(#646));
#617=SURFACE_SIDE_STYLE('',(#647));
#618=SURFACE_SIDE_STYLE('',(#648));
#619=SURFACE_SIDE_STYLE('',(#649));
#620=SURFACE_SIDE_STYLE('',(#650));
#621=SURFACE_STYLE_FILL_AREA(#651);
#622=SURFACE_STYLE_FILL_AREA(#652);
#623=SURFACE_STYLE_FILL_AREA(#653);
#624=SURFACE_STYLE_FILL_AREA(#654);
#625=SURFACE_STYLE_FILL_AREA(#655);
#626=SURFACE_STYLE_FILL_AREA(#656);
#627=SURFACE_STYLE_FILL_AREA(#657);
#628=SURFACE_STYLE_FILL_AREA(#658);
#629=SURFACE_STYLE_FILL_AREA(#659);
#630=SURFACE_STYLE_FILL_AREA(#660);
#631=SURFACE_STYLE_FILL_AREA(#661);
#632=SURFACE_STYLE_FILL_AREA(#662);
#633=SURFACE_STYLE_FILL_AREA(#663);
#634=SURFACE_STYLE_FILL_AREA(#664);
#635=SURFACE_STYLE_FILL_AREA(#665);
#636=SURFACE_STYLE_FILL_AREA(#666);
#637=SURFACE_STYLE_FILL_AREA(#667);
#638=SURFACE_STYLE_FILL_AREA(#668);
#639=SURFACE_STYLE_FILL_AREA(#669);
#640=SURFACE_STYLE_FILL_AREA(#670);
#641=SURFACE_STYLE_FILL_AREA(#671);
#642=SURFACE_STYLE_FILL_AREA(#672);
#643=SURFACE_STYLE_FILL_AREA(#673);
#644=SURFACE_STYLE_FILL_AREA(#674);
#645=SURFACE_STYLE_FILL_AREA(#675);
#646=SURFACE_STYLE_FILL_AREA(#676);
#647=SURFACE_STYLE_FILL_AREA(#677);
#648=SURFACE_STYLE_FILL_AREA(#678);
#649=SURFACE_STYLE_FILL_AREA(#679);
#650=SURFACE_STYLE_FILL_AREA(#680);
#651=FILL_AREA_STYLE('',(#681));
#652=FILL_AREA_STYLE('',(#682));
#653=FILL_AREA_STYLE('',(#683));
#654=FILL_AREA_STYLE('',(#684));
#655=FILL_AREA_STYLE('',(#685));
#656=FILL_AREA_STYLE('',(#686));
#657=FILL_AREA_STYLE('',(#687));
#658=FILL_AREA_STYLE('',(#688));
#659=FILL_AREA_STYLE('',(#689));
#660=FILL_AREA_STYLE('',(#690));
#661=FILL_AREA_STYLE('',(#691));
#662=FILL_AREA_STYLE('',(#692));
#663=FILL_AREA_STYLE('',(#693));
#664=FILL_AREA_STYLE('',(#694));
#665=FILL_AREA_STYLE('',(#695));
#666=FILL_AREA_STYLE('',(#696));
#667=FILL_AREA_STYLE('',(#697));
#668=FILL_AREA_STYLE('',(#698));
#669=FILL_AREA_STYLE('',(#699));
#670=FILL_AREA_STYLE('',(#700));
#671=FILL_AREA_STYLE('',(#701));
#672=FILL_AREA_STYLE('',(#702));
#673=FILL_AREA_STYLE('',(#703));
#674=FILL_AREA_STYLE('',(#704));
#675=FILL_AREA_STYLE('',(#705));
#676=FILL_AREA_STYLE('',(#706));
#677=FILL_AREA_STYLE('',(#707));
#678=FILL_AREA_STYLE('',(#708));
#679=FILL_AREA_STYLE('',(#709));
#680=FILL_AREA_STYLE('',(#710));
#681=FILL_AREA_STYLE_COLOUR('',#711);
#682=FILL_AREA_STYLE_COLOUR('',#712);
#683=FILL_AREA_STYLE_COLOUR('',#712);
#684=FILL_AREA_STYLE_COLOUR('',#712);
#685=FILL_AREA_STYLE_COLOUR('',#713);
#686=FILL_AREA_STYLE_COLOUR('',#713);
#687=FILL_AREA_STYLE_COLOUR('',#713);
#688=FILL_AREA_STYLE_COLOUR('',#712);
#689=FILL_AREA_STYLE_COLOUR('',#712);
#690=FILL_AREA_STYLE_COLOUR('',#713);
#691=FILL_AREA_STYLE_COLOUR('',#713);
#692=FILL_AREA_STYLE_COLOUR('',#712);
#693=FILL_AREA_STYLE_COLOUR('',#712);
#694=FILL_AREA_STYLE_COLOUR('',#713);
#695=FILL_AREA_STYLE_COLOUR('',#713);
#696=FILL_AREA_STYLE_COLOUR('',#714);
#697=FILL_AREA_STYLE_COLOUR('',#714);
#698=FILL_AREA_STYLE_COLOUR('',#714);
#699=FILL_AREA_STYLE_COLOUR('',#714);
#700=FILL_AREA_STYLE_COLOUR('',#714);
#701=FILL_AREA_STYLE_COLOUR('',#712);
#702=FILL_AREA_STYLE_COLOUR('',#712);
#703=FILL_AREA_STYLE_COLOUR('',#712);
#704=FILL_AREA_STYLE_COLOUR('',#712);
#705=FILL_AREA_STYLE_COLOUR('',#712);
#706=FILL_AREA_STYLE_COLOUR('',#712);
#707=FILL_AREA_STYLE_COLOUR('',#712);
#708=FILL_AREA_STYLE_COLOUR('',#712);
#709=FILL_AREA_STYLE_COLOUR('',#712);
#710=FILL_AREA_STYLE_COLOUR('',#712);
#711=COLOUR_RGB('',0.615686274509804,0.811764705882353,0.929411764705882);
#712=COLOUR_RGB('',0.513725490196078,0.737254901960784,0.407843137254902);
#713=COLOUR_RGB('',1.,0.956862745098039,0.83921568627451);
#714=COLOUR_RGB('',0.447058823529412,0.243137254901961,0.);
#715=MANIFOLD_SOLID_BREP('Part 1',#529);
#716=SHAPE_DEFINITION_REPRESENTATION(#1388,#717);
#717=SHAPE_REPRESENTATION('Part 1',(#718),#1383);
#718=AXIS2_PLACEMENT_3D('',#834,#740,#741);
#719=AXIS2_PLACEMENT_3D('',#835,#742,#743);
#720=AXIS2_PLACEMENT_3D('',#869,#746,#747);
#721=AXIS2_PLACEMENT_3D('',#942,#752,#753);
#722=AXIS2_PLACEMENT_3D('',#1042,#759,#760);
#723=AXIS2_PLACEMENT_3D('',#1148,#766,#767);
#724=AXIS2_PLACEMENT_3D('',#1214,#773,#774);
#725=AXIS2_PLACEMENT_3D('',#1237,#778,#779);
#726=AXIS2_PLACEMENT_3D('',#1244,#784,#785);
#727=AXIS2_PLACEMENT_3D('',#1300,#789,#790);
#728=AXIS2_PLACEMENT_3D('',#1323,#791,#792);
#729=AXIS2_PLACEMENT_3D('',#1347,#796,#797);
#730=AXIS2_PLACEMENT_3D('',#1348,#798,#799);
#731=AXIS2_PLACEMENT_3D('',#1354,#803,#804);
#732=AXIS2_PLACEMENT_3D('',#1358,#807,#808);
#733=AXIS2_PLACEMENT_3D('',#1362,#811,#812);
#734=AXIS2_PLACEMENT_3D('',#1364,#814,#815);
#735=AXIS2_PLACEMENT_3D('',#1365,#816,#817);
#736=AXIS2_PLACEMENT_3D('',#1371,#821,#822);
#737=AXIS2_PLACEMENT_3D('',#1375,#825,#826);
#738=AXIS2_PLACEMENT_3D('',#1379,#829,#830);
#739=AXIS2_PLACEMENT_3D('',#1381,#832,#833);
#740=DIRECTION('',(0.,0.,1.));
#741=DIRECTION('',(1.,0.,0.));
#742=DIRECTION('',(0.,0.,1.));
#743=DIRECTION('',(1.,0.,0.));
#744=DIRECTION('',(-1.,0.,0.));
#745=DIRECTION('',(-1.,0.,0.));
#746=DIRECTION('',(0.,0.,1.));
#747=DIRECTION('',(1.,0.,0.));
#748=DIRECTION('',(-1.,0.,0.));
#749=DIRECTION('',(-1.,0.,0.));
#750=DIRECTION('',(0.,0.,-1.));
#751=DIRECTION('',(0.,0.,-1.));
#752=DIRECTION('',(0.,0.,1.));
#753=DIRECTION('',(1.,0.,0.));
#754=DIRECTION('',(-1.,0.,0.));
#755=DIRECTION('',(0.,0.,-1.));
#756=DIRECTION('',(0.,0.,-1.));
#757=DIRECTION('',(0.,0.,-1.));
#758=DIRECTION('',(0.,0.,-1.));
#759=DIRECTION('',(0.,0.,1.));
#760=DIRECTION('',(1.,0.,0.));
#761=DIRECTION('',(-1.,0.,0.));
#762=DIRECTION('',(0.,1.,0.));
#763=DIRECTION('',(-1.,0.,0.));
#764=DIRECTION('',(0.,0.,-1.));
#765=DIRECTION('',(0.,0.,-1.));
#766=DIRECTION('',(0.,0.,1.));
#767=DIRECTION('',(1.,0.,0.));
#768=DIRECTION('',(-1.,0.,0.));
#769=DIRECTION('',(-1.,0.,0.));
#770=DIRECTION('',(0.0302890855464699,0.999541180390663,0.));
#771=DIRECTION('',(0.,0.,-1.));
#772=DIRECTION('',(0.,0.,-1.));
#773=DIRECTION('',(0.,0.,1.));
#774=DIRECTION('',(1.,0.,0.));
#775=DIRECTION('',(-1.,0.,0.));
#776=DIRECTION('',(-1.,0.,0.));
#777=DIRECTION('',(0.,1.,0.));
#778=DIRECTION('',(0.,0.,1.));
#779=DIRECTION('',(1.,0.,0.));
#780=DIRECTION('',(1.,0.,0.));
#781=DIRECTION('',(0.,-1.,0.));
#782=DIRECTION('',(1.,0.,0.));
#783=DIRECTION('',(0.,-1.,0.));
#784=DIRECTION('',(0.,0.,1.));
#785=DIRECTION('',(1.,0.,0.));
#786=DIRECTION('',(-1.,0.,0.));
#787=DIRECTION('',(0.,0.,-1.));
#788=DIRECTION('',(0.,0.,-1.));
#789=DIRECTION('',(0.,0.,1.));
#790=DIRECTION('',(1.,0.,0.));
#791=DIRECTION('',(0.,0.,1.));
#792=DIRECTION('',(1.,0.,0.));
#793=DIRECTION('',(0.0302890855464699,0.999541180390662,0.));
#794=DIRECTION('',(0.,0.,-1.));
#795=DIRECTION('',(0.,0.,-1.));
#796=DIRECTION('',(-0.999541180390662,0.0302890855464699,0.));
#797=DIRECTION('',(-0.0302890855464699,-0.999541180390663,0.));
#798=DIRECTION('',(0.,1.,0.));
#799=DIRECTION('',(0.,0.,1.));
#800=DIRECTION('',(0.,0.,-1.));
#801=DIRECTION('',(0.,0.,-1.));
#802=DIRECTION('',(1.,0.,0.));
#803=DIRECTION('',(1.,0.,0.));
#804=DIRECTION('',(0.,0.,-1.));
#805=DIRECTION('',(0.,0.,-1.));
#806=DIRECTION('',(0.,-1.,0.));
#807=DIRECTION('',(0.,1.,0.));
#808=DIRECTION('',(0.,0.,1.));
#809=DIRECTION('',(0.,0.,-1.));
#810=DIRECTION('',(1.,0.,0.));
#811=DIRECTION('',(1.,0.,0.));
#812=DIRECTION('',(0.,0.,-1.));
#813=DIRECTION('',(0.,-1.,0.));
#814=DIRECTION('',(0.,0.,1.));
#815=DIRECTION('',(1.,0.,0.));
#816=DIRECTION('',(0.,1.,0.));
#817=DIRECTION('',(0.,0.,1.));
#818=DIRECTION('',(0.,0.,-1.));
#819=DIRECTION('',(0.,0.,-1.));
#820=DIRECTION('',(1.,0.,0.));
#821=DIRECTION('',(1.,0.,0.));
#822=DIRECTION('',(0.,0.,-1.));
#823=DIRECTION('',(0.,0.,-1.));
#824=DIRECTION('',(0.,-1.,0.));
#825=DIRECTION('',(0.,1.,0.));
#826=DIRECTION('',(0.,0.,1.));
#827=DIRECTION('',(0.,0.,-1.));
#828=DIRECTION('',(1.,0.,0.));
#829=DIRECTION('',(1.,0.,0.));
#830=DIRECTION('',(0.,0.,-1.));
#831=DIRECTION('',(0.,-1.,0.));
#832=DIRECTION('',(0.,0.,1.));
#833=DIRECTION('',(1.,0.,0.));
#834=CARTESIAN_POINT('',(0.,0.,0.));
#835=CARTESIAN_POINT('',(-0.00147952450470331,0.0131616345120123,0.005));
#836=CARTESIAN_POINT('',(-0.00194627279415727,0.0339234434068203,0.005));
#837=CARTESIAN_POINT('',(-0.000722589913312619,0.0346478750322103,0.005));
#838=CARTESIAN_POINT('',(0.00197099040232519,0.0349242842497955,0.005));
#839=CARTESIAN_POINT('',(0.00543855717178746,0.0277666516925171,0.005));
#840=CARTESIAN_POINT('',(-0.000773199134270972,0.020506007273237,0.005));
#841=CARTESIAN_POINT('',(0.00994754451328416,0.0114818526138581,0.005));
#842=CARTESIAN_POINT('',(0.0113122176645203,0.00332032432124898,0.005));
#843=CARTESIAN_POINT('',(0.0081636096696711,0.000375837340814767,0.005));
#844=CARTESIAN_POINT('',(0.000431116106656262,-0.0120675938832785,0.005));
#845=CARTESIAN_POINT('',(-0.0104156085043326,0.000145512756097016,0.005));
#846=CARTESIAN_POINT('',(-0.0120777068036514,0.00280299925906318,0.005));
#847=CARTESIAN_POINT('',(-0.0113399640010944,0.0114859429968168,0.005));
#848=CARTESIAN_POINT('',(-0.002028854191334,0.0204404952155679,0.005));
#849=CARTESIAN_POINT('',(-0.00753346564422896,0.0283607388289492,0.005));
#850=CARTESIAN_POINT('',(-0.00365520108314503,0.0329117419950854,0.005));
#851=CARTESIAN_POINT('',(-0.00194627279415727,0.0339234434068203,0.005));
#852=CARTESIAN_POINT('',(-0.00875894036594965,-0.00157224222554491,0.005));
#853=CARTESIAN_POINT('',(0.00711173109356522,-0.00157224222554424,0.005));
#854=CARTESIAN_POINT('',(-0.00147952450470331,-0.00157224222554488,0.005));
#855=CARTESIAN_POINT('',(-0.0143918364260828,-0.00157224222554488,0.005));
#856=CARTESIAN_POINT('',(-2.16840434497101E-19,0.0379430316388607,0.005));
#857=CARTESIAN_POINT('',(-0.00403318984419663,0.0383503099432635,0.005));
#858=CARTESIAN_POINT('',(-0.0134346962339981,0.0284109363375582,0.005));
#859=CARTESIAN_POINT('',(-0.00464151881670016,0.0182205503033064,0.005));
#860=CARTESIAN_POINT('',(-0.0247270554354081,0.00868771652401505,0.005));
#861=CARTESIAN_POINT('',(0.000964132671957213,-0.0236555876939087,0.005));
#862=CARTESIAN_POINT('',(0.0203696665576811,0.010677933944407,0.005));
#863=CARTESIAN_POINT('',(0.00125505417516041,0.0187071233056368,0.005));
#864=CARTESIAN_POINT('',(0.00894526761224912,0.027483338936748,0.005));
#865=CARTESIAN_POINT('',(0.00376699927166368,0.0375626337068721,0.005));
#866=CARTESIAN_POINT('',(-2.16840434497101E-19,0.0379430316388607,0.005));
#867=CARTESIAN_POINT('',(0.0117161191544734,-0.00157224222554488,0.005));
#868=CARTESIAN_POINT('',(-0.00147952450470331,-0.00157224222554488,0.005));
#869=CARTESIAN_POINT('',(-0.00147952450470331,0.0131616345120123,0.005));
#870=CARTESIAN_POINT('',(-0.00147952450470331,0.,0.005));
#871=CARTESIAN_POINT('',(-0.0100889438763261,0.,0.005));
#872=CARTESIAN_POINT('',(-0.0152366289499704,0.,0.005));
#873=CARTESIAN_POINT('',(-0.00194627279415727,0.0339234434068203,0.005));
#874=CARTESIAN_POINT('',(-0.000722589913312619,0.0346478750322103,0.005));
#875=CARTESIAN_POINT('',(0.00197099040232519,0.0349242842497955,0.005));
#876=CARTESIAN_POINT('',(0.00543855717178746,0.0277666516925171,0.005));
#877=CARTESIAN_POINT('',(-0.000773199134270972,0.020506007273237,0.005));
#878=CARTESIAN_POINT('',(0.00994754451328416,0.0114818526138581,0.005));
#879=CARTESIAN_POINT('',(0.0113122176645203,0.00332032432124898,0.005));
#880=CARTESIAN_POINT('',(0.0081636096696711,0.000375837340814767,0.005));
#881=CARTESIAN_POINT('',(0.000431116106656262,-0.0120675938832785,0.005));
#882=CARTESIAN_POINT('',(-0.0104156085043326,0.000145512756097016,0.005));
#883=CARTESIAN_POINT('',(-0.0120777068036514,0.00280299925906318,0.005));
#884=CARTESIAN_POINT('',(-0.0113399640010944,0.0114859429968168,0.005));
#885=CARTESIAN_POINT('',(-0.002028854191334,0.0204404952155679,0.005));
#886=CARTESIAN_POINT('',(-0.00753346564422896,0.0283607388289492,0.005));
#887=CARTESIAN_POINT('',(-0.00365520108314503,0.0329117419950854,0.005));
#888=CARTESIAN_POINT('',(-0.00194627279415727,0.0339234434068203,0.005));
#889=CARTESIAN_POINT('',(-0.00459288139713902,0.0229216100027372,0.005));
#890=CARTESIAN_POINT('',(-0.00147952450470331,0.0229216100027372,0.005));
#891=CARTESIAN_POINT('',(-0.00896644983023673,0.0229216100027372,0.005));
#892=CARTESIAN_POINT('',(-2.16840434497101E-19,0.0379430316388607,0.005));
#893=CARTESIAN_POINT('',(-0.00403318984419663,0.0383503099432635,0.005));
#894=CARTESIAN_POINT('',(-0.0134346962339981,0.0284109363375582,0.005));
#895=CARTESIAN_POINT('',(-0.00464151881670016,0.0182205503033064,0.005));
#896=CARTESIAN_POINT('',(-0.0247270554354081,0.00868771652401505,0.005));
#897=CARTESIAN_POINT('',(0.000964132671957213,-0.0236555876939087,0.005));
#898=CARTESIAN_POINT('',(0.0203696665576811,0.010677933944407,0.005));
#899=CARTESIAN_POINT('',(0.00125505417516041,0.0187071233056368,0.005));
#900=CARTESIAN_POINT('',(0.00894526761224912,0.027483338936748,0.005));
#901=CARTESIAN_POINT('',(0.00376699927166368,0.0375626337068721,0.005));
#902=CARTESIAN_POINT('',(-2.16840434497101E-19,0.0379430316388607,0.005));
#903=CARTESIAN_POINT('',(-0.00896644983172033,0.0229216100023085,0.005));
#904=CARTESIAN_POINT('',(-0.00896644983172033,0.0229216100023085,-8.67361737988404E-19));
#905=CARTESIAN_POINT('',(-0.00873285137107181,0.0221083661464178,0.005));
#906=CARTESIAN_POINT('',(-0.00873285137107181,0.0221083661464178,-8.67361737988404E-19));
#907=CARTESIAN_POINT('',(-0.00844720542828338,0.0209357562740729,0.005));
#908=CARTESIAN_POINT('',(-0.00844720542828338,0.0209357562740729,1.73472347597681E-18));
#909=CARTESIAN_POINT('',(-0.00856942090164265,0.0194378024019346,0.005));
#910=CARTESIAN_POINT('',(-0.00856942090164265,0.0194378024019346,-5.20417042793042E-18));
#911=CARTESIAN_POINT('',(-0.00917746159244776,0.0179760552629921,0.005));
#912=CARTESIAN_POINT('',(-0.00917746159244776,0.0179760552629921,1.73472347597681E-18));
#913=CARTESIAN_POINT('',(-0.0107273987980229,0.0161689976830767,0.005));
#914=CARTESIAN_POINT('',(-0.0107273987980229,0.0161689976830767,-1.73472347597681E-18));
#915=CARTESIAN_POINT('',(-0.0131457274225421,0.0138552861134484,0.005));
#916=CARTESIAN_POINT('',(-0.0131457274225421,0.0138552861134484,-1.73472347597681E-18));
#917=CARTESIAN_POINT('',(-0.0154419854245055,0.0112161182907103,0.005));
#918=CARTESIAN_POINT('',(-0.0154419854245055,0.0112161182907103,0.));
#919=CARTESIAN_POINT('',(-0.0169586409862871,0.00809085580232843,0.005));
#920=CARTESIAN_POINT('',(-0.0169586409862871,0.00809085580232843,-1.73472347597681E-18));
#921=CARTESIAN_POINT('',(-0.0169214515901299,0.00424332792401484,0.005));
#922=CARTESIAN_POINT('',(-0.0169214515901299,0.00424332792401484,-8.67361737988404E-19));
#923=CARTESIAN_POINT('',(-0.0159201134911386,0.0014054541662978,0.005));
#924=CARTESIAN_POINT('',(-0.0159201134911386,0.0014054541662978,-8.67361737988404E-19));
#925=CARTESIAN_POINT('',(-0.0152366289499732,5.35183876382295E-15,0.005));
#926=CARTESIAN_POINT('',(-0.0152366289499732,5.35183876382295E-15,-8.67361737988404E-19));
#927=CARTESIAN_POINT('',(-0.0152366289499704,0.,0.015));
#928=CARTESIAN_POINT('',(-0.0152366289499704,0.,0.));
#929=CARTESIAN_POINT('',(-0.00896644983184347,0.0229216100027372,0.005));
#930=CARTESIAN_POINT('',(-0.00896644983023673,0.0229216100027372,0.));
#931=CARTESIAN_POINT('',(-2.16840434497101E-19,0.0379430316388607,0.));
#932=CARTESIAN_POINT('',(-0.00403318984419663,0.0383503099432635,0.));
#933=CARTESIAN_POINT('',(-0.0134346962339981,0.0284109363375582,0.));
#934=CARTESIAN_POINT('',(-0.00464151881670016,0.0182205503033064,0.));
#935=CARTESIAN_POINT('',(-0.0247270554354081,0.00868771652401505,0.));
#936=CARTESIAN_POINT('',(0.000964132671957213,-0.0236555876939087,0.));
#937=CARTESIAN_POINT('',(0.0203696665576811,0.010677933944407,0.));
#938=CARTESIAN_POINT('',(0.00125505417516041,0.0187071233056368,0.));
#939=CARTESIAN_POINT('',(0.00894526761224912,0.027483338936748,0.));
#940=CARTESIAN_POINT('',(0.00376699927166368,0.0375626337068721,0.));
#941=CARTESIAN_POINT('',(-2.16840434497101E-19,0.0379430316388607,0.));
#942=CARTESIAN_POINT('',(-0.000509067991594666,0.0136064865696844,0.0059));
#943=CARTESIAN_POINT('',(-0.00194627279415727,0.0339234434068203,0.0059));
#944=CARTESIAN_POINT('',(-0.000722589913312619,0.0346478750322103,0.0059));
#945=CARTESIAN_POINT('',(0.00197099040232519,0.0349242842497955,0.0059));
#946=CARTESIAN_POINT('',(0.00543855717178746,0.0277666516925171,0.0059));
#947=CARTESIAN_POINT('',(-0.000773199134270972,0.020506007273237,0.0059));
#948=CARTESIAN_POINT('',(0.00994754451328416,0.0114818526138581,0.0059));
#949=CARTESIAN_POINT('',(0.0113122176645203,0.00332032432124898,0.0059));
#950=CARTESIAN_POINT('',(0.0081636096696711,0.000375837340814767,0.0059));
#951=CARTESIAN_POINT('',(0.000431116106656262,-0.0120675938832785,0.0059));
#952=CARTESIAN_POINT('',(-0.0104156085043326,0.000145512756097016,0.0059));
#953=CARTESIAN_POINT('',(-0.0120777068036514,0.00280299925906318,0.0059));
#954=CARTESIAN_POINT('',(-0.0113399640010944,0.0114859429968168,0.0059));
#955=CARTESIAN_POINT('',(-0.002028854191334,0.0204404952155679,0.0059));
#956=CARTESIAN_POINT('',(-0.00753346564422896,0.0283607388289492,0.0059));
#957=CARTESIAN_POINT('',(-0.00365520108314503,0.0329117419950854,0.0059));
#958=CARTESIAN_POINT('',(-0.00194627279415727,0.0339234434068203,0.0059));
#959=CARTESIAN_POINT('',(0.00711173109359972,-0.00157224222554488,0.0059));
#960=CARTESIAN_POINT('',(-0.00875894036594967,-0.00157224222554489,0.0059));
#961=CARTESIAN_POINT('',(-0.000509067991594666,-0.00157224222554488,0.0059));
#962=CARTESIAN_POINT('',(0.0071117310609581,-0.00157224227014747,0.0059));
#963=CARTESIAN_POINT('',(0.0071117310609581,-0.00157224227014747,0.005));
#964=CARTESIAN_POINT('',(0.00616646026032934,-0.00286527649870691,0.0059));
#965=CARTESIAN_POINT('',(0.00616646026032934,-0.00286527649870691,0.005));
#966=CARTESIAN_POINT('',(0.00395707372400654,-0.00577214737744643,0.0059));
#967=CARTESIAN_POINT('',(0.00395707372400654,-0.00577214737744643,0.005));
#968=CARTESIAN_POINT('',(-0.000166660762678677,-0.00807000918502261,0.0059));
#969=CARTESIAN_POINT('',(-0.000166660762678677,-0.00807000918502261,0.005));
#970=CARTESIAN_POINT('',(-0.00489651671579682,-0.00560960739103245,0.0059));
#971=CARTESIAN_POINT('',(-0.00489651671579682,-0.00560960739103245,0.005));
#972=CARTESIAN_POINT('',(-0.00766270040943711,-0.00280668203977497,0.0059));
#973=CARTESIAN_POINT('',(-0.00766270040943711,-0.00280668203977497,0.005));
#974=CARTESIAN_POINT('',(-0.008758940365953,-0.00157224222554114,0.0059));
#975=CARTESIAN_POINT('',(-0.008758940365953,-0.00157224222554114,0.005));
#976=CARTESIAN_POINT('',(0.00711173109356522,-0.00157224222554424,0.0059));
#977=CARTESIAN_POINT('',(-0.00875894036594967,-0.00157224222554489,0.0059));
#978=CARTESIAN_POINT('',(0.00220755843872661,0.0229216100035156,0.0059));
#979=CARTESIAN_POINT('',(0.00220755843872661,0.0229216100035156,0.005));
#980=CARTESIAN_POINT('',(0.00208350011195854,0.0224264100675863,0.0059));
#981=CARTESIAN_POINT('',(0.00208350011195854,0.0224264100675863,0.005));
#982=CARTESIAN_POINT('',(0.00193185116495258,0.0214290715056941,0.0059));
#983=CARTESIAN_POINT('',(0.00193185116495258,0.0214290715056941,0.005));
#984=CARTESIAN_POINT('',(0.00225101474396176,0.0198827716701197,0.0059));
#985=CARTESIAN_POINT('',(0.00225101474396176,0.0198827716701197,0.005));
#986=CARTESIAN_POINT('',(0.00307569069514375,0.0182861890297039,0.0059));
#987=CARTESIAN_POINT('',(0.00307569069514375,0.0182861890297039,0.005));
#988=CARTESIAN_POINT('',(0.0046210107630609,0.0161063841575788,0.0059));
#989=CARTESIAN_POINT('',(0.0046210107630609,0.0161063841575788,0.005));
#990=CARTESIAN_POINT('',(0.00705465882793411,0.0133137721513811,0.0059));
#991=CARTESIAN_POINT('',(0.00705465882793411,0.0133137721513811,0.005));
#992=CARTESIAN_POINT('',(0.00953974090150993,0.00991501039475458,0.0059));
#993=CARTESIAN_POINT('',(0.00953974090150993,0.00991501039475458,0.005));
#994=CARTESIAN_POINT('',(0.0106901206444585,0.00662224855941628,0.0059));
#995=CARTESIAN_POINT('',(0.0106901206444585,0.00662224855941628,0.005));
#996=CARTESIAN_POINT('',(0.0107911752182602,0.00383658441795286,0.0059));
#997=CARTESIAN_POINT('',(0.0107911752182602,0.00383658441795286,0.005));
#998=CARTESIAN_POINT('',(0.00997633218324023,0.00208179542788037,0.0059));
#999=CARTESIAN_POINT('',(0.00997633218324023,0.00208179542788037,0.005));
#1000=CARTESIAN_POINT('',(0.00890892849919342,0.000858470765386482,0.0059));
#1001=CARTESIAN_POINT('',(0.00890892849919342,0.000858470765386482,0.005));
#1002=CARTESIAN_POINT('',(0.00826244991909759,5.79285909890209E-11,0.0059));
#1003=CARTESIAN_POINT('',(0.00826244991909759,5.79285909890209E-11,0.005));
#1004=CARTESIAN_POINT('',(0.00826244987547398,-2.16840434497101E-19,0.0059));
#1005=CARTESIAN_POINT('',(0.00826244987547398,-2.16840434497101E-19,0.005));
#1006=CARTESIAN_POINT('',(0.00826244986078738,0.,0.0059));
#1007=CARTESIAN_POINT('',(-0.00194627279415727,0.0339234434068203,0.005));
#1008=CARTESIAN_POINT('',(-0.000722589913312619,0.0346478750322103,0.005));
#1009=CARTESIAN_POINT('',(0.00197099040232519,0.0349242842497955,0.005));
#1010=CARTESIAN_POINT('',(0.00543855717178746,0.0277666516925171,0.005));
#1011=CARTESIAN_POINT('',(-0.000773199134270972,0.020506007273237,0.005));
#1012=CARTESIAN_POINT('',(0.00994754451328416,0.0114818526138581,0.005));
#1013=CARTESIAN_POINT('',(0.0113122176645203,0.00332032432124898,0.005));
#1014=CARTESIAN_POINT('',(0.0081636096696711,0.000375837340814767,0.005));
#1015=CARTESIAN_POINT('',(0.000431116106656262,-0.0120675938832785,0.005));
#1016=CARTESIAN_POINT('',(-0.0104156085043326,0.000145512756097016,0.005));
#1017=CARTESIAN_POINT('',(-0.0120777068036514,0.00280299925906318,0.005));
#1018=CARTESIAN_POINT('',(-0.0113399640010944,0.0114859429968168,0.005));
#1019=CARTESIAN_POINT('',(-0.002028854191334,0.0204404952155679,0.005));
#1020=CARTESIAN_POINT('',(-0.00753346564422896,0.0283607388289492,0.005));
#1021=CARTESIAN_POINT('',(-0.00365520108314503,0.0329117419950854,0.005));
#1022=CARTESIAN_POINT('',(-0.00194627279415727,0.0339234434068203,0.005));
#1023=CARTESIAN_POINT('',(0.00220755843853161,0.0229216100027372,0.005));
#1024=CARTESIAN_POINT('',(0.00220755843853161,0.0229216100027372,0.0059));
#1025=CARTESIAN_POINT('',(0.00220755843983469,0.0229216100027372,0.0059));
#1026=CARTESIAN_POINT('',(-0.00194627279415727,0.0339234434068203,0.0059));
#1027=CARTESIAN_POINT('',(-0.000722589913312619,0.0346478750322103,0.0059));
#1028=CARTESIAN_POINT('',(0.00197099040232519,0.0349242842497955,0.0059));
#1029=CARTESIAN_POINT('',(0.00543855717178746,0.0277666516925171,0.0059));
#1030=CARTESIAN_POINT('',(-0.000773199134270972,0.020506007273237,0.0059));
#1031=CARTESIAN_POINT('',(0.00994754451328416,0.0114818526138581,0.0059));
#1032=CARTESIAN_POINT('',(0.0113122176645203,0.00332032432124898,0.0059));
#1033=CARTESIAN_POINT('',(0.0081636096696711,0.000375837340814767,0.0059));
#1034=CARTESIAN_POINT('',(0.000431116106656262,-0.0120675938832785,0.0059));
#1035=CARTESIAN_POINT('',(-0.0104156085043326,0.000145512756097016,0.0059));
#1036=CARTESIAN_POINT('',(-0.0120777068036514,0.00280299925906318,0.0059));
#1037=CARTESIAN_POINT('',(-0.0113399640010944,0.0114859429968168,0.0059));
#1038=CARTESIAN_POINT('',(-0.002028854191334,0.0204404952155679,0.0059));
#1039=CARTESIAN_POINT('',(-0.00753346564422896,0.0283607388289492,0.0059));
#1040=CARTESIAN_POINT('',(-0.00365520108314503,0.0329117419950854,0.0059));
#1041=CARTESIAN_POINT('',(-0.00194627279415727,0.0339234434068203,0.0059));
#1042=CARTESIAN_POINT('',(-0.00147952450470331,0.0131616345120123,0.005));
#1043=CARTESIAN_POINT('',(-0.00147952450470331,0.,0.005));
#1044=CARTESIAN_POINT('',(0.0117161191544734,0.,0.005));
#1045=CARTESIAN_POINT('',(0.0117161191544734,0.0131616345120123,0.005));
#1046=CARTESIAN_POINT('',(-2.16840434497101E-19,0.0379430316388607,0.005));
#1047=CARTESIAN_POINT('',(-0.00403318984419663,0.0383503099432635,0.005));
#1048=CARTESIAN_POINT('',(-0.0134346962339981,0.0284109363375582,0.005));
#1049=CARTESIAN_POINT('',(-0.00464151881670016,0.0182205503033064,0.005));
#1050=CARTESIAN_POINT('',(-0.0247270554354081,0.00868771652401505,0.005));
#1051=CARTESIAN_POINT('',(0.000964132671957213,-0.0236555876939087,0.005));
#1052=CARTESIAN_POINT('',(0.0203696665576811,0.010677933944407,0.005));
#1053=CARTESIAN_POINT('',(0.00125505417516041,0.0187071233056368,0.005));
#1054=CARTESIAN_POINT('',(0.00894526761224912,0.027483338936748,0.005));
#1055=CARTESIAN_POINT('',(0.00376699927166368,0.0375626337068721,0.005));
#1056=CARTESIAN_POINT('',(-2.16840434497101E-19,0.0379430316388607,0.005));
#1057=CARTESIAN_POINT('',(0.00518403933957934,0.0229216100027372,0.005));
#1058=CARTESIAN_POINT('',(-0.00147952450470331,0.0229216100027372,0.005));
#1059=CARTESIAN_POINT('',(-0.0143918364342544,-0.00157224223035306,0.005));
#1060=CARTESIAN_POINT('',(-0.0143918364342544,-0.00157224223035306,-8.67361737988404E-19));
#1061=CARTESIAN_POINT('',(-0.012944691182456,-0.00403054973454052,0.005));
#1062=CARTESIAN_POINT('',(-0.012944691182456,-0.00403054973454052,-8.67361737988404E-19));
#1063=CARTESIAN_POINT('',(-0.00998354859258587,-0.00753477475201523,0.005));
#1064=CARTESIAN_POINT('',(-0.00998354859258587,-0.00753477475201523,0.));
#1065=CARTESIAN_POINT('',(-0.00529654543388595,-0.0105831895414344,0.005));
#1066=CARTESIAN_POINT('',(-0.00529654543388595,-0.0105831895414344,-8.67361737988404E-19));
#1067=CARTESIAN_POINT('',(-0.00162056241647559,-0.0117622576879616,0.005));
#1068=CARTESIAN_POINT('',(-0.00162056241647559,-0.0117622576879616,0.));
#1069=CARTESIAN_POINT('',(0.00199932771019452,-0.0114541031804887,0.005));
#1070=CARTESIAN_POINT('',(0.00199932771019452,-0.0114541031804887,-2.60208521396521E-18));
#1071=CARTESIAN_POINT('',(0.00538768472788674,-0.00970876261987252,0.005));
#1072=CARTESIAN_POINT('',(0.00538768472788674,-0.00970876261987252,8.67361737988404E-19));
#1073=CARTESIAN_POINT('',(0.00840236415720113,-0.00692111816931414,0.005));
#1074=CARTESIAN_POINT('',(0.00840236415720113,-0.00692111816931414,-1.73472347597681E-18));
#1075=CARTESIAN_POINT('',(0.010893520649604,-0.00340955554744907,0.005));
#1076=CARTESIAN_POINT('',(0.010893520649604,-0.00340955554744907,0.));
#1077=CARTESIAN_POINT('',(0.0127144489932214,0.000487906683853135,0.005));
#1078=CARTESIAN_POINT('',(0.0127144489932214,0.000487906683853135,0.));
#1079=CARTESIAN_POINT('',(0.0137135842986747,0.00443528489109428,0.005));
#1080=CARTESIAN_POINT('',(0.0137135842986747,0.00443528489109428,-8.67361737988404E-19));
#1081=CARTESIAN_POINT('',(0.0137556602499436,0.00810808857052368,0.005));
#1082=CARTESIAN_POINT('',(0.0137556602499436,0.00810808857052368,-1.73472347597681E-18));
#1083=CARTESIAN_POINT('',(0.0126450759150792,0.0111338197710297,0.005));
#1084=CARTESIAN_POINT('',(0.0126450759150792,0.0111338197710297,-1.73472347597681E-18));
#1085=CARTESIAN_POINT('',(0.010751788669207,0.0135945719861891,0.005));
#1086=CARTESIAN_POINT('',(0.010751788669207,0.0135945719861891,0.));
#1087=CARTESIAN_POINT('',(0.0085476162648386,0.0156561832507808,0.005));
#1088=CARTESIAN_POINT('',(0.0085476162648386,0.0156561832507808,8.67361737988404E-19));
#1089=CARTESIAN_POINT('',(0.00648613682994411,0.0174633285910587,0.005));
#1090=CARTESIAN_POINT('',(0.00648613682994411,0.0174633285910587,-2.60208521396521E-18));
#1091=CARTESIAN_POINT('',(0.0049950935175723,0.0191640588208582,0.005));
#1092=CARTESIAN_POINT('',(0.0049950935175723,0.0191640588208582,-8.67361737988404E-19));
#1093=CARTESIAN_POINT('',(0.0046238090049983,0.0209140846122139,0.005));
#1094=CARTESIAN_POINT('',(0.0046238090049983,0.0209140846122139,-1.73472347597681E-18));
#1095=CARTESIAN_POINT('',(0.00526450706120262,0.0234359157441767,0.005));
#1096=CARTESIAN_POINT('',(0.00526450706120262,0.0234359157441767,1.73472347597681E-18));
#1097=CARTESIAN_POINT('',(0.0065418137260131,0.0263513552284469,0.005));
#1098=CARTESIAN_POINT('',(0.0065418137260131,0.0263513552284469,-2.60208521396521E-18));
#1099=CARTESIAN_POINT('',(0.00640947285770844,0.0300045581868102,0.005));
#1100=CARTESIAN_POINT('',(0.00640947285770844,0.0300045581868102,8.67361737988404E-19));
#1101=CARTESIAN_POINT('',(0.0055677077758955,0.0328504862646308,0.005));
#1102=CARTESIAN_POINT('',(0.0055677077758955,0.0328504862646308,-2.60208521396521E-18));
#1103=CARTESIAN_POINT('',(0.00413617976816352,0.0354054652452271,0.005));
#1104=CARTESIAN_POINT('',(0.00413617976816352,0.0354054652452271,2.60208521396521E-18));
#1105=CARTESIAN_POINT('',(0.00221947322913861,0.0373084476321543,0.005));
#1106=CARTESIAN_POINT('',(0.00221947322913861,0.0373084476321543,-8.67361737988404E-19));
#1107=CARTESIAN_POINT('',(-6.63303034367465E-5,0.0381821051342779,0.005));
#1108=CARTESIAN_POINT('',(-6.63303034367465E-5,0.0381821051342779,-1.73472347597681E-18));
#1109=CARTESIAN_POINT('',(-0.00260296244786244,0.0376783678651138,0.005));
#1110=CARTESIAN_POINT('',(-0.00260296244786244,0.0376783678651138,-8.67361737988404E-19));
#1111=CARTESIAN_POINT('',(-0.00512512084430968,0.0361364538641673,0.005));
#1112=CARTESIAN_POINT('',(-0.00512512084430968,0.0361364538641673,-1.73472347597681E-18));
#1113=CARTESIAN_POINT('',(-0.00812219185654149,0.0331180014183201,0.005));
#1114=CARTESIAN_POINT('',(-0.00812219185654149,0.0331180014183201,0.));
#1115=CARTESIAN_POINT('',(-0.010526903677588,0.0283469264654929,0.005));
#1116=CARTESIAN_POINT('',(-0.010526903677588,0.0283469264654929,8.67361737988404E-19));
#1117=CARTESIAN_POINT('',(-0.00963359996983172,0.0251746205572596,0.005));
#1118=CARTESIAN_POINT('',(-0.00963359996983172,0.0251746205572596,-1.73472347597681E-18));
#1119=CARTESIAN_POINT('',(-0.00919472902949424,0.0236962247455691,0.005));
#1120=CARTESIAN_POINT('',(-0.00919472902949424,0.0236962247455691,-1.73472347597681E-18));
#1121=CARTESIAN_POINT('',(-0.0143918364370848,-0.00157224222554487,0.005));
#1122=CARTESIAN_POINT('',(-0.0143918364260825,-0.00157224222554488,0.));
#1123=CARTESIAN_POINT('',(-2.16840434497101E-19,0.0379430316388607,0.));
#1124=CARTESIAN_POINT('',(-0.00403318984419663,0.0383503099432635,0.));
#1125=CARTESIAN_POINT('',(-0.0134346962339981,0.0284109363375582,0.));
#1126=CARTESIAN_POINT('',(-0.00464151881670016,0.0182205503033064,0.));
#1127=CARTESIAN_POINT('',(-0.0247270554354081,0.00868771652401505,0.));
#1128=CARTESIAN_POINT('',(0.000964132671957213,-0.0236555876939087,0.));
#1129=CARTESIAN_POINT('',(0.0203696665576811,0.010677933944407,0.));
#1130=CARTESIAN_POINT('',(0.00125505417516041,0.0187071233056368,0.));
#1131=CARTESIAN_POINT('',(0.00894526761224912,0.027483338936748,0.));
#1132=CARTESIAN_POINT('',(0.00376699927166368,0.0375626337068721,0.));
#1133=CARTESIAN_POINT('',(-2.16840434497101E-19,0.0379430316388607,0.));
#1134=CARTESIAN_POINT('',(-0.00919472903434109,0.0236962247618963,0.));
#1135=CARTESIAN_POINT('',(-0.00919472903434109,0.0236962247618963,0.01));
#1136=CARTESIAN_POINT('',(-0.00919472903434109,0.0236962247618963,0.005));
#1137=CARTESIAN_POINT('',(-2.16840434497101E-19,0.0379430316388607,0.005));
#1138=CARTESIAN_POINT('',(-0.00403318984419663,0.0383503099432635,0.005));
#1139=CARTESIAN_POINT('',(-0.0134346962339981,0.0284109363375582,0.005));
#1140=CARTESIAN_POINT('',(-0.00464151881670016,0.0182205503033064,0.005));
#1141=CARTESIAN_POINT('',(-0.0247270554354081,0.00868771652401505,0.005));
#1142=CARTESIAN_POINT('',(0.000964132671957213,-0.0236555876939087,0.005));
#1143=CARTESIAN_POINT('',(0.0203696665576811,0.010677933944407,0.005));
#1144=CARTESIAN_POINT('',(0.00125505417516041,0.0187071233056368,0.005));
#1145=CARTESIAN_POINT('',(0.00894526761224912,0.027483338936748,0.005));
#1146=CARTESIAN_POINT('',(0.00376699927166368,0.0375626337068721,0.005));
#1147=CARTESIAN_POINT('',(-2.16840434497101E-19,0.0379430316388607,0.005));
#1148=CARTESIAN_POINT('',(-0.000509067991594666,0.0136064865696844,0.0059));
#1149=CARTESIAN_POINT('',(-0.000509067991594666,0.,0.0059));
#1150=CARTESIAN_POINT('',(-0.0100889438763261,0.,0.0059));
#1151=CARTESIAN_POINT('',(-0.000509067991594666,0.0229216100027372,0.0059));
#1152=CARTESIAN_POINT('',(-0.00459288139713902,0.0229216100027372,0.0059));
#1153=CARTESIAN_POINT('',(-0.00194627279415727,0.0339234434068203,0.0059));
#1154=CARTESIAN_POINT('',(-0.000722589913312619,0.0346478750322103,0.0059));
#1155=CARTESIAN_POINT('',(0.00197099040232519,0.0349242842497955,0.0059));
#1156=CARTESIAN_POINT('',(0.00543855717178746,0.0277666516925171,0.0059));
#1157=CARTESIAN_POINT('',(-0.000773199134270972,0.020506007273237,0.0059));
#1158=CARTESIAN_POINT('',(0.00994754451328416,0.0114818526138581,0.0059));
#1159=CARTESIAN_POINT('',(0.0113122176645203,0.00332032432124898,0.0059));
#1160=CARTESIAN_POINT('',(0.0081636096696711,0.000375837340814767,0.0059));
#1161=CARTESIAN_POINT('',(0.000431116106656262,-0.0120675938832785,0.0059));
#1162=CARTESIAN_POINT('',(-0.0104156085043326,0.000145512756097016,0.0059));
#1163=CARTESIAN_POINT('',(-0.0120777068036514,0.00280299925906318,0.0059));
#1164=CARTESIAN_POINT('',(-0.0113399640010944,0.0114859429968168,0.0059));
#1165=CARTESIAN_POINT('',(-0.002028854191334,0.0204404952155679,0.0059));
#1166=CARTESIAN_POINT('',(-0.00753346564422896,0.0283607388289492,0.0059));
#1167=CARTESIAN_POINT('',(-0.00365520108314503,0.0329117419950854,0.0059));
#1168=CARTESIAN_POINT('',(-0.00194627279415727,0.0339234434068203,0.0059));
#1169=CARTESIAN_POINT('',(0.00110924802720547,0.0128621980547905,0.0059));
#1170=CARTESIAN_POINT('',(0.00154128793176949,0.0130850525932434,0.0059));
#1171=CARTESIAN_POINT('',(0.00376901883043164,0.0120549573321269,0.0059));
#1172=CARTESIAN_POINT('',(0.00365984342516398,0.00666297786592478,0.0059));
#1173=CARTESIAN_POINT('',(0.000932600523397537,0.0108917219149255,0.0059));
#1174=CARTESIAN_POINT('',(0.00071958903053939,0.0126612044082807,0.0059));
#1175=CARTESIAN_POINT('',(0.00110924802720547,0.0128621980547905,0.0059));
#1176=CARTESIAN_POINT('',(0.00110924802720547,0.0128621980547905,0.0059));
#1177=CARTESIAN_POINT('',(-0.00117680057883263,0.0118230856023729,0.0059));
#1178=CARTESIAN_POINT('',(-0.00121836503967643,0.0104514565318823,0.0059));
#1179=CARTESIAN_POINT('',(-0.00113523611798882,0.0131947146728635,0.0059));
#1180=CARTESIAN_POINT('',(-0.00113523611798882,0.0131947146728635,0.0059));
#1181=CARTESIAN_POINT('',(-0.00222810940581453,0.0129610420645383,0.0059));
#1182=CARTESIAN_POINT('',(-0.00436712531356283,0.0125036885616385,0.0059));
#1183=CARTESIAN_POINT('',(-0.00450060888775464,0.00768032954921125,0.0059));
#1184=CARTESIAN_POINT('',(-0.00233051620791958,0.00951249152691101,0.0059));
#1185=CARTESIAN_POINT('',(-0.00121836503967643,0.0104514565318823,0.0059));
#1186=CARTESIAN_POINT('',(-0.0100889438514458,-3.08002812845139E-11,0.0059));
#1187=CARTESIAN_POINT('',(-0.0100889438514458,-3.08002812845139E-11,0.005));
#1188=CARTESIAN_POINT('',(-0.010706762382163,0.000764820941623244,0.0059));
#1189=CARTESIAN_POINT('',(-0.010706762382163,0.000764820941623244,0.005));
#1190=CARTESIAN_POINT('',(-0.0112841142988269,0.00155217080235105,0.0059));
#1191=CARTESIAN_POINT('',(-0.0112841142988269,0.00155217080235105,0.005));
#1192=CARTESIAN_POINT('',(-0.011628388154492,0.0026429112464927,0.0059));
#1193=CARTESIAN_POINT('',(-0.011628388154492,0.0026429112464927,0.005));
#1194=CARTESIAN_POINT('',(-0.0117973311434802,0.00405589087838665,0.0059));
#1195=CARTESIAN_POINT('',(-0.0117973311434802,0.00405589087838665,0.005));
#1196=CARTESIAN_POINT('',(-0.0116783753925826,0.00648176634892553,0.0059));
#1197=CARTESIAN_POINT('',(-0.0116783753925826,0.00648176634892553,0.005));
#1198=CARTESIAN_POINT('',(-0.010766945588562,0.00991044446169335,0.0059));
#1199=CARTESIAN_POINT('',(-0.010766945588562,0.00991044446169335,0.005));
#1200=CARTESIAN_POINT('',(-0.00872295502575988,0.0133300512105493,0.0059));
#1201=CARTESIAN_POINT('',(-0.00872295502575988,0.0133300512105493,0.005));
#1202=CARTESIAN_POINT('',(-0.00628222749225031,0.0166336072491393,0.0059));
#1203=CARTESIAN_POINT('',(-0.00628222749225031,0.0166336072491393,0.005));
#1204=CARTESIAN_POINT('',(-0.00477270971784724,0.0193065155843889,0.0059));
#1205=CARTESIAN_POINT('',(-0.00477270971784724,0.0193065155843889,0.005));
#1206=CARTESIAN_POINT('',(-0.00438566129344678,0.0213900008497016,0.0059));
#1207=CARTESIAN_POINT('',(-0.00438566129344678,0.0213900008497016,0.005));
#1208=CARTESIAN_POINT('',(-0.00449845199622458,0.0224138252793017,0.0059));
#1209=CARTESIAN_POINT('',(-0.00449845199622458,0.0224138252793017,0.005));
#1210=CARTESIAN_POINT('',(-0.00459288139472893,0.0229216099897772,0.0059));
#1211=CARTESIAN_POINT('',(-0.00459288139472893,0.0229216099897772,0.005));
#1212=CARTESIAN_POINT('',(-0.0100889438763261,0.,0.0059));
#1213=CARTESIAN_POINT('',(-0.00459288139713902,0.0229216100027372,0.0059));
#1214=CARTESIAN_POINT('',(-0.00147952450470331,0.0131616345120123,0.005));
#1215=CARTESIAN_POINT('',(-0.00147952450470331,0.0236962247618963,0.005));
#1216=CARTESIAN_POINT('',(-0.00476499862464463,0.0236962247618963,0.005));
#1217=CARTESIAN_POINT('',(-0.00194627279415727,0.0339234434068203,0.005));
#1218=CARTESIAN_POINT('',(-0.000722589913312619,0.0346478750322103,0.005));
#1219=CARTESIAN_POINT('',(0.00197099040232519,0.0349242842497955,0.005));
#1220=CARTESIAN_POINT('',(0.00543855717178746,0.0277666516925171,0.005));
#1221=CARTESIAN_POINT('',(-0.000773199134270972,0.020506007273237,0.005));
#1222=CARTESIAN_POINT('',(0.00994754451328416,0.0114818526138581,0.005));
#1223=CARTESIAN_POINT('',(0.0113122176645203,0.00332032432124898,0.005));
#1224=CARTESIAN_POINT('',(0.0081636096696711,0.000375837340814767,0.005));
#1225=CARTESIAN_POINT('',(0.000431116106656262,-0.0120675938832785,0.005));
#1226=CARTESIAN_POINT('',(-0.0104156085043326,0.000145512756097016,0.005));
#1227=CARTESIAN_POINT('',(-0.0120777068036514,0.00280299925906318,0.005));
#1228=CARTESIAN_POINT('',(-0.0113399640010944,0.0114859429968168,0.005));
#1229=CARTESIAN_POINT('',(-0.002028854191334,0.0204404952155679,0.005));
#1230=CARTESIAN_POINT('',(-0.00753346564422896,0.0283607388289492,0.005));
#1231=CARTESIAN_POINT('',(-0.00365520108314503,0.0329117419950854,0.005));
#1232=CARTESIAN_POINT('',(-0.00194627279415727,0.0339234434068203,0.005));
#1233=CARTESIAN_POINT('',(0.00243900182271264,0.0236962247618963,0.005));
#1234=CARTESIAN_POINT('',(-0.00147952450470331,0.0236962247618963,0.005));
#1235=CARTESIAN_POINT('',(0.00518403933957934,0.0236962247618963,0.005));
#1236=CARTESIAN_POINT('',(0.00518403933957934,0.0131616345120123,0.005));
#1237=CARTESIAN_POINT('',(-0.00147952450470331,0.0131616345120123,0.));
#1238=CARTESIAN_POINT('',(-0.00176025489774857,-0.00157224222554488,0.));
#1239=CARTESIAN_POINT('',(-0.0152366289499706,-0.00157224222554488,0.));
#1240=CARTESIAN_POINT('',(-0.0152366289499704,-0.000786121112772441,0.));
#1241=CARTESIAN_POINT('',(-0.00200534484738088,0.0229216100027372,0.));
#1242=CARTESIAN_POINT('',(-0.00919472903434109,0.0229216100027372,0.));
#1243=CARTESIAN_POINT('',(-0.00919472903434109,0.0233089173823167,0.));
#1244=CARTESIAN_POINT('',(-0.000509067991594666,0.0136064865696844,0.0059));
#1245=CARTESIAN_POINT('',(-0.000509067991594666,0.0236962247618963,0.0059));
#1246=CARTESIAN_POINT('',(0.00243900181719146,0.0236962247618963,0.0059));
#1247=CARTESIAN_POINT('',(-0.00476499862464463,0.0236962247618963,0.0059));
#1248=CARTESIAN_POINT('',(-0.00194627279415727,0.0339234434068203,0.0059));
#1249=CARTESIAN_POINT('',(-0.000722589913312619,0.0346478750322103,0.0059));
#1250=CARTESIAN_POINT('',(0.00197099040232519,0.0349242842497955,0.0059));
#1251=CARTESIAN_POINT('',(0.00543855717178746,0.0277666516925171,0.0059));
#1252=CARTESIAN_POINT('',(-0.000773199134270972,0.020506007273237,0.0059));
#1253=CARTESIAN_POINT('',(0.00994754451328416,0.0114818526138581,0.0059));
#1254=CARTESIAN_POINT('',(0.0113122176645203,0.00332032432124898,0.0059));
#1255=CARTESIAN_POINT('',(0.0081636096696711,0.000375837340814767,0.0059));
#1256=CARTESIAN_POINT('',(0.000431116106656262,-0.0120675938832785,0.0059));
#1257=CARTESIAN_POINT('',(-0.0104156085043326,0.000145512756097016,0.0059));
#1258=CARTESIAN_POINT('',(-0.0120777068036514,0.00280299925906318,0.0059));
#1259=CARTESIAN_POINT('',(-0.0113399640010944,0.0114859429968168,0.0059));
#1260=CARTESIAN_POINT('',(-0.002028854191334,0.0204404952155679,0.0059));
#1261=CARTESIAN_POINT('',(-0.00753346564422896,0.0283607388289492,0.0059));
#1262=CARTESIAN_POINT('',(-0.00365520108314503,0.0329117419950854,0.0059));
#1263=CARTESIAN_POINT('',(-0.00194627279415727,0.0339234434068203,0.0059));
#1264=CARTESIAN_POINT('',(-0.00476499862464442,0.0236962247618955,0.0059));
#1265=CARTESIAN_POINT('',(-0.00476499862464442,0.0236962247618955,0.005));
#1266=CARTESIAN_POINT('',(-0.00491616533833392,0.0242929720194361,0.0059));
#1267=CARTESIAN_POINT('',(-0.00491616533833392,0.0242929720194361,0.005));
#1268=CARTESIAN_POINT('',(-0.00528609295014248,0.02547557462018,0.0059));
#1269=CARTESIAN_POINT('',(-0.00528609295014248,0.02547557462018,0.005));
#1270=CARTESIAN_POINT('',(-0.00574170579330046,0.0272177300619356,0.0059));
#1271=CARTESIAN_POINT('',(-0.00574170579330046,0.0272177300619356,0.005));
#1272=CARTESIAN_POINT('',(-0.00575516135881888,0.0289383203650173,0.0059));
#1273=CARTESIAN_POINT('',(-0.00575516135881888,0.0289383203650173,0.005));
#1274=CARTESIAN_POINT('',(-0.0049310714056002,0.031170849705503,0.0059));
#1275=CARTESIAN_POINT('',(-0.0049310714056002,0.031170849705503,0.005));
#1276=CARTESIAN_POINT('',(-0.00328531129912716,0.0330757695652614,0.0059));
#1277=CARTESIAN_POINT('',(-0.00328531129912716,0.0330757695652614,0.005));
#1278=CARTESIAN_POINT('',(-0.00152824846638533,0.0342217113310072,0.0059));
#1279=CARTESIAN_POINT('',(-0.00152824846638533,0.0342217113310072,0.005));
#1280=CARTESIAN_POINT('',(-0.000289159163053411,0.034603924193942,0.0059));
#1281=CARTESIAN_POINT('',(-0.000289159163053411,0.034603924193942,0.005));
#1282=CARTESIAN_POINT('',(0.000882886782296804,0.0344611602653407,0.0059));
#1283=CARTESIAN_POINT('',(0.000882886782296804,0.0344611602653407,0.005));
#1284=CARTESIAN_POINT('',(0.00236173548443374,0.0334535127845024,0.0059));
#1285=CARTESIAN_POINT('',(0.00236173548443374,0.0334535127845024,0.005));
#1286=CARTESIAN_POINT('',(0.00357520666824404,0.0313496183040203,0.0059));
#1287=CARTESIAN_POINT('',(0.00357520666824404,0.0313496183040203,0.005));
#1288=CARTESIAN_POINT('',(0.00400296613846173,0.028910995541505,0.0059));
#1289=CARTESIAN_POINT('',(0.00400296613846173,0.028910995541505,0.005));
#1290=CARTESIAN_POINT('',(0.00375964964930636,0.027114089162828,0.0059));
#1291=CARTESIAN_POINT('',(0.00375964964930636,0.027114089162828,0.005));
#1292=CARTESIAN_POINT('',(0.00310420638549367,0.0253955058663458,0.0059));
#1293=CARTESIAN_POINT('',(0.00310420638549367,0.0253955058663458,0.005));
#1294=CARTESIAN_POINT('',(0.00263233328909947,0.0242638070164042,0.0059));
#1295=CARTESIAN_POINT('',(0.00263233328909947,0.0242638070164042,0.005));
#1296=CARTESIAN_POINT('',(0.00243900182370419,0.0236962247648073,0.0059));
#1297=CARTESIAN_POINT('',(0.00243900182370419,0.0236962247648073,0.005));
#1298=CARTESIAN_POINT('',(0.00243900182271264,0.0236962247618963,0.0059));
#1299=CARTESIAN_POINT('',(-0.00476499862464463,0.0236962247618963,0.0059));
#1300=CARTESIAN_POINT('',(-0.000370508471084245,0.0107379768358181,0.006));
#1301=CARTESIAN_POINT('',(0.00110924802720547,0.0128621980547905,0.006));
#1302=CARTESIAN_POINT('',(0.00154128793176949,0.0130850525932434,0.006));
#1303=CARTESIAN_POINT('',(0.00376901883043164,0.0120549573321269,0.006));
#1304=CARTESIAN_POINT('',(0.00365984342516398,0.00666297786592478,0.006));
#1305=CARTESIAN_POINT('',(0.000932600523397537,0.0108917219149255,0.006));
#1306=CARTESIAN_POINT('',(0.00071958903053939,0.0126612044082807,0.006));
#1307=CARTESIAN_POINT('',(0.00110924802720547,0.0128621980547905,0.006));
#1308=CARTESIAN_POINT('',(0.00110924802720547,0.0128621980547905,0.006));
#1309=CARTESIAN_POINT('',(0.00110924802720547,0.0128621980547905,0.006));
#1310=CARTESIAN_POINT('',(0.00110924802720547,0.0128621980547905,0.0059));
#1311=CARTESIAN_POINT('',(0.00154128793176949,0.0130850525932434,0.006));
#1312=CARTESIAN_POINT('',(0.00154128793176949,0.0130850525932434,0.0059));
#1313=CARTESIAN_POINT('',(0.00376901883043164,0.0120549573321269,0.006));
#1314=CARTESIAN_POINT('',(0.00376901883043164,0.0120549573321269,0.0059));
#1315=CARTESIAN_POINT('',(0.00365984342516398,0.00666297786592478,0.006));
#1316=CARTESIAN_POINT('',(0.00365984342516398,0.00666297786592478,0.0059));
#1317=CARTESIAN_POINT('',(0.000932600523397537,0.0108917219149255,0.006));
#1318=CARTESIAN_POINT('',(0.000932600523397537,0.0108917219149255,0.0059));
#1319=CARTESIAN_POINT('',(0.00071958903053939,0.0126612044082807,0.006));
#1320=CARTESIAN_POINT('',(0.00071958903053939,0.0126612044082807,0.0059));
#1321=CARTESIAN_POINT('',(0.00110924802720547,0.0128621980547905,0.006));
#1322=CARTESIAN_POINT('',(0.00110924802720547,0.0128621980547905,0.0059));
#1323=CARTESIAN_POINT('',(-0.000370508471084245,0.0107379768358181,0.006));
#1324=CARTESIAN_POINT('',(-0.00117680057883263,0.0118230856023729,0.006));
#1325=CARTESIAN_POINT('',(-0.00121836503967643,0.0104514565318823,0.006));
#1326=CARTESIAN_POINT('',(-0.00113523611798882,0.0131947146728635,0.006));
#1327=CARTESIAN_POINT('',(-0.00113523611798882,0.0131947146728635,0.006));
#1328=CARTESIAN_POINT('',(-0.00222810940581453,0.0129610420645383,0.006));
#1329=CARTESIAN_POINT('',(-0.00436712531356283,0.0125036885616385,0.006));
#1330=CARTESIAN_POINT('',(-0.00450060888775464,0.00768032954921125,0.006));
#1331=CARTESIAN_POINT('',(-0.00233051620791958,0.00951249152691101,0.006));
#1332=CARTESIAN_POINT('',(-0.00121836503967643,0.0104514565318823,0.006));
#1333=CARTESIAN_POINT('',(-0.00113523611798882,0.0131947146728635,0.006));
#1334=CARTESIAN_POINT('',(-0.00113523611798882,0.0131947146728635,0.0059));
#1335=CARTESIAN_POINT('',(-0.00222810940581453,0.0129610420645383,0.006));
#1336=CARTESIAN_POINT('',(-0.00222810940581453,0.0129610420645383,0.0059));
#1337=CARTESIAN_POINT('',(-0.00436712531356283,0.0125036885616385,0.006));
#1338=CARTESIAN_POINT('',(-0.00436712531356283,0.0125036885616385,0.0059));
#1339=CARTESIAN_POINT('',(-0.00450060888775464,0.00768032954921125,0.006));
#1340=CARTESIAN_POINT('',(-0.00450060888775464,0.00768032954921125,0.0059));
#1341=CARTESIAN_POINT('',(-0.00233051620791958,0.00951249152691101,0.006));
#1342=CARTESIAN_POINT('',(-0.00233051620791958,0.00951249152691101,0.0059));
#1343=CARTESIAN_POINT('',(-0.00121836503967643,0.0104514565318823,0.006));
#1344=CARTESIAN_POINT('',(-0.00121836503967643,0.0104514565318823,0.0059));
#1345=CARTESIAN_POINT('',(-0.00113523611798882,0.0131947146728635,0.006));
#1346=CARTESIAN_POINT('',(-0.00121836503967643,0.0104514565318823,0.006));
#1347=CARTESIAN_POINT('',(-0.00117680057883263,0.0118230856023729,0.006));
#1348=CARTESIAN_POINT('',(-0.00200534484738088,0.0236962247618963,0.01));
#1349=CARTESIAN_POINT('',(0.00518403933957934,0.0236962247618963,0.01));
#1350=CARTESIAN_POINT('',(0.00518403933957934,0.0236962247618963,0.01));
#1351=CARTESIAN_POINT('',(-0.00919472903434109,0.0236962247618963,0.01));
#1352=CARTESIAN_POINT('',(-0.00919472903434109,0.0236962247618963,0.01));
#1353=CARTESIAN_POINT('',(-0.00200534484738088,0.0236962247618963,0.01));
#1354=CARTESIAN_POINT('',(-0.00919472903434109,0.0233089173823167,0.01));
#1355=CARTESIAN_POINT('',(-0.00919472903434109,0.0229216100027372,0.01));
#1356=CARTESIAN_POINT('',(-0.00919472903434109,0.0229216100027372,0.01));
#1357=CARTESIAN_POINT('',(-0.00919472903434109,0.0233089173823167,0.01));
#1358=CARTESIAN_POINT('',(-0.00200534484738088,0.0229216100027372,0.01));
#1359=CARTESIAN_POINT('',(0.00518403933957934,0.0229216100027372,0.01));
#1360=CARTESIAN_POINT('',(0.00518403933957934,0.0229216100027372,0.01));
#1361=CARTESIAN_POINT('',(-0.00200534484738088,0.0229216100027372,0.01));
#1362=CARTESIAN_POINT('',(0.00518403933957934,0.0233089173823167,0.01));
#1363=CARTESIAN_POINT('',(0.00518403933957934,0.0233089173823167,0.01));
#1364=CARTESIAN_POINT('',(-0.00200534484738088,0.0233089173823167,0.01));
#1365=CARTESIAN_POINT('',(-0.00176025489774851,0.,0.015));
#1366=CARTESIAN_POINT('',(0.0117161191544734,0.,0.015));
#1367=CARTESIAN_POINT('',(0.0117161191544734,0.,0.015));
#1368=CARTESIAN_POINT('',(-0.0152366289499704,0.,0.015));
#1369=CARTESIAN_POINT('',(-0.0152366289499704,0.,0.015));
#1370=CARTESIAN_POINT('',(-0.00176025489774851,0.,0.015));
#1371=CARTESIAN_POINT('',(-0.0152366289499704,-0.000786121112772441,0.015));
#1372=CARTESIAN_POINT('',(-0.0152366289499706,-0.00157224222554488,0.015));
#1373=CARTESIAN_POINT('',(-0.0152366289499706,-0.00157224222554488,0.015));
#1374=CARTESIAN_POINT('',(-0.0152366289499704,-0.000786121112772441,0.015));
#1375=CARTESIAN_POINT('',(-0.00176025489774857,-0.00157224222554488,0.015));
#1376=CARTESIAN_POINT('',(0.0117161191544734,-0.00157224222554488,0.015));
#1377=CARTESIAN_POINT('',(0.0117161191544734,-0.00157224222554488,0.015));
#1378=CARTESIAN_POINT('',(-0.00176025489774857,-0.00157224222554488,0.015));
#1379=CARTESIAN_POINT('',(0.0117161191544734,-0.000786121112772441,0.015));
#1380=CARTESIAN_POINT('',(0.0117161191544734,-0.000786121112772441,0.015));
#1381=CARTESIAN_POINT('',(-0.00176025489774858,-0.000786121112772441,0.015));
#1382=MECHANICAL_DESIGN_GEOMETRIC_PRESENTATION_REPRESENTATION('',(#530,
#471,#472,#473,#474,#475,#476,#477,#478,#479,#480,#481,#482,#483,#484,#485,
#486,#487,#488,#489,#490,#491,#492,#493,#494,#495,#496,#497,#498,#499),
#1383);
#1383=(
GEOMETRIC_REPRESENTATION_CONTEXT(3)
GLOBAL_UNCERTAINTY_ASSIGNED_CONTEXT((#1384))
GLOBAL_UNIT_ASSIGNED_CONTEXT((#1387,#1386,#1385))
REPRESENTATION_CONTEXT('Part 1','TOP_LEVEL_ASSEMBLY_PART')
);
#1384=UNCERTAINTY_MEASURE_WITH_UNIT(LENGTH_MEASURE(2.E-5),#1387,
'DISTANCE_ACCURACY_VALUE','Maximum Tolerance applied to model');
#1385=(
NAMED_UNIT(*)
SI_UNIT($,.STERADIAN.)
SOLID_ANGLE_UNIT()
);
#1386=(
NAMED_UNIT(*)
PLANE_ANGLE_UNIT()
SI_UNIT($,.RADIAN.)
);
#1387=(
LENGTH_UNIT()
NAMED_UNIT(*)
SI_UNIT($,.METRE.)
);
#1388=PRODUCT_DEFINITION_SHAPE('','',#1389);
#1389=PRODUCT_DEFINITION('','',#1391,#1390);
#1390=PRODUCT_DEFINITION_CONTEXT('',#1397,'design');
#1391=PRODUCT_DEFINITION_FORMATION_WITH_SPECIFIED_SOURCE('','',#1393,
 .NOT_KNOWN.);
#1392=PRODUCT_RELATED_PRODUCT_CATEGORY('','',(#1393));
#1393=PRODUCT('Part 1','Part 1','Part 1',(#1395));
#1394=PRODUCT_CATEGORY('','');
#1395=PRODUCT_CONTEXT('',#1397,'mechanical');
#1396=APPLICATION_PROTOCOL_DEFINITION('international standard',
'ap242_managed_model_based_3d_engineering',2020,#1397);
#1397=APPLICATION_CONTEXT('managed model based 3d engineering');
ENDSEC;
END-ISO-10303-21;
