ISO-10303-21;
HEADER;
/* Generated by software containing ST-Developer
 * from STEP Tools, Inc. (www.steptools.com) 
 */
/* OPTION: using custom renumber hook */

FILE_DESCRIPTION(
/* description */ ('STEP AP242 Edition 2',
'CAx-IF Rec.Pracs.---Representation and Presentation of Product Manufa
cturing Information (PMI)---4.0---2014-10-13',
'CAx-IF Rec.Pracs.---3D Tessellated Geometry---0.4---2014-09-14','2;1',
'CAx-IF Rec.Pracs.---User Defined Attributes---1.5---2016-08-15'),
/* implementation_level */ '2;1');

FILE_NAME(
/* name */ 'Part Studio 1',
/* time_stamp */ '2026-09-04T19:12:45Z',
/* author */ (''),
/* organization */ (''),
/* preprocessor_version */ 'ST-DEVELOPER v20',
/* originating_system */ 'ONSHAPE BY PTC INC, 1.220',
/* authorisation */ '  ');

FILE_SCHEMA (('AP242_MANAGED_MODEL_BASED_3D_ENGINEERING_MIM_LF { 1 0 10303 442 3 1 4 }'));
ENDSEC;

DATA;
#10=SHAPE_REPRESENTATION_RELATIONSHIP('','',#170,#11);
#11=ADVANCED_BREP_SHAPE_REPRESENTATION('',(#168),#238);
#12=ORIENTED_EDGE('',*,*,#40,.T.);
#13=ORIENTED_EDGE('',*,*,#41,.F.);
#14=ORIENTED_EDGE('',*,*,#42,.F.);
#15=ORIENTED_EDGE('',*,*,#43,.T.);
#16=ORIENTED_EDGE('',*,*,#44,.T.);
#17=ORIENTED_EDGE('',*,*,#45,.T.);
#18=ORIENTED_EDGE('',*,*,#41,.T.);
#19=ORIENTED_EDGE('',*,*,#46,.T.);
#20=ORIENTED_EDGE('',*,*,#47,.F.);
#21=ORIENTED_EDGE('',*,*,#48,.F.);
#22=ORIENTED_EDGE('',*,*,#49,.T.);
#23=ORIENTED_EDGE('',*,*,#50,.F.);
#24=ORIENTED_EDGE('',*,*,#51,.F.);
#25=ORIENTED_EDGE('',*,*,#47,.T.);
#26=ORIENTED_EDGE('',*,*,#52,.T.);
#27=ORIENTED_EDGE('',*,*,#43,.F.);
#28=ORIENTED_EDGE('',*,*,#53,.F.);
#29=ORIENTED_EDGE('',*,*,#50,.T.);
#30=ORIENTED_EDGE('',*,*,#42,.T.);
#31=ORIENTED_EDGE('',*,*,#48,.T.);
#32=ORIENTED_EDGE('',*,*,#51,.T.);
#33=ORIENTED_EDGE('',*,*,#53,.T.);
#34=ORIENTED_EDGE('',*,*,#40,.F.);
#35=ORIENTED_EDGE('',*,*,#45,.F.);
#36=ORIENTED_EDGE('',*,*,#44,.F.);
#37=ORIENTED_EDGE('',*,*,#52,.F.);
#38=ORIENTED_EDGE('',*,*,#49,.F.);
#39=ORIENTED_EDGE('',*,*,#46,.F.);
#40=EDGE_CURVE('',#54,#55,#64,.T.);
#41=EDGE_CURVE('',#56,#55,#65,.T.);
#42=EDGE_CURVE('',#57,#56,#66,.T.);
#43=EDGE_CURVE('',#57,#58,#67,.T.);
#44=EDGE_CURVE('',#58,#59,#68,.T.);
#45=EDGE_CURVE('',#59,#54,#69,.T.);
#46=EDGE_CURVE('',#55,#60,#70,.T.);
#47=EDGE_CURVE('',#61,#60,#71,.T.);
#48=EDGE_CURVE('',#56,#61,#72,.T.);
#49=EDGE_CURVE('',#60,#62,#73,.T.);
#50=EDGE_CURVE('',#63,#62,#74,.T.);
#51=EDGE_CURVE('',#61,#63,#75,.T.);
#52=EDGE_CURVE('',#62,#58,#76,.T.);
#53=EDGE_CURVE('',#63,#57,#77,.T.);
#54=VERTEX_POINT('',#209);
#55=VERTEX_POINT('',#210);
#56=VERTEX_POINT('',#212);
#57=VERTEX_POINT('',#214);
#58=VERTEX_POINT('',#216);
#59=VERTEX_POINT('',#218);
#60=VERTEX_POINT('',#222);
#61=VERTEX_POINT('',#224);
#62=VERTEX_POINT('',#228);
#63=VERTEX_POINT('',#230);
#64=LINE('',#208,#78);
#65=LINE('',#211,#79);
#66=LINE('',#213,#80);
#67=LINE('',#215,#81);
#68=LINE('',#217,#82);
#69=LINE('',#219,#83);
#70=LINE('',#221,#84);
#71=LINE('',#223,#85);
#72=LINE('',#225,#86);
#73=LINE('',#227,#87);
#74=LINE('',#229,#88);
#75=LINE('',#231,#89);
#76=LINE('',#233,#90);
#77=LINE('',#234,#91);
#78=VECTOR('',#182,1.);
#79=VECTOR('',#183,1.);
#80=VECTOR('',#184,1.);
#81=VECTOR('',#185,1.);
#82=VECTOR('',#186,1.);
#83=VECTOR('',#187,1.);
#84=VECTOR('',#190,1.);
#85=VECTOR('',#191,1.);
#86=VECTOR('',#192,1.);
#87=VECTOR('',#195,1.);
#88=VECTOR('',#196,1.);
#89=VECTOR('',#197,1.);
#90=VECTOR('',#200,1.);
#91=VECTOR('',#201,1.);
#92=EDGE_LOOP('',(#12,#13,#14,#15,#16,#17));
#93=EDGE_LOOP('',(#18,#19,#20,#21));
#94=EDGE_LOOP('',(#22,#23,#24,#25));
#95=EDGE_LOOP('',(#26,#27,#28,#29));
#96=EDGE_LOOP('',(#30,#31,#32,#33));
#97=EDGE_LOOP('',(#34,#35,#36,#37,#38,#39));
#98=FACE_BOUND('',#92,.T.);
#99=FACE_BOUND('',#93,.T.);
#100=FACE_BOUND('',#94,.T.);
#101=FACE_BOUND('',#95,.T.);
#102=FACE_BOUND('',#96,.T.);
#103=FACE_BOUND('',#97,.T.);
#104=PLANE('',#172);
#105=PLANE('',#173);
#106=PLANE('',#174);
#107=PLANE('',#175);
#108=PLANE('',#176);
#109=PLANE('',#177);
#110=OVER_RIDING_STYLED_ITEM('',(#125),#116,#123);
#111=OVER_RIDING_STYLED_ITEM('',(#126),#117,#123);
#112=OVER_RIDING_STYLED_ITEM('',(#127),#118,#123);
#113=OVER_RIDING_STYLED_ITEM('',(#128),#119,#123);
#114=OVER_RIDING_STYLED_ITEM('',(#129),#120,#123);
#115=OVER_RIDING_STYLED_ITEM('',(#130),#121,#123);
#116=ADVANCED_FACE('Face appearance 1',(#98),#104,.F.);
#117=ADVANCED_FACE('Face appearance 1',(#99),#105,.F.);
#118=ADVANCED_FACE('Face appearance 1',(#100),#106,.F.);
#119=ADVANCED_FACE('Face appearance 1',(#101),#107,.F.);
#120=ADVANCED_FACE('Face appearance 1',(#102),#108,.T.);
#121=ADVANCED_FACE('Face appearance 1',(#103),#109,.F.);
#122=CLOSED_SHELL('',(#116,#117,#118,#119,#120,#121));
#123=STYLED_ITEM('',(#124),#168);
#124=PRESENTATION_STYLE_ASSIGNMENT((#131));
#125=PRESENTATION_STYLE_ASSIGNMENT((#132));
#126=PRESENTATION_STYLE_ASSIGNMENT((#133));
#127=PRESENTATION_STYLE_ASSIGNMENT((#134));
#128=PRESENTATION_STYLE_ASSIGNMENT((#135));
#129=PRESENTATION_STYLE_ASSIGNMENT((#136));
#130=PRESENTATION_STYLE_ASSIGNMENT((#137));
#131=SURFACE_STYLE_USAGE(.BOTH.,#138);
#132=SURFACE_STYLE_USAGE(.BOTH.,#139);
#133=SURFACE_STYLE_USAGE(.BOTH.,#140);
#134=SURFACE_STYLE_USAGE(.BOTH.,#141);
#135=SURFACE_STYLE_USAGE(.BOTH.,#142);
#136=SURFACE_STYLE_USAGE(.BOTH.,#143);
#137=SURFACE_STYLE_USAGE(.BOTH.,#144);
#138=SURFACE_SIDE_STYLE('',(#145));
#139=SURFACE_SIDE_STYLE('',(#146));
#140=SURFACE_SIDE_STYLE('',(#147));
#141=SURFACE_SIDE_STYLE('',(#148));
#142=SURFACE_SIDE_STYLE('',(#149));
#143=SURFACE_SIDE_STYLE('',(#150));
#144=SURFACE_SIDE_STYLE('',(#151));
#145=SURFACE_STYLE_FILL_AREA(#152);
#146=SURFACE_STYLE_FILL_AREA(#153);
#147=SURFACE_STYLE_FILL_AREA(#154);
#148=SURFACE_STYLE_FILL_AREA(#155);
#149=SURFACE_STYLE_FILL_AREA(#156);
#150=SURFACE_STYLE_FILL_AREA(#157);
#151=SURFACE_STYLE_FILL_AREA(#158);
#152=FILL_AREA_STYLE('',(#159));
#153=FILL_AREA_STYLE('',(#160));
#154=FILL_AREA_STYLE('',(#161));
#155=FILL_AREA_STYLE('',(#162));
#156=FILL_AREA_STYLE('',(#163));
#157=FILL_AREA_STYLE('',(#164));
#158=FILL_AREA_STYLE('',(#165));
#159=FILL_AREA_STYLE_COLOUR('',#166);
#160=FILL_AREA_STYLE_COLOUR('',#167);
#161=FILL_AREA_STYLE_COLOUR('',#167);
#162=FILL_AREA_STYLE_COLOUR('',#167);
#163=FILL_AREA_STYLE_COLOUR('',#167);
#164=FILL_AREA_STYLE_COLOUR('',#167);
#165=FILL_AREA_STYLE_COLOUR('',#167);
#166=COLOUR_RGB('',0.615686274509804,0.811764705882353,0.929411764705882);
#167=COLOUR_RGB('',0.929411764705882,0.615686274509804,0.796078431372549);
#168=MANIFOLD_SOLID_BREP('Part 1',#122);
#169=SHAPE_DEFINITION_REPRESENTATION(#243,#170);
#170=SHAPE_REPRESENTATION('Part 1',(#171),#238);
#171=AXIS2_PLACEMENT_3D('',#206,#178,#179);
#172=AXIS2_PLACEMENT_3D('',#207,#180,#181);
#173=AXIS2_PLACEMENT_3D('',#220,#188,#189);
#174=AXIS2_PLACEMENT_3D('',#226,#193,#194);
#175=AXIS2_PLACEMENT_3D('',#232,#198,#199);
#176=AXIS2_PLACEMENT_3D('',#235,#202,#203);
#177=AXIS2_PLACEMENT_3D('',#236,#204,#205);
#178=DIRECTION('',(0.,0.,1.));
#179=DIRECTION('',(1.,0.,0.));
#180=DIRECTION('',(-0.00188569255105884,-0.999998222080221,0.));
#181=DIRECTION('',(0.999998222080221,-0.00188569255105884,0.));
#182=DIRECTION('',(-0.999998222080221,0.00188569255105884,0.));
#183=DIRECTION('',(0.,0.,-1.));
#184=DIRECTION('',(-0.999998222080221,0.00188569255105884,0.));
#185=DIRECTION('',(0.,0.,-1.));
#186=DIRECTION('',(-0.999998222080221,0.00188569255105884,0.));
#187=DIRECTION('',(-0.999998222080221,0.00188569255105884,0.));
#188=DIRECTION('',(1.,0.,0.));
#189=DIRECTION('',(0.,0.,-1.));
#190=DIRECTION('',(0.,-1.,0.));
#191=DIRECTION('',(0.,0.,-1.));
#192=DIRECTION('',(0.,-1.,0.));
#193=DIRECTION('',(0.,1.,0.));
#194=DIRECTION('',(0.,0.,1.));
#195=DIRECTION('',(1.,0.,0.));
#196=DIRECTION('',(0.,0.,-1.));
#197=DIRECTION('',(1.,0.,0.));
#198=DIRECTION('',(-1.,0.,0.));
#199=DIRECTION('',(0.,0.,1.));
#200=DIRECTION('',(0.,1.,0.));
#201=DIRECTION('',(0.,1.,0.));
#202=DIRECTION('',(0.,0.,1.));
#203=DIRECTION('',(1.,0.,0.));
#204=DIRECTION('',(0.,0.,1.));
#205=DIRECTION('',(1.,0.,0.));
#206=CARTESIAN_POINT('',(0.,0.,0.));
#207=CARTESIAN_POINT('',(0.000146552920341478,0.070039076115005,0.0025));
#208=CARTESIAN_POINT('',(0.000146552920341478,0.070039076115005,0.));
#209=CARTESIAN_POINT('',(-0.0673533226252742,0.07016636035382,0.));
#210=CARTESIAN_POINT('',(-0.0698533226252742,0.0701710745935791,0.));
#211=CARTESIAN_POINT('',(-0.0698533226252742,0.0701710745935791,0.0025));
#212=CARTESIAN_POINT('',(-0.0698533226252742,0.0701710745935791,0.0025));
#213=CARTESIAN_POINT('',(0.000146552920341478,0.070039076115005,0.0025));
#214=CARTESIAN_POINT('',(0.0701464284659571,0.0699070776364309,0.0025));
#215=CARTESIAN_POINT('',(0.0701464284659571,0.0699070776364309,0.0025));
#216=CARTESIAN_POINT('',(0.0701464284659571,0.0699070776364309,0.));
#217=CARTESIAN_POINT('',(0.000146552920341478,0.070039076115005,0.));
#218=CARTESIAN_POINT('',(0.0664536199063779,0.0699140411504048,0.));
#219=CARTESIAN_POINT('',(0.000146552920341478,0.070039076115005,0.));
#220=CARTESIAN_POINT('',(-0.069853322625274,0.000171074593579123,0.0025));
#221=CARTESIAN_POINT('',(-0.069853322625274,0.000171074593579123,0.));
#222=CARTESIAN_POINT('',(-0.069853322625274,-0.0698289254064209,0.));
#223=CARTESIAN_POINT('',(-0.069853322625274,-0.0698289254064209,0.0025));
#224=CARTESIAN_POINT('',(-0.069853322625274,-0.0698289254064209,0.0025));
#225=CARTESIAN_POINT('',(-0.069853322625274,0.000171074593579123,0.0025));
#226=CARTESIAN_POINT('',(0.000146552920341506,-0.0698289254064209,0.0025));
#227=CARTESIAN_POINT('',(0.000146552920341506,-0.0698289254064209,0.));
#228=CARTESIAN_POINT('',(0.070146428465957,-0.0698289254064209,0.));
#229=CARTESIAN_POINT('',(0.070146428465957,-0.0698289254064209,0.0025));
#230=CARTESIAN_POINT('',(0.070146428465957,-0.0698289254064209,0.0025));
#231=CARTESIAN_POINT('',(0.000146552920341506,-0.0698289254064209,0.0025));
#232=CARTESIAN_POINT('',(0.070146428465957,3.90761150050045E-5,0.0025));
#233=CARTESIAN_POINT('',(0.070146428465957,3.90761150050045E-5,0.));
#234=CARTESIAN_POINT('',(0.070146428465957,3.90761150050045E-5,0.0025));
#235=CARTESIAN_POINT('',(0.000146552920341478,0.000171074593579123,0.0025));
#236=CARTESIAN_POINT('',(0.000146552920341478,0.000171074593579123,0.));
#237=MECHANICAL_DESIGN_GEOMETRIC_PRESENTATION_REPRESENTATION('',(#123,#110,
#111,#112,#113,#114,#115),#238);
#238=(
GEOMETRIC_REPRESENTATION_CONTEXT(3)
GLOBAL_UNCERTAINTY_ASSIGNED_CONTEXT((#239))
GLOBAL_UNIT_ASSIGNED_CONTEXT((#242,#241,#240))
REPRESENTATION_CONTEXT('Part 1','TOP_LEVEL_ASSEMBLY_PART')
);
#239=UNCERTAINTY_MEASURE_WITH_UNIT(LENGTH_MEASURE(2.E-5),#242,
'DISTANCE_ACCURACY_VALUE','Maximum Tolerance applied to model');
#240=(
NAMED_UNIT(*)
SI_UNIT($,.STERADIAN.)
SOLID_ANGLE_UNIT()
);
#241=(
NAMED_UNIT(*)
PLANE_ANGLE_UNIT()
SI_UNIT($,.RADIAN.)
);
#242=(
LENGTH_UNIT()
NAMED_UNIT(*)
SI_UNIT($,.METRE.)
);
#243=PRODUCT_DEFINITION_SHAPE('','',#244);
#244=PRODUCT_DEFINITION('','',#246,#245);
#245=PRODUCT_DEFINITION_CONTEXT('',#252,'design');
#246=PRODUCT_DEFINITION_FORMATION_WITH_SPECIFIED_SOURCE('','',#248,
 .NOT_KNOWN.);
#247=PRODUCT_RELATED_PRODUCT_CATEGORY('','',(#248));
#248=PRODUCT('Part 1','Part 1','Part 1',(#250));
#249=PRODUCT_CATEGORY('','');
#250=PRODUCT_CONTEXT('',#252,'mechanical');
#251=APPLICATION_PROTOCOL_DEFINITION('international standard',
'ap242_managed_model_based_3d_engineering',2020,#252);
#252=APPLICATION_CONTEXT('managed model based 3d engineering');
ENDSEC;
END-ISO-10303-21;
