ISO-10303-21;
HEADER;
/* Generated by software containing ST-Developer
 * from STEP Tools, Inc. (www.steptools.com) 
 */
/* OPTION: using custom renumber hook */

FILE_DESCRIPTION(
/* description */ ('STEP AP242 Edition 2',
'CAx-IF Rec.Pracs.---Representation and Presentation of Product Manufa
cturing Information (PMI)---4.0---2014-10-13',
'CAx-IF Rec.Pracs.---3D Tessellated Geometry---0.4---2014-09-14','2;1',
'CAx-IF Rec.Pracs.---User Defined Attributes---1.5---2016-08-15'),
/* implementation_level */ '2;1');

FILE_NAME(
/* name */ 'Part Studio 4',
/* time_stamp */ '2026-09-04T19:13:23Z',
/* author */ (''),
/* organization */ (''),
/* preprocessor_version */ 'ST-DEVELOPER v20',
/* originating_system */ 'ONSHAPE BY PTC INC, 1.220',
/* authorisation */ '  ');

FILE_SCHEMA (('AP242_MANAGED_MODEL_BASED_3D_ENGINEERING_MIM_LF { 1 0 10303 442 3 1 4 }'));
ENDSEC;

DATA;
#10=CYLINDRICAL_SURFACE('',#718,0.0103811183182043);
#11=CYLINDRICAL_SURFACE('',#719,0.0103811183182043);
#12=CIRCLE('',#713,0.0103811183182043);
#13=CIRCLE('',#714,0.0103811183182043);
#14=CIRCLE('',#716,0.0103811183182043);
#15=CIRCLE('',#717,0.0103811183182043);
#16=SHAPE_REPRESENTATION_RELATIONSHIP('','',#693,#19);
#17=SHAPE_REPRESENTATION_RELATIONSHIP('','',#694,#20);
#18=SHAPE_REPRESENTATION_RELATIONSHIP('','',#695,#21);
#19=ADVANCED_BREP_SHAPE_REPRESENTATION('',(#687),#1089);
#20=ADVANCED_BREP_SHAPE_REPRESENTATION('',(#688),#1090);
#21=ADVANCED_BREP_SHAPE_REPRESENTATION('',(#689),#1091);
#22=PLANE('',#697);
#23=PLANE('',#698);
#24=PLANE('',#700);
#25=PLANE('',#701);
#26=PLANE('',#702);
#27=PLANE('',#703);
#28=PLANE('',#704);
#29=PLANE('',#706);
#30=PLANE('',#707);
#31=PLANE('',#708);
#32=PLANE('',#709);
#33=PLANE('',#710);
#34=PLANE('',#711);
#35=PLANE('',#712);
#36=PLANE('',#715);
#37=PLANE('',#720);
#38=PLANE('',#721);
#39=LINE('',#823,#74);
#40=LINE('',#829,#75);
#41=LINE('',#848,#76);
#42=LINE('',#851,#77);
#43=LINE('',#853,#78);
#44=LINE('',#855,#79);
#45=LINE('',#857,#80);
#46=LINE('',#859,#81);
#47=LINE('',#861,#82);
#48=LINE('',#863,#83);
#49=LINE('',#864,#84);
#50=LINE('',#882,#85);
#51=LINE('',#910,#86);
#52=LINE('',#916,#87);
#53=LINE('',#930,#88);
#54=LINE('',#936,#89);
#55=LINE('',#949,#90);
#56=LINE('',#978,#91);
#57=LINE('',#979,#92);
#58=LINE('',#981,#93);
#59=LINE('',#983,#94);
#60=LINE('',#985,#95);
#61=LINE('',#994,#96);
#62=LINE('',#995,#97);
#63=LINE('',#1004,#98);
#64=LINE('',#1006,#99);
#65=LINE('',#1008,#100);
#66=LINE('',#1010,#101);
#67=LINE('',#1012,#102);
#68=LINE('',#1014,#103);
#69=LINE('',#1016,#104);
#70=LINE('',#1018,#105);
#71=LINE('',#1021,#106);
#72=LINE('',#1023,#107);
#73=LINE('',#1025,#108);
#74=VECTOR('',#724,1.);
#75=VECTOR('',#725,1.);
#76=VECTOR('',#734,1.);
#77=VECTOR('',#735,1.);
#78=VECTOR('',#736,1.);
#79=VECTOR('',#737,1.);
#80=VECTOR('',#740,1.);
#81=VECTOR('',#741,1.);
#82=VECTOR('',#742,1.);
#83=VECTOR('',#745,1.);
#84=VECTOR('',#746,1.);
#85=VECTOR('',#755,1.);
#86=VECTOR('',#756,1.);
#87=VECTOR('',#757,1.);
#88=VECTOR('',#758,1.);
#89=VECTOR('',#759,1.);
#90=VECTOR('',#760,1.);
#91=VECTOR('',#763,1.);
#92=VECTOR('',#764,1.);
#93=VECTOR('',#767,1.);
#94=VECTOR('',#768,1.);
#95=VECTOR('',#769,1.);
#96=VECTOR('',#770,1.);
#97=VECTOR('',#771,1.);
#98=VECTOR('',#772,1.);
#99=VECTOR('',#775,1.);
#100=VECTOR('',#776,1.);
#101=VECTOR('',#777,1.);
#102=VECTOR('',#780,1.);
#103=VECTOR('',#781,1.);
#104=VECTOR('',#782,1.);
#105=VECTOR('',#785,1.);
#106=VECTOR('',#786,1.);
#107=VECTOR('',#787,1.);
#108=VECTOR('',#788,1.);
#109=ORIENTED_EDGE('',*,*,#227,.F.);
#110=ORIENTED_EDGE('',*,*,#228,.F.);
#111=ORIENTED_EDGE('',*,*,#229,.T.);
#112=ORIENTED_EDGE('',*,*,#230,.T.);
#113=ORIENTED_EDGE('',*,*,#231,.F.);
#114=ORIENTED_EDGE('',*,*,#230,.F.);
#115=ORIENTED_EDGE('',*,*,#232,.T.);
#116=ORIENTED_EDGE('',*,*,#228,.T.);
#117=ORIENTED_EDGE('',*,*,#229,.F.);
#118=ORIENTED_EDGE('',*,*,#232,.F.);
#119=ORIENTED_EDGE('',*,*,#227,.T.);
#120=ORIENTED_EDGE('',*,*,#231,.T.);
#121=ORIENTED_EDGE('',*,*,#233,.F.);
#122=ORIENTED_EDGE('',*,*,#234,.F.);
#123=ORIENTED_EDGE('',*,*,#235,.T.);
#124=ORIENTED_EDGE('',*,*,#236,.T.);
#125=ORIENTED_EDGE('',*,*,#237,.F.);
#126=ORIENTED_EDGE('',*,*,#238,.F.);
#127=ORIENTED_EDGE('',*,*,#239,.T.);
#128=ORIENTED_EDGE('',*,*,#234,.T.);
#129=ORIENTED_EDGE('',*,*,#240,.F.);
#130=ORIENTED_EDGE('',*,*,#236,.F.);
#131=ORIENTED_EDGE('',*,*,#241,.T.);
#132=ORIENTED_EDGE('',*,*,#238,.T.);
#133=ORIENTED_EDGE('',*,*,#235,.F.);
#134=ORIENTED_EDGE('',*,*,#239,.F.);
#135=ORIENTED_EDGE('',*,*,#241,.F.);
#136=ORIENTED_EDGE('',*,*,#233,.T.);
#137=ORIENTED_EDGE('',*,*,#240,.T.);
#138=ORIENTED_EDGE('',*,*,#237,.T.);
#139=ORIENTED_EDGE('',*,*,#242,.T.);
#140=ORIENTED_EDGE('',*,*,#243,.F.);
#141=ORIENTED_EDGE('',*,*,#244,.T.);
#142=ORIENTED_EDGE('',*,*,#245,.T.);
#143=ORIENTED_EDGE('',*,*,#246,.T.);
#144=ORIENTED_EDGE('',*,*,#247,.F.);
#145=ORIENTED_EDGE('',*,*,#248,.F.);
#146=ORIENTED_EDGE('',*,*,#249,.T.);
#147=ORIENTED_EDGE('',*,*,#250,.T.);
#148=ORIENTED_EDGE('',*,*,#251,.F.);
#149=ORIENTED_EDGE('',*,*,#252,.F.);
#150=ORIENTED_EDGE('',*,*,#253,.T.);
#151=ORIENTED_EDGE('',*,*,#254,.T.);
#152=ORIENTED_EDGE('',*,*,#255,.F.);
#153=ORIENTED_EDGE('',*,*,#256,.F.);
#154=ORIENTED_EDGE('',*,*,#257,.T.);
#155=ORIENTED_EDGE('',*,*,#252,.T.);
#156=ORIENTED_EDGE('',*,*,#258,.F.);
#157=ORIENTED_EDGE('',*,*,#250,.F.);
#158=ORIENTED_EDGE('',*,*,#259,.T.);
#159=ORIENTED_EDGE('',*,*,#256,.T.);
#160=ORIENTED_EDGE('',*,*,#260,.F.);
#161=ORIENTED_EDGE('',*,*,#261,.T.);
#162=ORIENTED_EDGE('',*,*,#262,.T.);
#163=ORIENTED_EDGE('',*,*,#253,.F.);
#164=ORIENTED_EDGE('',*,*,#257,.F.);
#165=ORIENTED_EDGE('',*,*,#259,.F.);
#166=ORIENTED_EDGE('',*,*,#249,.F.);
#167=ORIENTED_EDGE('',*,*,#263,.T.);
#168=ORIENTED_EDGE('',*,*,#251,.T.);
#169=ORIENTED_EDGE('',*,*,#264,.F.);
#170=ORIENTED_EDGE('',*,*,#265,.F.);
#171=ORIENTED_EDGE('',*,*,#266,.T.);
#172=ORIENTED_EDGE('',*,*,#247,.T.);
#173=ORIENTED_EDGE('',*,*,#258,.T.);
#174=ORIENTED_EDGE('',*,*,#255,.T.);
#175=ORIENTED_EDGE('',*,*,#267,.T.);
#176=ORIENTED_EDGE('',*,*,#260,.T.);
#177=ORIENTED_EDGE('',*,*,#268,.F.);
#178=ORIENTED_EDGE('',*,*,#243,.T.);
#179=ORIENTED_EDGE('',*,*,#261,.F.);
#180=ORIENTED_EDGE('',*,*,#267,.F.);
#181=ORIENTED_EDGE('',*,*,#245,.F.);
#182=ORIENTED_EDGE('',*,*,#269,.T.);
#183=ORIENTED_EDGE('',*,*,#270,.T.);
#184=ORIENTED_EDGE('',*,*,#271,.T.);
#185=ORIENTED_EDGE('',*,*,#272,.F.);
#186=ORIENTED_EDGE('',*,*,#248,.T.);
#187=ORIENTED_EDGE('',*,*,#266,.F.);
#188=ORIENTED_EDGE('',*,*,#273,.T.);
#189=ORIENTED_EDGE('',*,*,#274,.T.);
#190=ORIENTED_EDGE('',*,*,#275,.F.);
#191=ORIENTED_EDGE('',*,*,#264,.T.);
#192=ORIENTED_EDGE('',*,*,#254,.F.);
#193=ORIENTED_EDGE('',*,*,#276,.T.);
#194=ORIENTED_EDGE('',*,*,#277,.T.);
#195=ORIENTED_EDGE('',*,*,#278,.F.);
#196=ORIENTED_EDGE('',*,*,#279,.T.);
#197=ORIENTED_EDGE('',*,*,#275,.T.);
#198=ORIENTED_EDGE('',*,*,#280,.T.);
#199=ORIENTED_EDGE('',*,*,#276,.F.);
#200=ORIENTED_EDGE('',*,*,#281,.T.);
#201=ORIENTED_EDGE('',*,*,#270,.F.);
#202=ORIENTED_EDGE('',*,*,#265,.T.);
#203=ORIENTED_EDGE('',*,*,#278,.T.);
#204=ORIENTED_EDGE('',*,*,#282,.T.);
#205=ORIENTED_EDGE('',*,*,#273,.F.);
#206=ORIENTED_EDGE('',*,*,#262,.F.);
#207=ORIENTED_EDGE('',*,*,#269,.F.);
#208=ORIENTED_EDGE('',*,*,#244,.F.);
#209=ORIENTED_EDGE('',*,*,#268,.T.);
#210=ORIENTED_EDGE('',*,*,#263,.F.);
#211=ORIENTED_EDGE('',*,*,#272,.T.);
#212=ORIENTED_EDGE('',*,*,#283,.T.);
#213=ORIENTED_EDGE('',*,*,#280,.F.);
#214=ORIENTED_EDGE('',*,*,#274,.F.);
#215=ORIENTED_EDGE('',*,*,#282,.F.);
#216=ORIENTED_EDGE('',*,*,#277,.F.);
#217=ORIENTED_EDGE('',*,*,#281,.F.);
#218=ORIENTED_EDGE('',*,*,#279,.F.);
#219=ORIENTED_EDGE('',*,*,#283,.F.);
#220=ORIENTED_EDGE('',*,*,#271,.F.);
#221=ORIENTED_EDGE('',*,*,#284,.T.);
#222=ORIENTED_EDGE('',*,*,#242,.F.);
#223=ORIENTED_EDGE('',*,*,#284,.F.);
#224=ORIENTED_EDGE('',*,*,#285,.T.);
#225=ORIENTED_EDGE('',*,*,#246,.F.);
#226=ORIENTED_EDGE('',*,*,#285,.F.);
#227=EDGE_CURVE('',#286,#287,#326,.T.);
#228=EDGE_CURVE('',#288,#286,#39,.T.);
#229=EDGE_CURVE('',#288,#289,#327,.T.);
#230=EDGE_CURVE('',#289,#287,#40,.T.);
#231=EDGE_CURVE('',#287,#286,#328,.T.);
#232=EDGE_CURVE('',#289,#288,#329,.T.);
#233=EDGE_CURVE('',#290,#291,#41,.T.);
#234=EDGE_CURVE('',#292,#290,#42,.T.);
#235=EDGE_CURVE('',#292,#293,#43,.T.);
#236=EDGE_CURVE('',#293,#291,#44,.T.);
#237=EDGE_CURVE('',#294,#290,#45,.T.);
#238=EDGE_CURVE('',#295,#294,#46,.T.);
#239=EDGE_CURVE('',#295,#292,#47,.T.);
#240=EDGE_CURVE('',#291,#294,#48,.T.);
#241=EDGE_CURVE('',#293,#295,#49,.T.);
#242=EDGE_CURVE('',#296,#296,#330,.T.);
#243=EDGE_CURVE('',#297,#298,#331,.T.);
#244=EDGE_CURVE('',#297,#299,#50,.T.);
#245=EDGE_CURVE('',#299,#298,#332,.T.);
#246=EDGE_CURVE('',#300,#300,#333,.T.);
#247=EDGE_CURVE('',#301,#302,#334,.T.);
#248=EDGE_CURVE('',#303,#301,#51,.T.);
#249=EDGE_CURVE('',#303,#304,#335,.T.);
#250=EDGE_CURVE('',#304,#302,#52,.T.);
#251=EDGE_CURVE('',#305,#306,#336,.T.);
#252=EDGE_CURVE('',#307,#305,#53,.T.);
#253=EDGE_CURVE('',#307,#308,#337,.T.);
#254=EDGE_CURVE('',#308,#306,#54,.T.);
#255=EDGE_CURVE('',#309,#305,#338,.T.);
#256=EDGE_CURVE('',#310,#309,#55,.T.);
#257=EDGE_CURVE('',#310,#307,#339,.T.);
#258=EDGE_CURVE('',#302,#309,#340,.T.);
#259=EDGE_CURVE('',#304,#310,#341,.T.);
#260=EDGE_CURVE('',#311,#312,#342,.F.);
#261=EDGE_CURVE('',#311,#313,#343,.F.);
#262=EDGE_CURVE('',#313,#308,#56,.T.);
#263=EDGE_CURVE('',#303,#312,#57,.T.);
#264=EDGE_CURVE('',#314,#306,#58,.T.);
#265=EDGE_CURVE('',#315,#314,#59,.T.);
#266=EDGE_CURVE('',#315,#301,#60,.T.);
#267=EDGE_CURVE('',#298,#311,#61,.T.);
#268=EDGE_CURVE('',#297,#312,#62,.T.);
#269=EDGE_CURVE('',#299,#313,#63,.T.);
#270=EDGE_CURVE('',#315,#316,#64,.T.);
#271=EDGE_CURVE('',#316,#317,#65,.T.);
#272=EDGE_CURVE('',#303,#317,#66,.T.);
#273=EDGE_CURVE('',#308,#318,#67,.T.);
#274=EDGE_CURVE('',#318,#319,#68,.F.);
#275=EDGE_CURVE('',#314,#319,#69,.T.);
#276=EDGE_CURVE('',#320,#321,#70,.T.);
#277=EDGE_CURVE('',#321,#322,#71,.T.);
#278=EDGE_CURVE('',#323,#322,#72,.T.);
#279=EDGE_CURVE('',#323,#320,#73,.F.);
#280=EDGE_CURVE('',#319,#321,#12,.T.);
#281=EDGE_CURVE('',#320,#316,#13,.T.);
#282=EDGE_CURVE('',#322,#318,#14,.F.);
#283=EDGE_CURVE('',#317,#323,#15,.F.);
#284=EDGE_CURVE('',#324,#324,#344,.T.);
#285=EDGE_CURVE('',#325,#325,#345,.T.);
#286=VERTEX_POINT('',#821);
#287=VERTEX_POINT('',#822);
#288=VERTEX_POINT('',#824);
#289=VERTEX_POINT('',#828);
#290=VERTEX_POINT('',#849);
#291=VERTEX_POINT('',#850);
#292=VERTEX_POINT('',#852);
#293=VERTEX_POINT('',#854);
#294=VERTEX_POINT('',#858);
#295=VERTEX_POINT('',#860);
#296=VERTEX_POINT('',#876);
#297=VERTEX_POINT('',#880);
#298=VERTEX_POINT('',#881);
#299=VERTEX_POINT('',#883);
#300=VERTEX_POINT('',#896);
#301=VERTEX_POINT('',#908);
#302=VERTEX_POINT('',#909);
#303=VERTEX_POINT('',#911);
#304=VERTEX_POINT('',#915);
#305=VERTEX_POINT('',#928);
#306=VERTEX_POINT('',#929);
#307=VERTEX_POINT('',#931);
#308=VERTEX_POINT('',#935);
#309=VERTEX_POINT('',#948);
#310=VERTEX_POINT('',#950);
#311=VERTEX_POINT('',#972);
#312=VERTEX_POINT('',#973);
#313=VERTEX_POINT('',#977);
#314=VERTEX_POINT('',#982);
#315=VERTEX_POINT('',#984);
#316=VERTEX_POINT('',#1007);
#317=VERTEX_POINT('',#1009);
#318=VERTEX_POINT('',#1013);
#319=VERTEX_POINT('',#1015);
#320=VERTEX_POINT('',#1019);
#321=VERTEX_POINT('',#1020);
#322=VERTEX_POINT('',#1022);
#323=VERTEX_POINT('',#1024);
#324=VERTEX_POINT('',#1055);
#325=VERTEX_POINT('',#1084);
#326=B_SPLINE_CURVE_WITH_KNOTS('',2,(#818,#819,#820),.UNSPECIFIED.,.F.,
 .F.,(3,3),(0.,1.),.PIECEWISE_BEZIER_KNOTS.);
#327=B_SPLINE_CURVE_WITH_KNOTS('',2,(#825,#826,#827),.UNSPECIFIED.,.F.,
 .F.,(3,3),(0.,1.),.PIECEWISE_BEZIER_KNOTS.);
#328=B_SPLINE_CURVE_WITH_KNOTS('',2,(#838,#839,#840),.UNSPECIFIED.,.F.,
 .F.,(3,3),(0.,1.),.PIECEWISE_BEZIER_KNOTS.);
#329=B_SPLINE_CURVE_WITH_KNOTS('',2,(#841,#842,#843),.UNSPECIFIED.,.F.,
 .F.,(3,3),(0.,1.),.PIECEWISE_BEZIER_KNOTS.);
#330=B_SPLINE_CURVE_WITH_KNOTS('',3,(#869,#870,#871,#872,#873,#874,#875),
 .UNSPECIFIED.,.T.,.F.,(1,3,1,1,1,3,1),(-0.24248057534376,0.,0.245272682748659,
0.515844086680522,0.75751942465624,1.,1.24527268274866),.UNSPECIFIED.);
#331=B_SPLINE_CURVE_WITH_KNOTS('',2,(#877,#878,#879),.UNSPECIFIED.,.F.,
 .F.,(3,3),(0.,1.),.PIECEWISE_BEZIER_KNOTS.);
#332=B_SPLINE_CURVE_WITH_KNOTS('',2,(#884,#885,#886),.UNSPECIFIED.,.F.,
 .F.,(3,3),(0.,1.),.PIECEWISE_BEZIER_KNOTS.);
#333=B_SPLINE_CURVE_WITH_KNOTS('',3,(#887,#888,#889,#890,#891,#892,#893,
#894,#895),.UNSPECIFIED.,.T.,.F.,(1,3,1,1,1,1,1,3,1),(-0.118074145921786,
0.,0.181055538284359,0.314779663610312,0.488808545398405,0.692772016029358,
0.881925854078214,1.,1.18105553828436),.UNSPECIFIED.);
#334=B_SPLINE_CURVE_WITH_KNOTS('',2,(#905,#906,#907),.UNSPECIFIED.,.F.,
 .F.,(3,3),(0.,1.),.PIECEWISE_BEZIER_KNOTS.);
#335=B_SPLINE_CURVE_WITH_KNOTS('',2,(#912,#913,#914),.UNSPECIFIED.,.F.,
 .F.,(3,3),(0.,1.),.PIECEWISE_BEZIER_KNOTS.);
#336=B_SPLINE_CURVE_WITH_KNOTS('',2,(#925,#926,#927),.UNSPECIFIED.,.F.,
 .F.,(3,3),(0.,1.),.PIECEWISE_BEZIER_KNOTS.);
#337=B_SPLINE_CURVE_WITH_KNOTS('',2,(#932,#933,#934),.UNSPECIFIED.,.F.,
 .F.,(3,3),(0.,1.),.PIECEWISE_BEZIER_KNOTS.);
#338=B_SPLINE_CURVE_WITH_KNOTS('',2,(#945,#946,#947),.UNSPECIFIED.,.F.,
 .F.,(3,3),(0.,1.),.PIECEWISE_BEZIER_KNOTS.);
#339=B_SPLINE_CURVE_WITH_KNOTS('',2,(#951,#952,#953),.UNSPECIFIED.,.F.,
 .F.,(3,3),(0.,1.),.PIECEWISE_BEZIER_KNOTS.);
#340=B_SPLINE_CURVE_WITH_KNOTS('',2,(#962,#963,#964),.UNSPECIFIED.,.F.,
 .F.,(3,3),(0.,1.),.PIECEWISE_BEZIER_KNOTS.);
#341=B_SPLINE_CURVE_WITH_KNOTS('',2,(#965,#966,#967),.UNSPECIFIED.,.F.,
 .F.,(3,3),(0.,1.),.PIECEWISE_BEZIER_KNOTS.);
#342=B_SPLINE_CURVE_WITH_KNOTS('',2,(#969,#970,#971),.UNSPECIFIED.,.F.,
 .F.,(3,3),(0.,1.),.PIECEWISE_BEZIER_KNOTS.);
#343=B_SPLINE_CURVE_WITH_KNOTS('',2,(#974,#975,#976),.UNSPECIFIED.,.F.,
 .F.,(3,3),(0.,1.),.PIECEWISE_BEZIER_KNOTS.);
#344=B_SPLINE_CURVE_WITH_KNOTS('',3,(#1048,#1049,#1050,#1051,#1052,#1053,
#1054),.UNSPECIFIED.,.T.,.F.,(1,3,1,1,1,3,1),(-0.24248057534376,0.,0.245272682748659,
0.515844086680522,0.75751942465624,1.,1.24527268274866),.UNSPECIFIED.);
#345=B_SPLINE_CURVE_WITH_KNOTS('',3,(#1075,#1076,#1077,#1078,#1079,#1080,
#1081,#1082,#1083),.UNSPECIFIED.,.T.,.F.,(1,3,1,1,1,1,1,3,1),(-0.118074145921786,
0.,0.181055538284359,0.314779663610312,0.488808545398405,0.692772016029358,
0.881925854078214,1.,1.18105553828436),.UNSPECIFIED.);
#346=EDGE_LOOP('',(#109,#110,#111,#112));
#347=EDGE_LOOP('',(#113,#114,#115,#116));
#348=EDGE_LOOP('',(#117,#118));
#349=EDGE_LOOP('',(#119,#120));
#350=EDGE_LOOP('',(#121,#122,#123,#124));
#351=EDGE_LOOP('',(#125,#126,#127,#128));
#352=EDGE_LOOP('',(#129,#130,#131,#132));
#353=EDGE_LOOP('',(#133,#134,#135));
#354=EDGE_LOOP('',(#136,#137,#138));
#355=EDGE_LOOP('',(#139));
#356=EDGE_LOOP('',(#140,#141,#142));
#357=EDGE_LOOP('',(#143));
#358=EDGE_LOOP('',(#144,#145,#146,#147));
#359=EDGE_LOOP('',(#148,#149,#150,#151));
#360=EDGE_LOOP('',(#152,#153,#154,#155));
#361=EDGE_LOOP('',(#156,#157,#158,#159));
#362=EDGE_LOOP('',(#160,#161,#162,#163,#164,#165,#166,#167));
#363=EDGE_LOOP('',(#168,#169,#170,#171,#172,#173,#174));
#364=EDGE_LOOP('',(#175,#176,#177,#178));
#365=EDGE_LOOP('',(#179,#180,#181,#182));
#366=EDGE_LOOP('',(#183,#184,#185,#186,#187));
#367=EDGE_LOOP('',(#188,#189,#190,#191,#192));
#368=EDGE_LOOP('',(#193,#194,#195,#196));
#369=EDGE_LOOP('',(#197,#198,#199,#200,#201,#202));
#370=EDGE_LOOP('',(#203,#204,#205,#206,#207,#208,#209,#210,#211,#212));
#371=EDGE_LOOP('',(#213,#214,#215,#216));
#372=EDGE_LOOP('',(#217,#218,#219,#220));
#373=EDGE_LOOP('',(#221));
#374=EDGE_LOOP('',(#222));
#375=EDGE_LOOP('',(#223));
#376=EDGE_LOOP('',(#224));
#377=EDGE_LOOP('',(#225));
#378=EDGE_LOOP('',(#226));
#379=FACE_BOUND('',#346,.T.);
#380=FACE_BOUND('',#347,.T.);
#381=FACE_BOUND('',#348,.T.);
#382=FACE_BOUND('',#349,.T.);
#383=FACE_BOUND('',#350,.T.);
#384=FACE_BOUND('',#351,.T.);
#385=FACE_BOUND('',#352,.T.);
#386=FACE_BOUND('',#353,.T.);
#387=FACE_BOUND('',#354,.T.);
#388=FACE_BOUND('',#355,.T.);
#389=FACE_BOUND('',#356,.T.);
#390=FACE_BOUND('',#357,.T.);
#391=FACE_BOUND('',#358,.T.);
#392=FACE_BOUND('',#359,.T.);
#393=FACE_BOUND('',#360,.T.);
#394=FACE_BOUND('',#361,.T.);
#395=FACE_BOUND('',#362,.T.);
#396=FACE_BOUND('',#363,.T.);
#397=FACE_BOUND('',#364,.T.);
#398=FACE_BOUND('',#365,.T.);
#399=FACE_BOUND('',#366,.T.);
#400=FACE_BOUND('',#367,.T.);
#401=FACE_BOUND('',#368,.T.);
#402=FACE_BOUND('',#369,.T.);
#403=FACE_BOUND('',#370,.T.);
#404=FACE_BOUND('',#371,.T.);
#405=FACE_BOUND('',#372,.T.);
#406=FACE_BOUND('',#373,.T.);
#407=FACE_BOUND('',#374,.T.);
#408=FACE_BOUND('',#375,.T.);
#409=FACE_BOUND('',#376,.T.);
#410=FACE_BOUND('',#377,.T.);
#411=FACE_BOUND('',#378,.T.);
#412=B_SPLINE_SURFACE_WITH_KNOTS('',3,1,((#810,#811),(#812,#813),(#814,
#815),(#816,#817)),.SURF_OF_LINEAR_EXTRUSION.,.F.,.F.,.F.,(4,4),(2,2),(0.,
1.),(0.,1.),.PIECEWISE_BEZIER_KNOTS.);
#413=B_SPLINE_SURFACE_WITH_KNOTS('',3,1,((#830,#831),(#832,#833),(#834,
#835),(#836,#837)),.SURF_OF_LINEAR_EXTRUSION.,.F.,.F.,.F.,(4,4),(2,2),(0.,
1.),(0.,1.),.PIECEWISE_BEZIER_KNOTS.);
#414=B_SPLINE_SURFACE_WITH_KNOTS('',3,1,((#897,#898),(#899,#900),(#901,
#902),(#903,#904)),.SURF_OF_LINEAR_EXTRUSION.,.F.,.F.,.F.,(4,4),(2,2),(0.,
1.),(0.,1.),.PIECEWISE_BEZIER_KNOTS.);
#415=B_SPLINE_SURFACE_WITH_KNOTS('',3,1,((#917,#918),(#919,#920),(#921,
#922),(#923,#924)),.SURF_OF_LINEAR_EXTRUSION.,.F.,.F.,.F.,(4,4),(2,2),(0.,
1.),(0.,1.),.PIECEWISE_BEZIER_KNOTS.);
#416=B_SPLINE_SURFACE_WITH_KNOTS('',3,1,((#937,#938),(#939,#940),(#941,
#942),(#943,#944)),.SURF_OF_LINEAR_EXTRUSION.,.F.,.F.,.F.,(4,4),(2,2),(0.,
1.),(0.,1.),.PIECEWISE_BEZIER_KNOTS.);
#417=B_SPLINE_SURFACE_WITH_KNOTS('',3,1,((#954,#955),(#956,#957),(#958,
#959),(#960,#961)),.SURF_OF_LINEAR_EXTRUSION.,.F.,.F.,.F.,(4,4),(2,2),(0.,
1.),(0.,1.),.PIECEWISE_BEZIER_KNOTS.);
#418=B_SPLINE_SURFACE_WITH_KNOTS('',3,1,((#986,#987),(#988,#989),(#990,
#991),(#992,#993)),.SURF_OF_LINEAR_EXTRUSION.,.F.,.F.,.F.,(4,4),(2,2),(0.,
1.),(0.,1.),.PIECEWISE_BEZIER_KNOTS.);
#419=B_SPLINE_SURFACE_WITH_KNOTS('',3,1,((#996,#997),(#998,#999),(#1000,
#1001),(#1002,#1003)),.SURF_OF_LINEAR_EXTRUSION.,.F.,.F.,.F.,(4,4),(2,2),
(0.,1.),(0.,1.),.PIECEWISE_BEZIER_KNOTS.);
#420=B_SPLINE_SURFACE_WITH_KNOTS('',3,1,((#1034,#1035),(#1036,#1037),(#1038,
#1039),(#1040,#1041),(#1042,#1043),(#1044,#1045),(#1046,#1047)),
 .SURF_OF_LINEAR_EXTRUSION.,.T.,.F.,.F.,(1,3,1,1,1,3,1),(2,2),(-0.24248057534376,
0.,0.245272682748659,0.515844086680522,0.75751942465624,1.,1.24527268274866),
(0.,1.),.UNSPECIFIED.);
#421=B_SPLINE_SURFACE_WITH_KNOTS('',3,1,((#1057,#1058),(#1059,#1060),(#1061,
#1062),(#1063,#1064),(#1065,#1066),(#1067,#1068),(#1069,#1070),(#1071,#1072),
(#1073,#1074)),.SURF_OF_LINEAR_EXTRUSION.,.T.,.F.,.F.,(1,3,1,1,1,1,1,3,
1),(2,2),(-0.118074145921786,0.,0.181055538284359,0.314779663610312,0.488808545398405,
0.692772016029358,0.881925854078214,1.,1.18105553828436),(0.,1.),
 .UNSPECIFIED.);
#422=OVER_RIDING_STYLED_ITEM('',(#487),#451,#483);
#423=OVER_RIDING_STYLED_ITEM('',(#488),#452,#483);
#424=OVER_RIDING_STYLED_ITEM('',(#489),#453,#483);
#425=OVER_RIDING_STYLED_ITEM('',(#490),#454,#483);
#426=OVER_RIDING_STYLED_ITEM('',(#492),#455,#484);
#427=OVER_RIDING_STYLED_ITEM('',(#493),#456,#484);
#428=OVER_RIDING_STYLED_ITEM('',(#494),#457,#484);
#429=OVER_RIDING_STYLED_ITEM('',(#495),#458,#484);
#430=OVER_RIDING_STYLED_ITEM('',(#496),#459,#484);
#431=OVER_RIDING_STYLED_ITEM('',(#498),#460,#485);
#432=OVER_RIDING_STYLED_ITEM('',(#499),#461,#485);
#433=OVER_RIDING_STYLED_ITEM('',(#500),#462,#485);
#434=OVER_RIDING_STYLED_ITEM('',(#501),#463,#485);
#435=OVER_RIDING_STYLED_ITEM('',(#502),#464,#485);
#436=OVER_RIDING_STYLED_ITEM('',(#503),#465,#485);
#437=OVER_RIDING_STYLED_ITEM('',(#504),#466,#485);
#438=OVER_RIDING_STYLED_ITEM('',(#505),#467,#485);
#439=OVER_RIDING_STYLED_ITEM('',(#506),#468,#485);
#440=OVER_RIDING_STYLED_ITEM('',(#507),#469,#485);
#441=OVER_RIDING_STYLED_ITEM('',(#508),#470,#485);
#442=OVER_RIDING_STYLED_ITEM('',(#509),#471,#485);
#443=OVER_RIDING_STYLED_ITEM('',(#510),#472,#485);
#444=OVER_RIDING_STYLED_ITEM('',(#511),#473,#485);
#445=OVER_RIDING_STYLED_ITEM('',(#512),#474,#485);
#446=OVER_RIDING_STYLED_ITEM('',(#513),#475,#485);
#447=OVER_RIDING_STYLED_ITEM('',(#514),#476,#485);
#448=OVER_RIDING_STYLED_ITEM('',(#515),#477,#485);
#449=OVER_RIDING_STYLED_ITEM('',(#516),#478,#485);
#450=OVER_RIDING_STYLED_ITEM('',(#517),#479,#485);
#451=ADVANCED_FACE('Face appearance 1',(#379),#412,.T.);
#452=ADVANCED_FACE('Face appearance 1',(#380),#413,.T.);
#453=ADVANCED_FACE('Face appearance 1',(#381),#22,.T.);
#454=ADVANCED_FACE('Face appearance 1',(#382),#23,.F.);
#455=ADVANCED_FACE('Face appearance 2',(#383),#24,.T.);
#456=ADVANCED_FACE('Face appearance 2',(#384),#25,.T.);
#457=ADVANCED_FACE('Face appearance 2',(#385),#26,.T.);
#458=ADVANCED_FACE('Face appearance 2',(#386),#27,.T.);
#459=ADVANCED_FACE('Face appearance 2',(#387),#28,.F.);
#460=ADVANCED_FACE('Face appearance 4',(#388,#389,#390),#29,.T.);
#461=ADVANCED_FACE('Face appearance 3',(#391),#414,.T.);
#462=ADVANCED_FACE('Face appearance 3',(#392),#415,.T.);
#463=ADVANCED_FACE('Face appearance 3',(#393),#416,.T.);
#464=ADVANCED_FACE('Face appearance 3',(#394),#417,.T.);
#465=ADVANCED_FACE('Face appearance 3',(#395),#30,.T.);
#466=ADVANCED_FACE('Face appearance 6',(#396),#31,.F.);
#467=ADVANCED_FACE('Face appearance 4',(#397),#418,.T.);
#468=ADVANCED_FACE('Face appearance 4',(#398),#419,.F.);
#469=ADVANCED_FACE('Face appearance 6',(#399),#32,.T.);
#470=ADVANCED_FACE('Face appearance 6',(#400),#33,.F.);
#471=ADVANCED_FACE('Face appearance 6',(#401),#34,.T.);
#472=ADVANCED_FACE('Face appearance 6',(#402),#35,.T.);
#473=ADVANCED_FACE('Face appearance 6',(#403),#36,.F.);
#474=ADVANCED_FACE('Face appearance 6',(#404),#10,.T.);
#475=ADVANCED_FACE('Face appearance 6',(#405),#11,.T.);
#476=ADVANCED_FACE('Face appearance 7',(#406,#407),#420,.T.);
#477=ADVANCED_FACE('Face appearance 7',(#408),#37,.T.);
#478=ADVANCED_FACE('Face appearance 8',(#409,#410),#421,.T.);
#479=ADVANCED_FACE('Face appearance 8',(#411),#38,.T.);
#480=CLOSED_SHELL('',(#451,#452,#453,#454));
#481=CLOSED_SHELL('',(#455,#456,#457,#458,#459));
#482=CLOSED_SHELL('',(#460,#461,#462,#463,#464,#465,#466,#467,#468,#469,
#470,#471,#472,#473,#474,#475,#476,#477,#478,#479));
#483=STYLED_ITEM('',(#486),#687);
#484=STYLED_ITEM('',(#491),#688);
#485=STYLED_ITEM('',(#497),#689);
#486=PRESENTATION_STYLE_ASSIGNMENT((#518));
#487=PRESENTATION_STYLE_ASSIGNMENT((#519));
#488=PRESENTATION_STYLE_ASSIGNMENT((#520));
#489=PRESENTATION_STYLE_ASSIGNMENT((#521));
#490=PRESENTATION_STYLE_ASSIGNMENT((#522));
#491=PRESENTATION_STYLE_ASSIGNMENT((#523));
#492=PRESENTATION_STYLE_ASSIGNMENT((#524));
#493=PRESENTATION_STYLE_ASSIGNMENT((#525));
#494=PRESENTATION_STYLE_ASSIGNMENT((#526));
#495=PRESENTATION_STYLE_ASSIGNMENT((#527));
#496=PRESENTATION_STYLE_ASSIGNMENT((#528));
#497=PRESENTATION_STYLE_ASSIGNMENT((#529));
#498=PRESENTATION_STYLE_ASSIGNMENT((#530));
#499=PRESENTATION_STYLE_ASSIGNMENT((#531));
#500=PRESENTATION_STYLE_ASSIGNMENT((#532));
#501=PRESENTATION_STYLE_ASSIGNMENT((#533));
#502=PRESENTATION_STYLE_ASSIGNMENT((#534));
#503=PRESENTATION_STYLE_ASSIGNMENT((#535));
#504=PRESENTATION_STYLE_ASSIGNMENT((#536));
#505=PRESENTATION_STYLE_ASSIGNMENT((#537));
#506=PRESENTATION_STYLE_ASSIGNMENT((#538));
#507=PRESENTATION_STYLE_ASSIGNMENT((#539));
#508=PRESENTATION_STYLE_ASSIGNMENT((#540));
#509=PRESENTATION_STYLE_ASSIGNMENT((#541));
#510=PRESENTATION_STYLE_ASSIGNMENT((#542));
#511=PRESENTATION_STYLE_ASSIGNMENT((#543));
#512=PRESENTATION_STYLE_ASSIGNMENT((#544));
#513=PRESENTATION_STYLE_ASSIGNMENT((#545));
#514=PRESENTATION_STYLE_ASSIGNMENT((#546));
#515=PRESENTATION_STYLE_ASSIGNMENT((#547));
#516=PRESENTATION_STYLE_ASSIGNMENT((#548));
#517=PRESENTATION_STYLE_ASSIGNMENT((#549));
#518=SURFACE_STYLE_USAGE(.BOTH.,#550);
#519=SURFACE_STYLE_USAGE(.BOTH.,#551);
#520=SURFACE_STYLE_USAGE(.BOTH.,#552);
#521=SURFACE_STYLE_USAGE(.BOTH.,#553);
#522=SURFACE_STYLE_USAGE(.BOTH.,#554);
#523=SURFACE_STYLE_USAGE(.BOTH.,#555);
#524=SURFACE_STYLE_USAGE(.BOTH.,#556);
#525=SURFACE_STYLE_USAGE(.BOTH.,#557);
#526=SURFACE_STYLE_USAGE(.BOTH.,#558);
#527=SURFACE_STYLE_USAGE(.BOTH.,#559);
#528=SURFACE_STYLE_USAGE(.BOTH.,#560);
#529=SURFACE_STYLE_USAGE(.BOTH.,#561);
#530=SURFACE_STYLE_USAGE(.BOTH.,#562);
#531=SURFACE_STYLE_USAGE(.BOTH.,#563);
#532=SURFACE_STYLE_USAGE(.BOTH.,#564);
#533=SURFACE_STYLE_USAGE(.BOTH.,#565);
#534=SURFACE_STYLE_USAGE(.BOTH.,#566);
#535=SURFACE_STYLE_USAGE(.BOTH.,#567);
#536=SURFACE_STYLE_USAGE(.BOTH.,#568);
#537=SURFACE_STYLE_USAGE(.BOTH.,#569);
#538=SURFACE_STYLE_USAGE(.BOTH.,#570);
#539=SURFACE_STYLE_USAGE(.BOTH.,#571);
#540=SURFACE_STYLE_USAGE(.BOTH.,#572);
#541=SURFACE_STYLE_USAGE(.BOTH.,#573);
#542=SURFACE_STYLE_USAGE(.BOTH.,#574);
#543=SURFACE_STYLE_USAGE(.BOTH.,#575);
#544=SURFACE_STYLE_USAGE(.BOTH.,#576);
#545=SURFACE_STYLE_USAGE(.BOTH.,#577);
#546=SURFACE_STYLE_USAGE(.BOTH.,#578);
#547=SURFACE_STYLE_USAGE(.BOTH.,#579);
#548=SURFACE_STYLE_USAGE(.BOTH.,#580);
#549=SURFACE_STYLE_USAGE(.BOTH.,#581);
#550=SURFACE_SIDE_STYLE('',(#582));
#551=SURFACE_SIDE_STYLE('',(#583));
#552=SURFACE_SIDE_STYLE('',(#584));
#553=SURFACE_SIDE_STYLE('',(#585));
#554=SURFACE_SIDE_STYLE('',(#586));
#555=SURFACE_SIDE_STYLE('',(#587));
#556=SURFACE_SIDE_STYLE('',(#588));
#557=SURFACE_SIDE_STYLE('',(#589));
#558=SURFACE_SIDE_STYLE('',(#590));
#559=SURFACE_SIDE_STYLE('',(#591));
#560=SURFACE_SIDE_STYLE('',(#592));
#561=SURFACE_SIDE_STYLE('',(#593));
#562=SURFACE_SIDE_STYLE('',(#594));
#563=SURFACE_SIDE_STYLE('',(#595));
#564=SURFACE_SIDE_STYLE('',(#596));
#565=SURFACE_SIDE_STYLE('',(#597));
#566=SURFACE_SIDE_STYLE('',(#598));
#567=SURFACE_SIDE_STYLE('',(#599));
#568=SURFACE_SIDE_STYLE('',(#600));
#569=SURFACE_SIDE_STYLE('',(#601));
#570=SURFACE_SIDE_STYLE('',(#602));
#571=SURFACE_SIDE_STYLE('',(#603));
#572=SURFACE_SIDE_STYLE('',(#604));
#573=SURFACE_SIDE_STYLE('',(#605));
#574=SURFACE_SIDE_STYLE('',(#606));
#575=SURFACE_SIDE_STYLE('',(#607));
#576=SURFACE_SIDE_STYLE('',(#608));
#577=SURFACE_SIDE_STYLE('',(#609));
#578=SURFACE_SIDE_STYLE('',(#610));
#579=SURFACE_SIDE_STYLE('',(#611));
#580=SURFACE_SIDE_STYLE('',(#612));
#581=SURFACE_SIDE_STYLE('',(#613));
#582=SURFACE_STYLE_FILL_AREA(#614);
#583=SURFACE_STYLE_FILL_AREA(#615);
#584=SURFACE_STYLE_FILL_AREA(#616);
#585=SURFACE_STYLE_FILL_AREA(#617);
#586=SURFACE_STYLE_FILL_AREA(#618);
#587=SURFACE_STYLE_FILL_AREA(#619);
#588=SURFACE_STYLE_FILL_AREA(#620);
#589=SURFACE_STYLE_FILL_AREA(#621);
#590=SURFACE_STYLE_FILL_AREA(#622);
#591=SURFACE_STYLE_FILL_AREA(#623);
#592=SURFACE_STYLE_FILL_AREA(#624);
#593=SURFACE_STYLE_FILL_AREA(#625);
#594=SURFACE_STYLE_FILL_AREA(#626);
#595=SURFACE_STYLE_FILL_AREA(#627);
#596=SURFACE_STYLE_FILL_AREA(#628);
#597=SURFACE_STYLE_FILL_AREA(#629);
#598=SURFACE_STYLE_FILL_AREA(#630);
#599=SURFACE_STYLE_FILL_AREA(#631);
#600=SURFACE_STYLE_FILL_AREA(#632);
#601=SURFACE_STYLE_FILL_AREA(#633);
#602=SURFACE_STYLE_FILL_AREA(#634);
#603=SURFACE_STYLE_FILL_AREA(#635);
#604=SURFACE_STYLE_FILL_AREA(#636);
#605=SURFACE_STYLE_FILL_AREA(#637);
#606=SURFACE_STYLE_FILL_AREA(#638);
#607=SURFACE_STYLE_FILL_AREA(#639);
#608=SURFACE_STYLE_FILL_AREA(#640);
#609=SURFACE_STYLE_FILL_AREA(#641);
#610=SURFACE_STYLE_FILL_AREA(#642);
#611=SURFACE_STYLE_FILL_AREA(#643);
#612=SURFACE_STYLE_FILL_AREA(#644);
#613=SURFACE_STYLE_FILL_AREA(#645);
#614=FILL_AREA_STYLE('',(#646));
#615=FILL_AREA_STYLE('',(#647));
#616=FILL_AREA_STYLE('',(#648));
#617=FILL_AREA_STYLE('',(#649));
#618=FILL_AREA_STYLE('',(#650));
#619=FILL_AREA_STYLE('',(#651));
#620=FILL_AREA_STYLE('',(#652));
#621=FILL_AREA_STYLE('',(#653));
#622=FILL_AREA_STYLE('',(#654));
#623=FILL_AREA_STYLE('',(#655));
#624=FILL_AREA_STYLE('',(#656));
#625=FILL_AREA_STYLE('',(#657));
#626=FILL_AREA_STYLE('',(#658));
#627=FILL_AREA_STYLE('',(#659));
#628=FILL_AREA_STYLE('',(#660));
#629=FILL_AREA_STYLE('',(#661));
#630=FILL_AREA_STYLE('',(#662));
#631=FILL_AREA_STYLE('',(#663));
#632=FILL_AREA_STYLE('',(#664));
#633=FILL_AREA_STYLE('',(#665));
#634=FILL_AREA_STYLE('',(#666));
#635=FILL_AREA_STYLE('',(#667));
#636=FILL_AREA_STYLE('',(#668));
#637=FILL_AREA_STYLE('',(#669));
#638=FILL_AREA_STYLE('',(#670));
#639=FILL_AREA_STYLE('',(#671));
#640=FILL_AREA_STYLE('',(#672));
#641=FILL_AREA_STYLE('',(#673));
#642=FILL_AREA_STYLE('',(#674));
#643=FILL_AREA_STYLE('',(#675));
#644=FILL_AREA_STYLE('',(#676));
#645=FILL_AREA_STYLE('',(#677));
#646=FILL_AREA_STYLE_COLOUR('',#678);
#647=FILL_AREA_STYLE_COLOUR('',#679);
#648=FILL_AREA_STYLE_COLOUR('',#679);
#649=FILL_AREA_STYLE_COLOUR('',#679);
#650=FILL_AREA_STYLE_COLOUR('',#679);
#651=FILL_AREA_STYLE_COLOUR('',#680);
#652=FILL_AREA_STYLE_COLOUR('',#681);
#653=FILL_AREA_STYLE_COLOUR('',#681);
#654=FILL_AREA_STYLE_COLOUR('',#681);
#655=FILL_AREA_STYLE_COLOUR('',#681);
#656=FILL_AREA_STYLE_COLOUR('',#681);
#657=FILL_AREA_STYLE_COLOUR('',#682);
#658=FILL_AREA_STYLE_COLOUR('',#683);
#659=FILL_AREA_STYLE_COLOUR('',#684);
#660=FILL_AREA_STYLE_COLOUR('',#684);
#661=FILL_AREA_STYLE_COLOUR('',#684);
#662=FILL_AREA_STYLE_COLOUR('',#684);
#663=FILL_AREA_STYLE_COLOUR('',#684);
#664=FILL_AREA_STYLE_COLOUR('',#685);
#665=FILL_AREA_STYLE_COLOUR('',#683);
#666=FILL_AREA_STYLE_COLOUR('',#683);
#667=FILL_AREA_STYLE_COLOUR('',#685);
#668=FILL_AREA_STYLE_COLOUR('',#685);
#669=FILL_AREA_STYLE_COLOUR('',#685);
#670=FILL_AREA_STYLE_COLOUR('',#685);
#671=FILL_AREA_STYLE_COLOUR('',#685);
#672=FILL_AREA_STYLE_COLOUR('',#685);
#673=FILL_AREA_STYLE_COLOUR('',#685);
#674=FILL_AREA_STYLE_COLOUR('',#686);
#675=FILL_AREA_STYLE_COLOUR('',#686);
#676=FILL_AREA_STYLE_COLOUR('',#686);
#677=FILL_AREA_STYLE_COLOUR('',#686);
#678=COLOUR_RGB('',0.231372549019608,0.380392156862745,0.705882352941177);
#679=COLOUR_RGB('',0.372549019607843,0.654901960784314,0.23921568627451);
#680=COLOUR_RGB('',0.647058823529412,0.647058823529412,0.647058823529412);
#681=COLOUR_RGB('',0.603921568627451,0.450980392156863,0.450980392156863);
#682=COLOUR_RGB('',0.615686274509804,0.811764705882353,0.929411764705882);
#683=COLOUR_RGB('',0.976470588235294,0.976470588235294,0.764705882352941);
#684=COLOUR_RGB('',0.866666666666667,0.32156862745098,0.156862745098039);
#685=COLOUR_RGB('',0.729411764705882,0.250980392156863,0.105882352941176);
#686=COLOUR_RGB('',0.447058823529412,0.243137254901961,0.);
#687=MANIFOLD_SOLID_BREP('Part 3',#480);
#688=MANIFOLD_SOLID_BREP('Part 2',#481);
#689=MANIFOLD_SOLID_BREP('Part 1',#482);
#690=SHAPE_DEFINITION_REPRESENTATION(#1104,#693);
#691=SHAPE_DEFINITION_REPRESENTATION(#1105,#694);
#692=SHAPE_DEFINITION_REPRESENTATION(#1106,#695);
#693=SHAPE_REPRESENTATION('Part 3',(#696),#1089);
#694=SHAPE_REPRESENTATION('Part 2',(#699),#1090);
#695=SHAPE_REPRESENTATION('Part 1',(#705),#1091);
#696=AXIS2_PLACEMENT_3D('',#809,#722,#723);
#697=AXIS2_PLACEMENT_3D('',#844,#726,#727);
#698=AXIS2_PLACEMENT_3D('',#845,#728,#729);
#699=AXIS2_PLACEMENT_3D('',#846,#730,#731);
#700=AXIS2_PLACEMENT_3D('',#847,#732,#733);
#701=AXIS2_PLACEMENT_3D('',#856,#738,#739);
#702=AXIS2_PLACEMENT_3D('',#862,#743,#744);
#703=AXIS2_PLACEMENT_3D('',#865,#747,#748);
#704=AXIS2_PLACEMENT_3D('',#866,#749,#750);
#705=AXIS2_PLACEMENT_3D('',#867,#751,#752);
#706=AXIS2_PLACEMENT_3D('',#868,#753,#754);
#707=AXIS2_PLACEMENT_3D('',#968,#761,#762);
#708=AXIS2_PLACEMENT_3D('',#980,#765,#766);
#709=AXIS2_PLACEMENT_3D('',#1005,#773,#774);
#710=AXIS2_PLACEMENT_3D('',#1011,#778,#779);
#711=AXIS2_PLACEMENT_3D('',#1017,#783,#784);
#712=AXIS2_PLACEMENT_3D('',#1026,#789,#790);
#713=AXIS2_PLACEMENT_3D('',#1027,#791,#792);
#714=AXIS2_PLACEMENT_3D('',#1028,#793,#794);
#715=AXIS2_PLACEMENT_3D('',#1029,#795,#796);
#716=AXIS2_PLACEMENT_3D('',#1030,#797,#798);
#717=AXIS2_PLACEMENT_3D('',#1031,#799,#800);
#718=AXIS2_PLACEMENT_3D('',#1032,#801,#802);
#719=AXIS2_PLACEMENT_3D('',#1033,#803,#804);
#720=AXIS2_PLACEMENT_3D('',#1056,#805,#806);
#721=AXIS2_PLACEMENT_3D('',#1085,#807,#808);
#722=DIRECTION('',(0.,0.,1.));
#723=DIRECTION('',(1.,0.,0.));
#724=DIRECTION('',(0.,0.,-1.));
#725=DIRECTION('',(0.,0.,-1.));
#726=DIRECTION('',(0.,0.,1.));
#727=DIRECTION('',(1.,0.,0.));
#728=DIRECTION('',(0.,0.,1.));
#729=DIRECTION('',(1.,0.,0.));
#730=DIRECTION('',(0.,0.,1.));
#731=DIRECTION('',(1.,0.,0.));
#732=DIRECTION('',(-0.968245836551854,-0.25,0.));
#733=DIRECTION('',(0.25,-0.968245836551854,0.));
#734=DIRECTION('',(-0.25,0.968245836551854,0.));
#735=DIRECTION('',(0.,0.,-1.));
#736=DIRECTION('',(-0.25,0.968245836551854,0.));
#737=DIRECTION('',(0.,0.,-1.));
#738=DIRECTION('',(0.968245836551854,-0.25,0.));
#739=DIRECTION('',(0.25,0.968245836551854,0.));
#740=DIRECTION('',(-0.25,-0.968245836551854,0.));
#741=DIRECTION('',(0.,0.,-1.));
#742=DIRECTION('',(-0.25,-0.968245836551854,0.));
#743=DIRECTION('',(0.,1.,0.));
#744=DIRECTION('',(0.,0.,1.));
#745=DIRECTION('',(1.,0.,0.));
#746=DIRECTION('',(1.,0.,0.));
#747=DIRECTION('',(0.,0.,1.));
#748=DIRECTION('',(1.,0.,0.));
#749=DIRECTION('',(0.,0.,1.));
#750=DIRECTION('',(1.,0.,0.));
#751=DIRECTION('',(0.,0.,1.));
#752=DIRECTION('',(1.,0.,0.));
#753=DIRECTION('',(0.,0.,1.));
#754=DIRECTION('',(1.,0.,0.));
#755=DIRECTION('',(1.,0.,0.));
#756=DIRECTION('',(0.,0.,-1.));
#757=DIRECTION('',(0.,0.,-1.));
#758=DIRECTION('',(0.,0.,-1.));
#759=DIRECTION('',(0.,0.,-1.));
#760=DIRECTION('',(0.,0.,-1.));
#761=DIRECTION('',(0.,0.,1.));
#762=DIRECTION('',(1.,0.,0.));
#763=DIRECTION('',(1.,0.,0.));
#764=DIRECTION('',(1.,0.,0.));
#765=DIRECTION('',(0.,0.,1.));
#766=DIRECTION('',(1.,0.,0.));
#767=DIRECTION('',(0.,1.,0.));
#768=DIRECTION('',(1.,0.,0.));
#769=DIRECTION('',(0.,1.,0.));
#770=DIRECTION('',(0.,0.,-1.));
#771=DIRECTION('',(0.,0.,-1.));
#772=DIRECTION('',(0.,0.,-1.));
#773=DIRECTION('',(-1.,0.,0.));
#774=DIRECTION('',(0.,0.,1.));
#775=DIRECTION('',(0.,0.,1.));
#776=DIRECTION('',(0.,1.,0.));
#777=DIRECTION('',(0.,0.,1.));
#778=DIRECTION('',(-1.,0.,-1.98254111540206E-16));
#779=DIRECTION('',(-1.98254111540206E-16,0.,1.));
#780=DIRECTION('',(-1.98254111540206E-16,0.,1.));
#781=DIRECTION('',(0.,1.,0.));
#782=DIRECTION('',(-1.98254111540206E-16,0.,1.));
#783=DIRECTION('',(0.,0.,1.));
#784=DIRECTION('',(1.,0.,0.));
#785=DIRECTION('',(1.,0.,0.));
#786=DIRECTION('',(0.,1.,0.));
#787=DIRECTION('',(1.,0.,0.));
#788=DIRECTION('',(0.,1.,0.));
#789=DIRECTION('',(0.,-1.,0.));
#790=DIRECTION('',(1.,0.,0.));
#791=DIRECTION('',(0.,-1.,0.));
#792=DIRECTION('',(0.,0.,-1.));
#793=DIRECTION('',(0.,-1.,0.));
#794=DIRECTION('',(0.,0.,-1.));
#795=DIRECTION('',(0.,-1.,0.));
#796=DIRECTION('',(1.,0.,0.));
#797=DIRECTION('',(0.,-1.,0.));
#798=DIRECTION('',(0.,0.,-1.));
#799=DIRECTION('',(0.,-1.,0.));
#800=DIRECTION('',(0.,0.,-1.));
#801=DIRECTION('',(0.,-1.,0.));
#802=DIRECTION('',(0.,0.,-1.));
#803=DIRECTION('',(0.,1.,0.));
#804=DIRECTION('',(0.,0.,1.));
#805=DIRECTION('',(0.,0.,1.));
#806=DIRECTION('',(1.,0.,0.));
#807=DIRECTION('',(0.,0.,1.));
#808=DIRECTION('',(1.,0.,0.));
#809=CARTESIAN_POINT('',(0.,0.,0.));
#810=CARTESIAN_POINT('',(0.,0.031379313139926,0.006));
#811=CARTESIAN_POINT('',(0.,0.031379313139926,0.));
#812=CARTESIAN_POINT('',(0.00373636030902465,0.0413908712959325,0.006));
#813=CARTESIAN_POINT('',(0.00373636030902465,0.0413908712959325,8.67361737988404E-19));
#814=CARTESIAN_POINT('',(0.0105125062788526,0.045747347176075,0.006));
#815=CARTESIAN_POINT('',(0.0105125062788526,0.045747347176075,8.67361737988404E-19));
#816=CARTESIAN_POINT('',(0.0203284379094839,0.0444487407803536,0.006));
#817=CARTESIAN_POINT('',(0.0203284379094839,0.0444487407803536,0.));
#818=CARTESIAN_POINT('',(0.,0.031379313139926,0.));
#819=CARTESIAN_POINT('',(0.00560454046353698,0.0463966503739357,0.));
#820=CARTESIAN_POINT('',(0.0203284379094839,0.0444487407803536,0.));
#821=CARTESIAN_POINT('',(0.,0.031379313139926,0.));
#822=CARTESIAN_POINT('',(0.0203284379094839,0.0444487407803536,0.));
#823=CARTESIAN_POINT('',(0.,0.031379313139926,0.006));
#824=CARTESIAN_POINT('',(0.,0.031379313139926,0.006));
#825=CARTESIAN_POINT('',(0.,0.031379313139926,0.006));
#826=CARTESIAN_POINT('',(0.00560454046353698,0.0463966503739357,0.006));
#827=CARTESIAN_POINT('',(0.0203284379094839,0.0444487407803536,0.006));
#828=CARTESIAN_POINT('',(0.0203284379094839,0.0444487407803536,0.006));
#829=CARTESIAN_POINT('',(0.0203284379094839,0.0444487407803536,0.006));
#830=CARTESIAN_POINT('',(0.0203284379094839,0.0444487407803536,0.006));
#831=CARTESIAN_POINT('',(0.0203284379094839,0.0444487407803536,0.));
#832=CARTESIAN_POINT('',(0.0118363598560543,0.0427905432398604,0.006));
#833=CARTESIAN_POINT('',(0.0118363598560543,0.0427905432398604,8.67361737988404E-19));
#834=CARTESIAN_POINT('',(0.00506021388622637,0.0384340673597179,0.006));
#835=CARTESIAN_POINT('',(0.00506021388622637,0.0384340673597179,8.67361737988404E-19));
#836=CARTESIAN_POINT('',(0.,0.031379313139926,0.006));
#837=CARTESIAN_POINT('',(0.,0.031379313139926,0.));
#838=CARTESIAN_POINT('',(0.0203284379094839,0.0444487407803536,0.));
#839=CARTESIAN_POINT('',(0.00759032082933955,0.0419614444696138,0.));
#840=CARTESIAN_POINT('',(0.,0.031379313139926,0.));
#841=CARTESIAN_POINT('',(0.0203284379094839,0.0444487407803536,0.006));
#842=CARTESIAN_POINT('',(0.00759032082933955,0.0419614444696138,0.006));
#843=CARTESIAN_POINT('',(0.,0.031379313139926,0.006));
#844=CARTESIAN_POINT('',(0.010164218954742,0.0388879817569309,0.006));
#845=CARTESIAN_POINT('',(0.010164218954742,0.0388879817569309,0.));
#846=CARTESIAN_POINT('',(0.,0.,0.));
#847=CARTESIAN_POINT('',(-0.0025,0.0410617715054446,0.006));
#848=CARTESIAN_POINT('',(-0.0025,0.0410617715054446,0.));
#849=CARTESIAN_POINT('',(-1.7347234759768E-18,0.031379313139926,0.));
#850=CARTESIAN_POINT('',(-0.005,0.0507442298709632,0.));
#851=CARTESIAN_POINT('',(-1.7347234759768E-18,0.031379313139926,0.006));
#852=CARTESIAN_POINT('',(-1.7347234759768E-18,0.031379313139926,0.006));
#853=CARTESIAN_POINT('',(-0.0025,0.0410617715054446,0.006));
#854=CARTESIAN_POINT('',(-0.005,0.0507442298709632,0.006));
#855=CARTESIAN_POINT('',(-0.005,0.0507442298709632,0.006));
#856=CARTESIAN_POINT('',(0.0025,0.0410617715054446,0.006));
#857=CARTESIAN_POINT('',(0.0025,0.0410617715054446,0.));
#858=CARTESIAN_POINT('',(0.005,0.0507442298709632,0.));
#859=CARTESIAN_POINT('',(0.005,0.0507442298709632,0.006));
#860=CARTESIAN_POINT('',(0.005,0.0507442298709632,0.006));
#861=CARTESIAN_POINT('',(0.0025,0.0410617715054446,0.006));
#862=CARTESIAN_POINT('',(-4.33680868994202E-19,0.0507442298709632,0.006));
#863=CARTESIAN_POINT('',(-4.33680868994202E-19,0.0507442298709632,0.));
#864=CARTESIAN_POINT('',(-4.33680868994202E-19,0.0507442298709632,0.006));
#865=CARTESIAN_POINT('',(0.,0.0410617715054446,0.006));
#866=CARTESIAN_POINT('',(0.,0.0410617715054446,0.));
#867=CARTESIAN_POINT('',(0.,0.,0.));
#868=CARTESIAN_POINT('',(-0.000294502782662385,0.0181435015983879,0.007));
#869=CARTESIAN_POINT('',(-0.0116635132580996,0.0201021675020456,0.007));
#870=CARTESIAN_POINT('',(-0.0108555403313297,0.0208892099409628,0.007));
#871=CARTESIAN_POINT('',(-0.00506269321315989,0.0196215662477572,0.007));
#872=CARTESIAN_POINT('',(-0.00488239293669831,0.00930067911678831,0.007));
#873=CARTESIAN_POINT('',(-0.0102588273928888,0.0150583771307768,0.007));
#874=CARTESIAN_POINT('',(-0.0124622884741154,0.019324084507764,0.007));
#875=CARTESIAN_POINT('',(-0.0116635132580996,0.0201021675020456,0.007));
#876=CARTESIAN_POINT('',(-0.0116635132580996,0.0201021675020456,0.007));
#877=CARTESIAN_POINT('',(-0.0244837328791619,0.,0.007));
#878=CARTESIAN_POINT('',(-0.0323899239301682,0.0450716614723206,0.007));
#879=CARTESIAN_POINT('',(0.,0.0275023449212312,0.007));
#880=CARTESIAN_POINT('',(-0.0244837328791619,0.,0.007));
#881=CARTESIAN_POINT('',(0.,0.0275023449212312,0.007));
#882=CARTESIAN_POINT('',(-0.00120438914746046,0.,0.007));
#883=CARTESIAN_POINT('',(0.0220749545842409,0.,0.007));
#884=CARTESIAN_POINT('',(0.0220749545842409,0.,0.007));
#885=CARTESIAN_POINT('',(0.0336206910944396,0.0444487407803536,0.007));
#886=CARTESIAN_POINT('',(0.,0.0275023449212312,0.007));
#887=CARTESIAN_POINT('',(0.00194013910368085,0.01367671135813,0.007));
#888=CARTESIAN_POINT('',(0.00187577385530248,0.0147025136963606,0.007));
#889=CARTESIAN_POINT('',(0.0041384293461891,0.0175360470943686,0.007));
#890=CARTESIAN_POINT('',(0.00493417337002396,0.0189898363513591,0.007));
#891=CARTESIAN_POINT('',(0.0110392563440178,0.021369002550053,0.007));
#892=CARTESIAN_POINT('',(0.00724532894567783,0.0144635131387444,0.007));
#893=CARTESIAN_POINT('',(0.0036027367093342,0.0119354688845199,0.007));
#894=CARTESIAN_POINT('',(0.00198211446550261,0.0130077412944751,0.007));
#895=CARTESIAN_POINT('',(0.00194013910368085,0.01367671135813,0.007));
#896=CARTESIAN_POINT('',(0.00194013910368085,0.01367671135813,0.007));
#897=CARTESIAN_POINT('',(-0.0298275863111912,0.,0.006));
#898=CARTESIAN_POINT('',(-0.0298275863111912,0.,0.));
#899=CARTESIAN_POINT('',(-0.0355747116911197,0.00735632222844741,0.006));
#900=CARTESIAN_POINT('',(-0.0355747116911197,0.00735632222844741,8.67361737988404E-19));
#901=CARTESIAN_POINT('',(-0.0368390799522025,0.0178160932750894,0.006));
#902=CARTESIAN_POINT('',(-0.0368390799522025,0.0178160932750894,8.67361737988404E-19));
#903=CARTESIAN_POINT('',(-0.0336206910944396,0.031379313139926,0.006));
#904=CARTESIAN_POINT('',(-0.0336206910944396,0.031379313139926,0.));
#905=CARTESIAN_POINT('',(-0.0298275863111912,0.,0.));
#906=CARTESIAN_POINT('',(-0.038448274381084,0.0110344833426711,0.));
#907=CARTESIAN_POINT('',(-0.0336206910944396,0.031379313139926,0.));
#908=CARTESIAN_POINT('',(-0.0298275863111912,0.,0.));
#909=CARTESIAN_POINT('',(-0.0336206910944396,0.031379313139926,0.));
#910=CARTESIAN_POINT('',(-0.0298275863111912,0.,0.006));
#911=CARTESIAN_POINT('',(-0.0298275863111912,0.,0.006));
#912=CARTESIAN_POINT('',(-0.0298275863111912,0.,0.006));
#913=CARTESIAN_POINT('',(-0.038448274381084,0.0110344833426711,0.006));
#914=CARTESIAN_POINT('',(-0.0336206910944396,0.031379313139926,0.006));
#915=CARTESIAN_POINT('',(-0.0336206910944396,0.031379313139926,0.006));
#916=CARTESIAN_POINT('',(-0.0336206910944396,0.031379313139926,0.006));
#917=CARTESIAN_POINT('',(0.0336206910944396,0.031379313139926,0.006));
#918=CARTESIAN_POINT('',(0.0336206910944396,0.031379313139926,0.));
#919=CARTESIAN_POINT('',(0.0375287347074374,0.0180459781935011,0.006));
#920=CARTESIAN_POINT('',(0.0375287347074374,0.0180459781935011,8.67361737988404E-19));
#921=CARTESIAN_POINT('',(0.0363793089055605,0.00758620714685905,0.006));
#922=CARTESIAN_POINT('',(0.0363793089055605,0.00758620714685905,8.67361737988404E-19));
#923=CARTESIAN_POINT('',(0.0301724136888087,0.,0.006));
#924=CARTESIAN_POINT('',(0.0301724136888087,0.,0.));
#925=CARTESIAN_POINT('',(0.0336206910944396,0.031379313139926,0.));
#926=CARTESIAN_POINT('',(0.0394827565139364,0.0113793107202886,0.));
#927=CARTESIAN_POINT('',(0.0301724136888087,0.,0.));
#928=CARTESIAN_POINT('',(0.0336206910944396,0.031379313139926,0.));
#929=CARTESIAN_POINT('',(0.0301724136888087,0.,0.));
#930=CARTESIAN_POINT('',(0.0336206910944396,0.031379313139926,0.006));
#931=CARTESIAN_POINT('',(0.0336206910944396,0.031379313139926,0.006));
#932=CARTESIAN_POINT('',(0.0336206910944396,0.031379313139926,0.006));
#933=CARTESIAN_POINT('',(0.0394827565139364,0.0113793107202886,0.006));
#934=CARTESIAN_POINT('',(0.0301724136888087,0.,0.006));
#935=CARTESIAN_POINT('',(0.0301724136888087,0.,0.006));
#936=CARTESIAN_POINT('',(0.0301724136888087,0.,0.006));
#937=CARTESIAN_POINT('',(0.,0.031379313139926,0.006));
#938=CARTESIAN_POINT('',(0.,0.031379313139926,0.));
#939=CARTESIAN_POINT('',(0.0122988516037539,0.0451724155035368,0.006));
#940=CARTESIAN_POINT('',(0.0122988516037539,0.0451724155035368,8.67361737988404E-19));
#941=CARTESIAN_POINT('',(0.0235057486352337,0.0451724155035368,0.006));
#942=CARTESIAN_POINT('',(0.0235057486352337,0.0451724155035368,8.67361737988404E-19));
#943=CARTESIAN_POINT('',(0.0336206910944396,0.031379313139926,0.006));
#944=CARTESIAN_POINT('',(0.0336206910944396,0.031379313139926,0.));
#945=CARTESIAN_POINT('',(0.,0.031379313139926,0.));
#946=CARTESIAN_POINT('',(0.0184482774056308,0.0520689666853422,0.));
#947=CARTESIAN_POINT('',(0.0336206910944396,0.031379313139926,0.));
#948=CARTESIAN_POINT('',(0.,0.031379313139926,0.));
#949=CARTESIAN_POINT('',(0.,0.031379313139926,0.006));
#950=CARTESIAN_POINT('',(0.,0.031379313139926,0.006));
#951=CARTESIAN_POINT('',(0.,0.031379313139926,0.006));
#952=CARTESIAN_POINT('',(0.0184482774056308,0.0520689666853422,0.006));
#953=CARTESIAN_POINT('',(0.0336206910944396,0.031379313139926,0.006));
#954=CARTESIAN_POINT('',(-0.0336206910944396,0.031379313139926,0.006));
#955=CARTESIAN_POINT('',(-0.0336206910944396,0.031379313139926,0.));
#956=CARTESIAN_POINT('',(-0.0232758625070034,0.0451724155035368,0.006));
#957=CARTESIAN_POINT('',(-0.0232758625070034,0.0451724155035368,8.67361737988404E-19));
#958=CARTESIAN_POINT('',(-0.0120689654755235,0.0451724155035368,0.006));
#959=CARTESIAN_POINT('',(-0.0120689654755235,0.0451724155035368,8.67361737988404E-19));
#960=CARTESIAN_POINT('',(0.,0.031379313139926,0.006));
#961=CARTESIAN_POINT('',(0.,0.031379313139926,0.));
#962=CARTESIAN_POINT('',(-0.0336206910944396,0.031379313139926,0.));
#963=CARTESIAN_POINT('',(-0.0181034482132853,0.0520689666853422,0.));
#964=CARTESIAN_POINT('',(0.,0.031379313139926,0.));
#965=CARTESIAN_POINT('',(-0.0336206910944396,0.031379313139926,0.006));
#966=CARTESIAN_POINT('',(-0.0181034482132853,0.0520689666853422,0.006));
#967=CARTESIAN_POINT('',(0.,0.031379313139926,0.006));
#968=CARTESIAN_POINT('',(0.000517241066426186,0.0208620699563171,0.006));
#969=CARTESIAN_POINT('',(-0.0244837328791619,0.,0.006));
#970=CARTESIAN_POINT('',(-0.0323899239301682,0.0450716614723206,0.006));
#971=CARTESIAN_POINT('',(0.,0.0275023449212312,0.006));
#972=CARTESIAN_POINT('',(0.,0.0275023449212312,0.006));
#973=CARTESIAN_POINT('',(-0.0244837328791619,0.,0.006));
#974=CARTESIAN_POINT('',(0.0220749545842409,0.,0.006));
#975=CARTESIAN_POINT('',(0.0336206910944396,0.0444487407803536,0.006));
#976=CARTESIAN_POINT('',(0.,0.0275023449212312,0.006));
#977=CARTESIAN_POINT('',(0.0220749545842409,0.,0.006));
#978=CARTESIAN_POINT('',(0.000172413688808729,0.,0.006));
#979=CARTESIAN_POINT('',(0.000172413688808729,0.,0.006));
#980=CARTESIAN_POINT('',(0.000517241066426186,0.0208620699563171,0.));
#981=CARTESIAN_POINT('',(0.0301724136888087,-0.0104,0.));
#982=CARTESIAN_POINT('',(0.0301724136888087,-0.0104,0.));
#983=CARTESIAN_POINT('',(0.000172413688808722,-0.0104,0.));
#984=CARTESIAN_POINT('',(-0.0298275863111912,-0.0104,0.));
#985=CARTESIAN_POINT('',(-0.0298275863111912,-0.0104,0.));
#986=CARTESIAN_POINT('',(-0.0244837328791619,0.,0.007));
#987=CARTESIAN_POINT('',(-0.0244837328791619,0.,0.006));
#988=CARTESIAN_POINT('',(-0.0297545269131661,0.0300477743148804,0.007));
#989=CARTESIAN_POINT('',(-0.0297545269131661,0.0300477743148804,0.006));
#990=CARTESIAN_POINT('',(-0.0215932826201121,0.0392152226219575,0.007));
#991=CARTESIAN_POINT('',(-0.0215932826201121,0.0392152226219575,0.006));
#992=CARTESIAN_POINT('',(0.,0.0275023449212312,0.007));
#993=CARTESIAN_POINT('',(0.,0.0275023449212312,0.006));
#994=CARTESIAN_POINT('',(0.,0.0275023449212312,0.007));
#995=CARTESIAN_POINT('',(-0.0244837328791619,0.,0.007));
#996=CARTESIAN_POINT('',(0.0220749545842409,0.,0.007));
#997=CARTESIAN_POINT('',(0.0220749545842409,0.,0.006));
#998=CARTESIAN_POINT('',(0.0297721122577067,0.029632493853569,0.007));
#999=CARTESIAN_POINT('',(0.0297721122577067,0.029632493853569,0.006));
#1000=CARTESIAN_POINT('',(0.0224137940629597,0.0387999421606461,0.007));
#1001=CARTESIAN_POINT('',(0.0224137940629597,0.0387999421606461,0.006));
#1002=CARTESIAN_POINT('',(0.,0.0275023449212312,0.007));
#1003=CARTESIAN_POINT('',(0.,0.0275023449212312,0.006));
#1004=CARTESIAN_POINT('',(0.0220749545842409,0.,0.007));
#1005=CARTESIAN_POINT('',(-0.0298275863111912,-0.0104,0.035));
#1006=CARTESIAN_POINT('',(-0.0298275863111912,-0.0104,0.035));
#1007=CARTESIAN_POINT('',(-0.0298275863111912,-0.0104,0.0596188816817957));
#1008=CARTESIAN_POINT('',(-0.0298275863111912,-0.0104,0.0596188816817957));
#1009=CARTESIAN_POINT('',(-0.0298275863111912,0.,0.0596188816817957));
#1010=CARTESIAN_POINT('',(-0.0298275863111912,0.,0.035));
#1011=CARTESIAN_POINT('',(0.0301724136888087,-0.0104,0.035));
#1012=CARTESIAN_POINT('',(0.0301724136888087,0.,0.035));
#1013=CARTESIAN_POINT('',(0.0301724136888087,0.,0.0596188816817957));
#1014=CARTESIAN_POINT('',(0.0301724136888087,-0.0104,0.0596188816817957));
#1015=CARTESIAN_POINT('',(0.0301724136888087,-0.0104,0.0596188816817957));
#1016=CARTESIAN_POINT('',(0.0301724136888087,-0.0104,0.035));
#1017=CARTESIAN_POINT('',(0.000172413688808714,-0.0104,0.07));
#1018=CARTESIAN_POINT('',(0.000172413688808714,-0.0104,0.07));
#1019=CARTESIAN_POINT('',(-0.019446467992987,-0.0104,0.07));
#1020=CARTESIAN_POINT('',(0.0197912953706044,-0.0104,0.07));
#1021=CARTESIAN_POINT('',(0.0197912953706044,0.,0.07));
#1022=CARTESIAN_POINT('',(0.0197912953706044,0.,0.07));
#1023=CARTESIAN_POINT('',(0.000172413688808714,0.,0.07));
#1024=CARTESIAN_POINT('',(-0.019446467992987,0.,0.07));
#1025=CARTESIAN_POINT('',(-0.019446467992987,-0.0104,0.07));
#1026=CARTESIAN_POINT('',(0.000172413688808722,-0.0104,0.035));
#1027=CARTESIAN_POINT('',(0.0197912953706044,-0.0104,0.0596188816817957));
#1028=CARTESIAN_POINT('',(-0.019446467992987,-0.0104,0.0596188816817957));
#1029=CARTESIAN_POINT('',(0.000172413688808722,0.,0.035));
#1030=CARTESIAN_POINT('',(0.0197912953706044,0.,0.0596188816817957));
#1031=CARTESIAN_POINT('',(-0.019446467992987,0.,0.0596188816817957));
#1032=CARTESIAN_POINT('',(0.0197912953706044,-0.0104,0.0596188816817957));
#1033=CARTESIAN_POINT('',(-0.019446467992987,-0.0104,0.0596188816817957));
#1034=CARTESIAN_POINT('',(-0.0116635132580996,0.0201021675020456,0.008));
#1035=CARTESIAN_POINT('',(-0.0116635132580996,0.0201021675020456,0.007));
#1036=CARTESIAN_POINT('',(-0.0108555403313297,0.0208892099409628,0.008));
#1037=CARTESIAN_POINT('',(-0.0108555403313297,0.0208892099409628,0.007));
#1038=CARTESIAN_POINT('',(-0.00506269321315989,0.0196215662477572,0.008));
#1039=CARTESIAN_POINT('',(-0.00506269321315989,0.0196215662477572,0.007));
#1040=CARTESIAN_POINT('',(-0.00488239293669831,0.00930067911678831,0.008));
#1041=CARTESIAN_POINT('',(-0.00488239293669831,0.00930067911678831,0.007));
#1042=CARTESIAN_POINT('',(-0.0102588273928888,0.0150583771307768,0.008));
#1043=CARTESIAN_POINT('',(-0.0102588273928888,0.0150583771307768,0.007));
#1044=CARTESIAN_POINT('',(-0.0124622884741154,0.019324084507764,0.008));
#1045=CARTESIAN_POINT('',(-0.0124622884741154,0.019324084507764,0.007));
#1046=CARTESIAN_POINT('',(-0.0116635132580996,0.0201021675020456,0.008));
#1047=CARTESIAN_POINT('',(-0.0116635132580996,0.0201021675020456,0.007));
#1048=CARTESIAN_POINT('',(-0.0116635132580996,0.0201021675020456,0.008));
#1049=CARTESIAN_POINT('',(-0.0108555403313297,0.0208892099409628,0.008));
#1050=CARTESIAN_POINT('',(-0.00506269321315989,0.0196215662477572,0.008));
#1051=CARTESIAN_POINT('',(-0.00488239293669831,0.00930067911678831,0.008));
#1052=CARTESIAN_POINT('',(-0.0102588273928888,0.0150583771307768,0.008));
#1053=CARTESIAN_POINT('',(-0.0124622884741154,0.019324084507764,0.008));
#1054=CARTESIAN_POINT('',(-0.0116635132580996,0.0201021675020456,0.008));
#1055=CARTESIAN_POINT('',(-0.0116635132580996,0.0201021675020456,0.008));
#1056=CARTESIAN_POINT('',(-0.000294502782662385,0.0181435015983879,0.008));
#1057=CARTESIAN_POINT('',(0.00194013910368085,0.01367671135813,0.008));
#1058=CARTESIAN_POINT('',(0.00194013910368085,0.01367671135813,0.007));
#1059=CARTESIAN_POINT('',(0.00187577385530248,0.0147025136963606,0.008));
#1060=CARTESIAN_POINT('',(0.00187577385530248,0.0147025136963606,0.007));
#1061=CARTESIAN_POINT('',(0.0041384293461891,0.0175360470943686,0.008));
#1062=CARTESIAN_POINT('',(0.0041384293461891,0.0175360470943686,0.007));
#1063=CARTESIAN_POINT('',(0.00493417337002396,0.0189898363513591,0.008));
#1064=CARTESIAN_POINT('',(0.00493417337002396,0.0189898363513591,0.007));
#1065=CARTESIAN_POINT('',(0.0110392563440178,0.021369002550053,0.008));
#1066=CARTESIAN_POINT('',(0.0110392563440178,0.021369002550053,0.007));
#1067=CARTESIAN_POINT('',(0.00724532894567783,0.0144635131387444,0.008));
#1068=CARTESIAN_POINT('',(0.00724532894567783,0.0144635131387444,0.007));
#1069=CARTESIAN_POINT('',(0.0036027367093342,0.0119354688845199,0.008));
#1070=CARTESIAN_POINT('',(0.0036027367093342,0.0119354688845199,0.007));
#1071=CARTESIAN_POINT('',(0.00198211446550261,0.0130077412944751,0.008));
#1072=CARTESIAN_POINT('',(0.00198211446550261,0.0130077412944751,0.007));
#1073=CARTESIAN_POINT('',(0.00194013910368085,0.01367671135813,0.008));
#1074=CARTESIAN_POINT('',(0.00194013910368085,0.01367671135813,0.007));
#1075=CARTESIAN_POINT('',(0.00194013910368085,0.01367671135813,0.008));
#1076=CARTESIAN_POINT('',(0.00187577385530248,0.0147025136963606,0.008));
#1077=CARTESIAN_POINT('',(0.0041384293461891,0.0175360470943686,0.008));
#1078=CARTESIAN_POINT('',(0.00493417337002396,0.0189898363513591,0.008));
#1079=CARTESIAN_POINT('',(0.0110392563440178,0.021369002550053,0.008));
#1080=CARTESIAN_POINT('',(0.00724532894567783,0.0144635131387444,0.008));
#1081=CARTESIAN_POINT('',(0.0036027367093342,0.0119354688845199,0.008));
#1082=CARTESIAN_POINT('',(0.00198211446550261,0.0130077412944751,0.008));
#1083=CARTESIAN_POINT('',(0.00194013910368085,0.01367671135813,0.008));
#1084=CARTESIAN_POINT('',(0.00194013910368085,0.01367671135813,0.008));
#1085=CARTESIAN_POINT('',(-0.000294502782662385,0.0181435015983879,0.008));
#1086=MECHANICAL_DESIGN_GEOMETRIC_PRESENTATION_REPRESENTATION('',(#483,
#422,#423,#424,#425),#1089);
#1087=MECHANICAL_DESIGN_GEOMETRIC_PRESENTATION_REPRESENTATION('',(#484,
#426,#427,#428,#429,#430),#1090);
#1088=MECHANICAL_DESIGN_GEOMETRIC_PRESENTATION_REPRESENTATION('',(#485,
#431,#432,#433,#434,#435,#436,#437,#438,#439,#440,#441,#442,#443,#444,#445,
#446,#447,#448,#449,#450),#1091);
#1089=(
GEOMETRIC_REPRESENTATION_CONTEXT(3)
GLOBAL_UNCERTAINTY_ASSIGNED_CONTEXT((#1092))
GLOBAL_UNIT_ASSIGNED_CONTEXT((#1101,#1098,#1095))
REPRESENTATION_CONTEXT('Part 3','TOP_LEVEL_ASSEMBLY_PART')
);
#1090=(
GEOMETRIC_REPRESENTATION_CONTEXT(3)
GLOBAL_UNCERTAINTY_ASSIGNED_CONTEXT((#1093))
GLOBAL_UNIT_ASSIGNED_CONTEXT((#1102,#1099,#1096))
REPRESENTATION_CONTEXT('Part 2','TOP_LEVEL_ASSEMBLY_PART')
);
#1091=(
GEOMETRIC_REPRESENTATION_CONTEXT(3)
GLOBAL_UNCERTAINTY_ASSIGNED_CONTEXT((#1094))
GLOBAL_UNIT_ASSIGNED_CONTEXT((#1103,#1100,#1097))
REPRESENTATION_CONTEXT('Part 1','TOP_LEVEL_ASSEMBLY_PART')
);
#1092=UNCERTAINTY_MEASURE_WITH_UNIT(LENGTH_MEASURE(2.E-5),#1101,
'DISTANCE_ACCURACY_VALUE','Maximum Tolerance applied to model');
#1093=UNCERTAINTY_MEASURE_WITH_UNIT(LENGTH_MEASURE(1.E-8),#1102,
'DISTANCE_ACCURACY_VALUE','Maximum Tolerance applied to model');
#1094=UNCERTAINTY_MEASURE_WITH_UNIT(LENGTH_MEASURE(2.E-5),#1103,
'DISTANCE_ACCURACY_VALUE','Maximum Tolerance applied to model');
#1095=(
NAMED_UNIT(*)
SI_UNIT($,.STERADIAN.)
SOLID_ANGLE_UNIT()
);
#1096=(
NAMED_UNIT(*)
SI_UNIT($,.STERADIAN.)
SOLID_ANGLE_UNIT()
);
#1097=(
NAMED_UNIT(*)
SI_UNIT($,.STERADIAN.)
SOLID_ANGLE_UNIT()
);
#1098=(
NAMED_UNIT(*)
PLANE_ANGLE_UNIT()
SI_UNIT($,.RADIAN.)
);
#1099=(
NAMED_UNIT(*)
PLANE_ANGLE_UNIT()
SI_UNIT($,.RADIAN.)
);
#1100=(
NAMED_UNIT(*)
PLANE_ANGLE_UNIT()
SI_UNIT($,.RADIAN.)
);
#1101=(
LENGTH_UNIT()
NAMED_UNIT(*)
SI_UNIT($,.METRE.)
);
#1102=(
LENGTH_UNIT()
NAMED_UNIT(*)
SI_UNIT($,.METRE.)
);
#1103=(
LENGTH_UNIT()
NAMED_UNIT(*)
SI_UNIT($,.METRE.)
);
#1104=PRODUCT_DEFINITION_SHAPE('','',#1107);
#1105=PRODUCT_DEFINITION_SHAPE('','',#1108);
#1106=PRODUCT_DEFINITION_SHAPE('','',#1109);
#1107=PRODUCT_DEFINITION('','',#1113,#1110);
#1108=PRODUCT_DEFINITION('','',#1114,#1111);
#1109=PRODUCT_DEFINITION('','',#1115,#1112);
#1110=PRODUCT_DEFINITION_CONTEXT('',#1131,'design');
#1111=PRODUCT_DEFINITION_CONTEXT('',#1132,'design');
#1112=PRODUCT_DEFINITION_CONTEXT('',#1133,'design');
#1113=PRODUCT_DEFINITION_FORMATION_WITH_SPECIFIED_SOURCE('','',#1119,
 .NOT_KNOWN.);
#1114=PRODUCT_DEFINITION_FORMATION_WITH_SPECIFIED_SOURCE('','',#1120,
 .NOT_KNOWN.);
#1115=PRODUCT_DEFINITION_FORMATION_WITH_SPECIFIED_SOURCE('','',#1121,
 .NOT_KNOWN.);
#1116=PRODUCT_RELATED_PRODUCT_CATEGORY('','',(#1119));
#1117=PRODUCT_RELATED_PRODUCT_CATEGORY('','',(#1120));
#1118=PRODUCT_RELATED_PRODUCT_CATEGORY('','',(#1121));
#1119=PRODUCT('Part 3','Part 3','Part 3',(#1125));
#1120=PRODUCT('Part 2','Part 2','Part 2',(#1126));
#1121=PRODUCT('Part 1','Part 1','Part 1',(#1127));
#1122=PRODUCT_CATEGORY('','');
#1123=PRODUCT_CATEGORY('','');
#1124=PRODUCT_CATEGORY('','');
#1125=PRODUCT_CONTEXT('',#1131,'mechanical');
#1126=PRODUCT_CONTEXT('',#1132,'mechanical');
#1127=PRODUCT_CONTEXT('',#1133,'mechanical');
#1128=APPLICATION_PROTOCOL_DEFINITION('international standard',
'ap242_managed_model_based_3d_engineering',2020,#1131);
#1129=APPLICATION_PROTOCOL_DEFINITION('international standard',
'ap242_managed_model_based_3d_engineering',2020,#1132);
#1130=APPLICATION_PROTOCOL_DEFINITION('international standard',
'ap242_managed_model_based_3d_engineering',2020,#1133);
#1131=APPLICATION_CONTEXT('managed model based 3d engineering');
#1132=APPLICATION_CONTEXT('managed model based 3d engineering');
#1133=APPLICATION_CONTEXT('managed model based 3d engineering');
ENDSEC;
END-ISO-10303-21;
